<?xml version="1.0" standalone="no"?>
 <!DOCTYPE svg PUBLIC "-//W3C//DTD SVG 1.1//EN" 
 "http://www.w3.org/Graphics/SVG/1.1/DTD/svg11.dtd"> 
<svg xmlns="http://www.w3.org/2000/svg" version="1.1" 
    width="10.5969cm" height="3.50774cm" viewBox="0 0 41720 13810 ">
<title>SVG Picture created as USB-DAC-PCM2902-F.Cu.svg date 2018/11/24 18:00:46 </title>
  <desc>Picture generated by PCBNEW </desc>
<g style="fill:#000000; fill-opacity:1;stroke:#000000; stroke-opacity:1;
stroke-linecap:round; stroke-linejoin:round; "
 transform="translate(0 0) scale(1 1)">
</g>
<g style="fill:#000000; fill-opacity:0.0; 
stroke:#000000; stroke-width:-0.000393701; stroke-opacity:1; 
stroke-linecap:round; stroke-linejoin:round;">
</g>
<g style="fill:#000000; fill-opacity:0.0; 
stroke:#000000; stroke-width:0; stroke-opacity:1; 
stroke-linecap:round; stroke-linejoin:round;">
</g>
<g style="fill:#000000; fill-opacity:1.0; 
stroke:#000000; stroke-width:0; stroke-opacity:1; 
stroke-linecap:round; stroke-linejoin:round;">
<polyline style="fill-rule:evenodd;"
points="452,7350
3602,7350
3602,8098
452,8098
452,7350
" /> 
<polyline style="fill-rule:evenodd;"
points="452,4350
3602,4350
3602,5098
452,5098
452,4350
" /> 
<polyline style="fill-rule:evenodd;"
points="649,5318
3602,5318
3602,6106
649,6106
649,5318
" /> 
<polyline style="fill-rule:evenodd;"
points="649,6342
3602,6342
3602,7129
649,7129
649,6342
" /> 
</g>
<g style="fill:#000000; fill-opacity:1.0; 
stroke:#000000; stroke-width:669.291; stroke-opacity:1; 
stroke-linecap:round; stroke-linejoin:round;">
</g>
<g style="fill:#000000; fill-opacity:0.0; 
stroke:#000000; stroke-width:669.291; stroke-opacity:1; 
stroke-linecap:round; stroke-linejoin:round;">
<path d="M23854 1842
L23854 1842
" />
</g>
<g style="fill:#000000; fill-opacity:0.0; 
stroke:#000000; stroke-width:0; stroke-opacity:1; 
stroke-linecap:round; stroke-linejoin:round;">
</g>
<g style="fill:#000000; fill-opacity:1.0; 
stroke:#000000; stroke-width:0; stroke-opacity:1; 
stroke-linecap:round; stroke-linejoin:round;">
<polyline style="fill-rule:evenodd;"
points="23519,1177
23519,507
24188,507
24188,1177
23519,1177
" /> 
<circle cx="17822.8" cy="3645.67" r="393.701" /> 
</g>
<g style="fill:#000000; fill-opacity:1.0; 
stroke:#000000; stroke-width:39.3701; stroke-opacity:1; 
stroke-linecap:round; stroke-linejoin:round;">
</g>
<g style="fill:#000000; fill-opacity:1.0; 
stroke:#000000; stroke-width:0; stroke-opacity:1; 
stroke-linecap:round; stroke-linejoin:round;">
<circle cx="16051.2" cy="3645.67" r="393.701" /> 
</g>
<g style="fill:#000000; fill-opacity:1.0; 
stroke:#000000; stroke-width:39.3701; stroke-opacity:1; 
stroke-linecap:round; stroke-linejoin:round;">
</g>
<g style="fill:#000000; fill-opacity:1.0; 
stroke:#000000; stroke-width:0; stroke-opacity:1; 
stroke-linecap:round; stroke-linejoin:round;">
<circle cx="17822.8" cy="1086.61" r="393.701" /> 
</g>
<g style="fill:#000000; fill-opacity:1.0; 
stroke:#000000; stroke-width:39.3701; stroke-opacity:1; 
stroke-linecap:round; stroke-linejoin:round;">
</g>
<g style="fill:#000000; fill-opacity:1.0; 
stroke:#000000; stroke-width:0; stroke-opacity:1; 
stroke-linecap:round; stroke-linejoin:round;">
<circle cx="16051.2" cy="1086.61" r="393.701" /> 
</g>
<g style="fill:#000000; fill-opacity:1.0; 
stroke:#000000; stroke-width:39.3701; stroke-opacity:1; 
stroke-linecap:round; stroke-linejoin:round;">
</g>
<g style="fill:#000000; fill-opacity:1.0; 
stroke:#000000; stroke-width:0; stroke-opacity:1; 
stroke-linecap:round; stroke-linejoin:round;">
<circle cx="12942.9" cy="1086.61" r="393.701" /> 
</g>
<g style="fill:#000000; fill-opacity:1.0; 
stroke:#000000; stroke-width:39.3701; stroke-opacity:1; 
stroke-linecap:round; stroke-linejoin:round;">
</g>
<g style="fill:#000000; fill-opacity:1.0; 
stroke:#000000; stroke-width:0; stroke-opacity:1; 
stroke-linecap:round; stroke-linejoin:round;">
<circle cx="14714.6" cy="1086.61" r="393.701" /> 
</g>
<g style="fill:#000000; fill-opacity:1.0; 
stroke:#000000; stroke-width:39.3701; stroke-opacity:1; 
stroke-linecap:round; stroke-linejoin:round;">
</g>
<g style="fill:#000000; fill-opacity:1.0; 
stroke:#000000; stroke-width:0; stroke-opacity:1; 
stroke-linecap:round; stroke-linejoin:round;">
<circle cx="12942.9" cy="3645.67" r="393.701" /> 
</g>
<g style="fill:#000000; fill-opacity:1.0; 
stroke:#000000; stroke-width:39.3701; stroke-opacity:1; 
stroke-linecap:round; stroke-linejoin:round;">
</g>
<g style="fill:#000000; fill-opacity:1.0; 
stroke:#000000; stroke-width:0; stroke-opacity:1; 
stroke-linecap:round; stroke-linejoin:round;">
<circle cx="14714.6" cy="3645.67" r="393.701" /> 
</g>
<g style="fill:#000000; fill-opacity:1.0; 
stroke:#000000; stroke-width:39.3701; stroke-opacity:1; 
stroke-linecap:round; stroke-linejoin:round;">
</g>
<g style="fill:#000000; fill-opacity:1.0; 
stroke:#000000; stroke-width:0; stroke-opacity:1; 
stroke-linecap:round; stroke-linejoin:round;">
<circle cx="11606.3" cy="3645.67" r="393.701" /> 
</g>
<g style="fill:#000000; fill-opacity:1.0; 
stroke:#000000; stroke-width:39.3701; stroke-opacity:1; 
stroke-linecap:round; stroke-linejoin:round;">
</g>
<g style="fill:#000000; fill-opacity:1.0; 
stroke:#000000; stroke-width:0; stroke-opacity:1; 
stroke-linecap:round; stroke-linejoin:round;">
<circle cx="9834.65" cy="3645.67" r="393.701" /> 
</g>
<g style="fill:#000000; fill-opacity:1.0; 
stroke:#000000; stroke-width:39.3701; stroke-opacity:1; 
stroke-linecap:round; stroke-linejoin:round;">
</g>
<g style="fill:#000000; fill-opacity:1.0; 
stroke:#000000; stroke-width:0; stroke-opacity:1; 
stroke-linecap:round; stroke-linejoin:round;">
<circle cx="11606.3" cy="1086.61" r="393.701" /> 
</g>
<g style="fill:#000000; fill-opacity:1.0; 
stroke:#000000; stroke-width:39.3701; stroke-opacity:1; 
stroke-linecap:round; stroke-linejoin:round;">
</g>
<g style="fill:#000000; fill-opacity:1.0; 
stroke:#000000; stroke-width:0; stroke-opacity:1; 
stroke-linecap:round; stroke-linejoin:round;">
<circle cx="9834.65" cy="1086.61" r="393.701" /> 
</g>
<g style="fill:#000000; fill-opacity:1.0; 
stroke:#000000; stroke-width:39.3701; stroke-opacity:1; 
stroke-linecap:round; stroke-linejoin:round;">
</g>
<g style="fill:#000000; fill-opacity:1.0; 
stroke:#000000; stroke-width:0; stroke-opacity:1; 
stroke-linecap:round; stroke-linejoin:round;">
<polyline style="fill-rule:evenodd;"
points="18657,6074
18657,5444
19681,5444
19681,6074
18657,6074
" /> 
<polyline style="fill-rule:evenodd;"
points="17240,6074
17240,5444
18263,5444
18263,6074
17240,6074
" /> 
<polyline style="fill-rule:evenodd;"
points="17240,8267
17240,7637
18263,7637
18263,8267
17240,8267
" /> 
<polyline style="fill-rule:evenodd;"
points="18657,8267
18657,7637
19681,7637
19681,8267
18657,8267
" /> 
<polyline style="fill-rule:evenodd;"
points="21549,7651
21549,8281
20525,8281
20525,7651
21549,7651
" /> 
<polyline style="fill-rule:evenodd;"
points="22966,7651
22966,8281
21942,8281
21942,7651
22966,7651
" /> 
<polyline style="fill-rule:evenodd;"
points="12035,9828
12665,9828
12665,10852
12035,10852
12035,9828
" /> 
<polyline style="fill-rule:evenodd;"
points="12035,11246
12665,11246
12665,12269
12035,12269
12035,11246
" /> 
<polyline style="fill-rule:evenodd;"
points="7090,11515
7720,11515
7720,12539
7090,12539
7090,11515
" /> 
<polyline style="fill-rule:evenodd;"
points="7090,10098
7720,10098
7720,11122
7090,11122
7090,10098
" /> 
<polyline style="fill-rule:evenodd;"
points="9507,10098
10137,10098
10137,11122
9507,11122
9507,10098
" /> 
<polyline style="fill-rule:evenodd;"
points="9507,11515
10137,11515
10137,12539
9507,12539
9507,11515
" /> 
<polyline style="fill-rule:evenodd;"
points="14200,11255
14830,11255
14830,12279
14200,12279
14200,11255
" /> 
<polyline style="fill-rule:evenodd;"
points="14200,9838
14830,9838
14830,10862
14200,10862
14200,9838
" /> 
<polyline style="fill-rule:evenodd;"
points="22966,5521
22966,6151
21942,6151
21942,5521
22966,5521
" /> 
<polyline style="fill-rule:evenodd;"
points="21549,5521
21549,6151
20525,6151
20525,5521
21549,5521
" /> 
<polyline style="fill-rule:evenodd;"
points="18051,9202
18051,10187
17578,10187
17578,9202
18051,9202
" /> 
<polyline style="fill-rule:evenodd;"
points="18484,11761
18484,12746
18011,12746
18011,11761
18484,11761
" /> 
<polyline style="fill-rule:evenodd;"
points="20059,11761
20059,12746
19586,12746
19586,11761
20059,11761
" /> 
<polyline style="fill-rule:evenodd;"
points="21240,11761
21240,12746
20767,12746
20767,11761
21240,11761
" /> 
<polyline style="fill-rule:evenodd;"
points="5390,2437
5399,2438
5408,2441
5416,2444
5424,2448
5432,2452
5440,2458
5447,2464
5453,2471
5458,2478
5463,2486
5467,2494
5470,2503
5472,2512
5473,2521
5474,2530
5474,2756
5473,2766
5472,2775
5470,2784
5467,2792
5463,2800
5458,2808
5453,2816
5447,2823
5440,2829
5432,2834
5424,2839
5416,2843
5408,2846
5399,2848
5390,2849
5380,2850
5193,2850
5184,2849
5175,2848
5166,2846
5158,2843
5149,2839
5141,2834
5134,2829
5127,2823
5121,2816
5116,2808
5111,2800
5107,2792
5104,2784
5102,2775
5100,2766
5100,2756
5100,2530
5100,2521
5102,2512
5104,2503
5107,2494
5111,2486
5116,2478
5121,2471
5127,2464
5134,2458
5141,2452
5149,2448
5158,2444
5166,2441
5175,2438
5184,2437
5193,2437
5380,2437
5390,2437
" /> 
<polyline style="fill-rule:evenodd;"
points="5390,1748
5399,1749
5408,1752
5416,1755
5424,1759
5432,1763
5440,1769
5447,1775
5453,1782
5458,1789
5463,1797
5467,1805
5470,1814
5472,1823
5473,1832
5474,1841
5474,2067
5473,2077
5472,2086
5470,2095
5467,2103
5463,2111
5458,2119
5453,2127
5447,2134
5440,2140
5432,2145
5424,2150
5416,2154
5408,2157
5399,2159
5390,2160
5380,2161
5193,2161
5184,2160
5175,2159
5166,2157
5158,2154
5149,2150
5141,2145
5134,2140
5127,2134
5121,2127
5116,2119
5111,2111
5107,2103
5104,2095
5102,2086
5100,2077
5100,2067
5100,1841
5100,1832
5102,1823
5104,1814
5107,1805
5111,1797
5116,1789
5121,1782
5127,1775
5134,1769
5141,1763
5149,1759
5158,1755
5166,1752
5175,1749
5184,1748
5193,1748
5380,1748
5390,1748
" /> 
<polyline style="fill-rule:evenodd;"
points="12692,5544
12692,5386
13165,5386
13165,5544
12692,5544
" /> 
<polyline style="fill-rule:evenodd;"
points="12692,5794
12692,5636
13165,5636
13165,5794
12692,5794
" /> 
<polyline style="fill-rule:evenodd;"
points="12692,6044
12692,5886
13165,5886
13165,6044
12692,6044
" /> 
<polyline style="fill-rule:evenodd;"
points="12692,6294
12692,6136
13165,6136
13165,6294
12692,6294
" /> 
<polyline style="fill-rule:evenodd;"
points="12692,6544
12692,6386
13165,6386
13165,6544
12692,6544
" /> 
<polyline style="fill-rule:evenodd;"
points="12692,6794
12692,6636
13165,6636
13165,6794
12692,6794
" /> 
<polyline style="fill-rule:evenodd;"
points="12692,7044
12692,6886
13165,6886
13165,7044
12692,7044
" /> 
<polyline style="fill-rule:evenodd;"
points="12692,7294
12692,7136
13165,7136
13165,7294
12692,7294
" /> 
<polyline style="fill-rule:evenodd;"
points="12692,7544
12692,7386
13165,7386
13165,7544
12692,7544
" /> 
<polyline style="fill-rule:evenodd;"
points="12692,7794
12692,7636
13165,7636
13165,7794
12692,7794
" /> 
<polyline style="fill-rule:evenodd;"
points="12692,8044
12692,7886
13165,7886
13165,8044
12692,8044
" /> 
<polyline style="fill-rule:evenodd;"
points="12692,8294
12692,8136
13165,8136
13165,8294
12692,8294
" /> 
<polyline style="fill-rule:evenodd;"
points="12692,8544
12692,8386
13165,8386
13165,8544
12692,8544
" /> 
<polyline style="fill-rule:evenodd;"
points="12692,8794
12692,8636
13165,8636
13165,8794
12692,8794
" /> 
<polyline style="fill-rule:evenodd;"
points="14740,8794
14740,8636
15212,8636
15212,8794
14740,8794
" /> 
<polyline style="fill-rule:evenodd;"
points="14740,8544
14740,8386
15212,8386
15212,8544
14740,8544
" /> 
<polyline style="fill-rule:evenodd;"
points="14740,8294
14740,8136
15212,8136
15212,8294
14740,8294
" /> 
<polyline style="fill-rule:evenodd;"
points="14740,8044
14740,7886
15212,7886
15212,8044
14740,8044
" /> 
<polyline style="fill-rule:evenodd;"
points="14740,7794
14740,7636
15212,7636
15212,7794
14740,7794
" /> 
<polyline style="fill-rule:evenodd;"
points="14740,7544
14740,7386
15212,7386
15212,7544
14740,7544
" /> 
<polyline style="fill-rule:evenodd;"
points="14740,7294
14740,7136
15212,7136
15212,7294
14740,7294
" /> 
<polyline style="fill-rule:evenodd;"
points="14740,7044
14740,6886
15212,6886
15212,7044
14740,7044
" /> 
<polyline style="fill-rule:evenodd;"
points="14740,6794
14740,6636
15212,6636
15212,6794
14740,6794
" /> 
<polyline style="fill-rule:evenodd;"
points="14740,6544
14740,6386
15212,6386
15212,6544
14740,6544
" /> 
<polyline style="fill-rule:evenodd;"
points="14740,6294
14740,6136
15212,6136
15212,6294
14740,6294
" /> 
<polyline style="fill-rule:evenodd;"
points="14740,6044
14740,5886
15212,5886
15212,6044
14740,6044
" /> 
<polyline style="fill-rule:evenodd;"
points="14740,5794
14740,5636
15212,5636
15212,5794
14740,5794
" /> 
<polyline style="fill-rule:evenodd;"
points="14740,5544
14740,5386
15212,5386
15212,5544
14740,5544
" /> 
<polyline style="fill-rule:evenodd;"
points="7539,2437
7548,2438
7557,2441
7566,2444
7574,2448
7582,2452
7589,2458
7596,2464
7602,2471
7608,2478
7612,2486
7616,2494
7619,2503
7622,2512
7623,2521
7624,2530
7624,2756
7623,2766
7622,2775
7619,2784
7616,2792
7612,2800
7608,2808
7602,2816
7596,2823
7589,2829
7582,2834
7574,2839
7566,2843
7557,2846
7548,2848
7539,2849
7530,2850
7343,2850
7334,2849
7325,2848
7316,2846
7307,2843
7299,2839
7291,2834
7284,2829
7277,2823
7271,2816
7265,2808
7261,2800
7257,2792
7254,2784
7251,2775
7250,2766
7250,2756
7250,2530
7250,2521
7251,2512
7254,2503
7257,2494
7261,2486
7265,2478
7271,2471
7277,2464
7284,2458
7291,2452
7299,2448
7307,2444
7316,2441
7325,2438
7334,2437
7343,2437
7530,2437
7539,2437
" /> 
<polyline style="fill-rule:evenodd;"
points="7539,1748
7548,1749
7557,1752
7566,1755
7574,1759
7582,1763
7589,1769
7596,1775
7602,1782
7608,1789
7612,1797
7616,1805
7619,1814
7622,1823
7623,1832
7624,1841
7624,2067
7623,2077
7622,2086
7619,2095
7616,2103
7612,2111
7608,2119
7602,2127
7596,2134
7589,2140
7582,2145
7574,2150
7566,2154
7557,2157
7548,2159
7539,2160
7530,2161
7343,2161
7334,2160
7325,2159
7316,2157
7307,2154
7299,2150
7291,2145
7284,2140
7277,2134
7271,2127
7265,2119
7261,2111
7257,2103
7254,2095
7251,2086
7250,2077
7250,2067
7250,1841
7250,1832
7251,1823
7254,1814
7257,1805
7261,1797
7265,1789
7271,1782
7277,1775
7284,1769
7291,1763
7299,1759
7307,1755
7316,1752
7325,1749
7334,1748
7343,1748
7530,1748
7539,1748
" /> 
<polyline style="fill-rule:evenodd;"
points="6500,4911
6509,4913
6518,4915
6526,4918
6535,4922
6543,4927
6550,4932
6557,4938
6563,4945
6568,4952
6573,4960
6577,4969
6580,4977
6582,4986
6584,4995
6584,5004
6584,5191
6584,5201
6582,5210
6580,5219
6577,5227
6573,5236
6568,5243
6563,5251
6557,5258
6550,5264
6543,5269
6535,5274
6526,5278
6518,5281
6509,5283
6500,5284
6491,5285
6264,5285
6255,5284
6246,5283
6237,5281
6228,5278
6220,5274
6212,5269
6205,5264
6198,5258
6192,5251
6187,5243
6182,5236
6178,5227
6175,5219
6173,5210
6171,5201
6171,5191
6171,5004
6171,4995
6173,4986
6175,4977
6178,4969
6182,4960
6187,4952
6192,4945
6198,4938
6205,4932
6212,4927
6220,4922
6228,4918
6237,4915
6246,4913
6255,4911
6264,4911
6491,4911
6500,4911
" /> 
<polyline style="fill-rule:evenodd;"
points="7189,4911
7198,4913
7207,4915
7215,4918
7224,4922
7232,4927
7239,4932
7246,4938
7252,4945
7257,4952
7262,4960
7266,4969
7269,4977
7271,4986
7273,4995
7273,5004
7273,5191
7273,5201
7271,5210
7269,5219
7266,5227
7262,5236
7257,5243
7252,5251
7246,5258
7239,5264
7232,5269
7224,5274
7215,5278
7207,5281
7198,5283
7189,5284
7180,5285
6953,5285
6944,5284
6935,5283
6926,5281
6917,5278
6909,5274
6901,5269
6894,5264
6887,5258
6881,5251
6875,5243
6871,5236
6867,5227
6864,5219
6862,5210
6860,5201
6860,5191
6860,5004
6860,4995
6862,4986
6864,4977
6867,4969
6871,4960
6875,4952
6881,4945
6887,4938
6894,4932
6901,4927
6909,4922
6917,4918
6926,4915
6935,4913
6944,4911
6953,4911
7180,4911
7189,4911
" /> 
<polyline style="fill-rule:evenodd;"
points="7258,5679
7267,5680
7276,5683
7284,5686
7293,5690
7300,5694
7308,5700
7315,5706
7321,5713
7326,5720
7331,5728
7335,5736
7338,5745
7340,5754
7342,5763
7342,5772
7342,5959
7342,5968
7340,5977
7338,5986
7335,5995
7331,6003
7326,6011
7321,6018
7315,6025
7308,6031
7300,6037
7293,6042
7284,6046
7276,6049
7267,6051
7258,6052
7249,6053
7022,6053
7013,6052
7004,6051
6995,6049
6986,6046
6978,6042
6970,6037
6963,6031
6956,6025
6950,6018
6944,6011
6940,6003
6936,5995
6933,5986
6930,5977
6929,5968
6929,5959
6929,5772
6929,5763
6930,5754
6933,5745
6936,5736
6940,5728
6944,5720
6950,5713
6956,5706
6963,5700
6970,5694
6978,5690
6986,5686
6995,5683
7004,5680
7013,5679
7022,5679
7249,5679
7258,5679
" /> 
<polyline style="fill-rule:evenodd;"
points="6569,5679
6578,5680
6587,5683
6595,5686
6604,5690
6611,5694
6619,5700
6626,5706
6632,5713
6637,5720
6642,5728
6646,5736
6649,5745
6651,5754
6653,5763
6653,5772
6653,5959
6653,5968
6651,5977
6649,5986
6646,5995
6642,6003
6637,6011
6632,6018
6626,6025
6619,6031
6611,6037
6604,6042
6595,6046
6587,6049
6578,6051
6569,6052
6560,6053
6333,6053
6324,6052
6315,6051
6306,6049
6297,6046
6289,6042
6281,6037
6274,6031
6267,6025
6261,6018
6255,6011
6251,6003
6247,5995
6244,5986
6241,5977
6240,5968
6240,5959
6240,5772
6240,5763
6241,5754
6244,5745
6247,5736
6251,5728
6255,5720
6261,5713
6267,5706
6274,5700
6281,5694
6289,5690
6297,5686
6306,5683
6315,5680
6324,5679
6333,5679
6560,5679
6569,5679
" /> 
<polyline style="fill-rule:evenodd;"
points="6472,2437
6481,2438
6490,2441
6499,2444
6507,2448
6515,2452
6522,2458
6529,2464
6535,2471
6541,2478
6546,2486
6549,2494
6553,2503
6555,2512
6556,2521
6557,2530
6557,2756
6556,2766
6555,2775
6553,2784
6549,2792
6546,2800
6541,2808
6535,2816
6529,2823
6522,2829
6515,2834
6507,2839
6499,2843
6490,2846
6481,2848
6472,2849
6463,2850
6276,2850
6267,2849
6258,2848
6249,2846
6240,2843
6232,2839
6224,2834
6217,2829
6210,2823
6204,2816
6198,2808
6194,2800
6190,2792
6187,2784
6184,2775
6183,2766
6183,2756
6183,2530
6183,2521
6184,2512
6187,2503
6190,2494
6194,2486
6198,2478
6204,2471
6210,2464
6217,2458
6224,2452
6232,2448
6240,2444
6249,2441
6258,2438
6267,2437
6276,2437
6463,2437
6472,2437
" /> 
<polyline style="fill-rule:evenodd;"
points="6472,1748
6481,1749
6490,1752
6499,1755
6507,1759
6515,1763
6522,1769
6529,1775
6535,1782
6541,1789
6546,1797
6549,1805
6553,1814
6555,1823
6556,1832
6557,1841
6557,2067
6556,2077
6555,2086
6553,2095
6549,2103
6546,2111
6541,2119
6535,2127
6529,2134
6522,2140
6515,2145
6507,2150
6499,2154
6490,2157
6481,2159
6472,2160
6463,2161
6276,2161
6267,2160
6258,2159
6249,2157
6240,2154
6232,2150
6224,2145
6217,2140
6210,2134
6204,2127
6198,2119
6194,2111
6190,2103
6187,2095
6184,2086
6183,2077
6183,2067
6183,1841
6183,1832
6184,1823
6187,1814
6190,1805
6194,1797
6198,1789
6204,1782
6210,1775
6217,1769
6224,1763
6232,1759
6240,1755
6249,1752
6258,1749
6267,1748
6276,1748
6463,1748
6472,1748
" /> 
<circle cx="20157.5" cy="2935.04" r="393.5" /> 
</g>
<g style="fill:#000000; fill-opacity:1.0; 
stroke:#000000; stroke-width:39.3701; stroke-opacity:1; 
stroke-linecap:round; stroke-linejoin:round;">
</g>
<g style="fill:#000000; fill-opacity:1.0; 
stroke:#000000; stroke-width:0; stroke-opacity:1; 
stroke-linecap:round; stroke-linejoin:round;">
<circle cx="22157.5" cy="2935.04" r="393.5" /> 
</g>
<g style="fill:#000000; fill-opacity:1.0; 
stroke:#000000; stroke-width:39.3701; stroke-opacity:1; 
stroke-linecap:round; stroke-linejoin:round;">
</g>
<g style="fill:#000000; fill-opacity:1.0; 
stroke:#000000; stroke-width:0; stroke-opacity:1; 
stroke-linecap:round; stroke-linejoin:round;">
<circle cx="16598.4" cy="8822.84" r="393.701" /> 
</g>
<g style="fill:#000000; fill-opacity:1.0; 
stroke:#000000; stroke-width:39.3701; stroke-opacity:1; 
stroke-linecap:round; stroke-linejoin:round;">
</g>
<g style="fill:#000000; fill-opacity:1.0; 
stroke:#000000; stroke-width:0; stroke-opacity:1; 
stroke-linecap:round; stroke-linejoin:round;">
<circle cx="16578.7" cy="7625.98" r="393.701" /> 
</g>
<g style="fill:#000000; fill-opacity:1.0; 
stroke:#000000; stroke-width:39.3701; stroke-opacity:1; 
stroke-linecap:round; stroke-linejoin:round;">
</g>
<g style="fill:#000000; fill-opacity:1.0; 
stroke:#000000; stroke-width:0; stroke-opacity:1; 
stroke-linecap:round; stroke-linejoin:round;">
<circle cx="5847.98" cy="4013.36" r="393.701" /> 
</g>
<g style="fill:#000000; fill-opacity:1.0; 
stroke:#000000; stroke-width:39.3701; stroke-opacity:1; 
stroke-linecap:round; stroke-linejoin:round;">
</g>
<g style="fill:#000000; fill-opacity:1.0; 
stroke:#000000; stroke-width:0; stroke-opacity:1; 
stroke-linecap:round; stroke-linejoin:round;">
<circle cx="6492.13" cy="795.276" r="393.701" /> 
</g>
<g style="fill:#000000; fill-opacity:1.0; 
stroke:#000000; stroke-width:39.3701; stroke-opacity:1; 
stroke-linecap:round; stroke-linejoin:round;">
</g>
<g style="fill:#000000; fill-opacity:1.0; 
stroke:#000000; stroke-width:0; stroke-opacity:1; 
stroke-linecap:round; stroke-linejoin:round;">
<circle cx="11830.7" cy="8779.53" r="216.535" /> 
</g>
<g style="fill:#000000; fill-opacity:1.0; 
stroke:#000000; stroke-width:39.3701; stroke-opacity:1; 
stroke-linecap:round; stroke-linejoin:round;">
</g>
<g style="fill:#000000; fill-opacity:1.0; 
stroke:#000000; stroke-width:0; stroke-opacity:1; 
stroke-linecap:round; stroke-linejoin:round;">
<circle cx="11090.6" cy="12027.6" r="393.701" /> 
</g>
<g style="fill:#000000; fill-opacity:1.0; 
stroke:#000000; stroke-width:39.3701; stroke-opacity:1; 
stroke-linecap:round; stroke-linejoin:round;">
</g>
<g style="fill:#000000; fill-opacity:1.0; 
stroke:#000000; stroke-width:0; stroke-opacity:1; 
stroke-linecap:round; stroke-linejoin:round;">
<circle cx="5531.5" cy="9055.12" r="216.535" /> 
</g>
<g style="fill:#000000; fill-opacity:1.0; 
stroke:#000000; stroke-width:39.3701; stroke-opacity:1; 
stroke-linecap:round; stroke-linejoin:round;">
</g>
<g style="fill:#000000; fill-opacity:1.0; 
stroke:#000000; stroke-width:0; stroke-opacity:1; 
stroke-linecap:round; stroke-linejoin:round;">
<circle cx="5158.28" cy="4317.66" r="216.535" /> 
</g>
<g style="fill:#000000; fill-opacity:1.0; 
stroke:#000000; stroke-width:39.3701; stroke-opacity:1; 
stroke-linecap:round; stroke-linejoin:round;">
</g>
<g style="fill:#000000; fill-opacity:1.0; 
stroke:#000000; stroke-width:0; stroke-opacity:1; 
stroke-linecap:round; stroke-linejoin:round;">
<circle cx="23720.5" cy="5039.37" r="393.701" /> 
</g>
<g style="fill:#000000; fill-opacity:1.0; 
stroke:#000000; stroke-width:39.3701; stroke-opacity:1; 
stroke-linecap:round; stroke-linejoin:round;">
</g>
<g style="fill:#000000; fill-opacity:1.0; 
stroke:#000000; stroke-width:0; stroke-opacity:1; 
stroke-linecap:round; stroke-linejoin:round;">
<circle cx="7216.54" cy="8629.92" r="393.701" /> 
</g>
<g style="fill:#000000; fill-opacity:1.0; 
stroke:#000000; stroke-width:39.3701; stroke-opacity:1; 
stroke-linecap:round; stroke-linejoin:round;">
</g>
<g style="fill:#000000; fill-opacity:1.0; 
stroke:#000000; stroke-width:0; stroke-opacity:1; 
stroke-linecap:round; stroke-linejoin:round;">
<circle cx="9307.09" cy="7196.85" r="393.701" /> 
</g>
<g style="fill:#000000; fill-opacity:1.0; 
stroke:#000000; stroke-width:39.3701; stroke-opacity:1; 
stroke-linecap:round; stroke-linejoin:round;">
</g>
<g style="fill:#000000; fill-opacity:1.0; 
stroke:#000000; stroke-width:0; stroke-opacity:1; 
stroke-linecap:round; stroke-linejoin:round;">
<circle cx="5771.65" cy="7948.82" r="393.701" /> 
</g>
<g style="fill:#000000; fill-opacity:1.0; 
stroke:#000000; stroke-width:39.3701; stroke-opacity:1; 
stroke-linecap:round; stroke-linejoin:round;">
</g>
<g style="fill:#000000; fill-opacity:1.0; 
stroke:#000000; stroke-width:0; stroke-opacity:1; 
stroke-linecap:round; stroke-linejoin:round;">
<circle cx="10787.4" cy="9574.8" r="393.701" /> 
</g>
<g style="fill:#000000; fill-opacity:1.0; 
stroke:#000000; stroke-width:39.3701; stroke-opacity:1; 
stroke-linecap:round; stroke-linejoin:round;">
</g>
<g style="fill:#000000; fill-opacity:1.0; 
stroke:#000000; stroke-width:0; stroke-opacity:1; 
stroke-linecap:round; stroke-linejoin:round;">
<circle cx="6366.14" cy="6952.76" r="393.701" /> 
</g>
<g style="fill:#000000; fill-opacity:1.0; 
stroke:#000000; stroke-width:39.3701; stroke-opacity:1; 
stroke-linecap:round; stroke-linejoin:round;">
</g>
<g style="fill:#000000; fill-opacity:1.0; 
stroke:#000000; stroke-width:0; stroke-opacity:1; 
stroke-linecap:round; stroke-linejoin:round;">
<circle cx="10440.9" cy="6279.53" r="393.701" /> 
</g>
<g style="fill:#000000; fill-opacity:1.0; 
stroke:#000000; stroke-width:39.3701; stroke-opacity:1; 
stroke-linecap:round; stroke-linejoin:round;">
</g>
<g style="fill:#000000; fill-opacity:1.0; 
stroke:#000000; stroke-width:0; stroke-opacity:1; 
stroke-linecap:round; stroke-linejoin:round;">
<circle cx="9503.94" cy="5700.79" r="393.701" /> 
</g>
<g style="fill:#000000; fill-opacity:1.0; 
stroke:#000000; stroke-width:39.3701; stroke-opacity:1; 
stroke-linecap:round; stroke-linejoin:round;">
</g>
<g style="fill:#000000; fill-opacity:1.0; 
stroke:#000000; stroke-width:0; stroke-opacity:1; 
stroke-linecap:round; stroke-linejoin:round;">
<circle cx="6700.79" cy="3559.06" r="393.701" /> 
</g>
<g style="fill:#000000; fill-opacity:1.0; 
stroke:#000000; stroke-width:39.3701; stroke-opacity:1; 
stroke-linecap:round; stroke-linejoin:round;">
</g>
<g style="fill:#000000; fill-opacity:1.0; 
stroke:#000000; stroke-width:0; stroke-opacity:1; 
stroke-linecap:round; stroke-linejoin:round;">
<circle cx="11203.5" cy="5003.99" r="393.701" /> 
</g>
<g style="fill:#000000; fill-opacity:1.0; 
stroke:#000000; stroke-width:39.3701; stroke-opacity:1; 
stroke-linecap:round; stroke-linejoin:round;">
</g>
<g style="fill:#000000; fill-opacity:1.0; 
stroke:#000000; stroke-width:0; stroke-opacity:1; 
stroke-linecap:round; stroke-linejoin:round;">
<circle cx="10385.8" cy="8602.36" r="393.701" /> 
</g>
<g style="fill:#000000; fill-opacity:1.0; 
stroke:#000000; stroke-width:39.3701; stroke-opacity:1; 
stroke-linecap:round; stroke-linejoin:round;">
</g>
<g style="fill:#000000; fill-opacity:1.0; 
stroke:#000000; stroke-width:0; stroke-opacity:1; 
stroke-linecap:round; stroke-linejoin:round;">
<circle cx="19003.9" cy="4000" r="393.701" /> 
</g>
<g style="fill:#000000; fill-opacity:1.0; 
stroke:#000000; stroke-width:39.3701; stroke-opacity:1; 
stroke-linecap:round; stroke-linejoin:round;">
</g>
<g style="fill:#000000; fill-opacity:1.0; 
stroke:#000000; stroke-width:0; stroke-opacity:1; 
stroke-linecap:round; stroke-linejoin:round;">
<circle cx="16181.1" cy="6078.74" r="393.701" /> 
</g>
<g style="fill:#000000; fill-opacity:1.0; 
stroke:#000000; stroke-width:39.3701; stroke-opacity:1; 
stroke-linecap:round; stroke-linejoin:round;">
</g>
<g style="fill:#000000; fill-opacity:1.0; 
stroke:#000000; stroke-width:157.48; stroke-opacity:1; 
stroke-linecap:round; stroke-linejoin:round;">
</g>
<g style="fill:#000000; fill-opacity:0.0; 
stroke:#000000; stroke-width:157.48; stroke-opacity:1; 
stroke-linecap:round; stroke-linejoin:round;">
<path d="M16204 8095
L16204 8429
" />
<path d="M16204 8429
L16598 8822
" />
<path d="M15574 7465
L16204 8095
" />
<path d="M14976 7465
L15574 7465
" />
<path d="M20003 3088
L20157 2935
" />
<path d="M19897 2675
L20157 2935
" />
<path d="M16185 7232
L16578 7625
" />
<path d="M16168 7215
L16185 7232
" />
<path d="M14976 7215
L16168 7215
" />
<path d="M2173 6755
L2153 6736
" />
</g>
<g style="fill:#000000; fill-opacity:0.0; 
stroke:#000000; stroke-width:393.701; stroke-opacity:1; 
stroke-linecap:round; stroke-linejoin:round;">
<path d="M6007 5866
L6446 5866
" />
<path d="M2125 6736
L5137 6736
" />
<path d="M5137 6736
L6007 5866
" />
<path d="M5917 5098
L5625 5098
" />
<path d="M5917 5098
L6377 5098
" />
<path d="M5625 5098
L5011 5712
" />
<path d="M2125 5712
L5011 5712
" />
</g>
<g style="fill:#000000; fill-opacity:0.0; 
stroke:#000000; stroke-width:157.48; stroke-opacity:1; 
stroke-linecap:round; stroke-linejoin:round;">
<path d="M6241 4407
L5847 4013
" />
<path d="M6377 5098
L6377 4543
" />
<path d="M6377 4543
L6241 4407
" />
<path d="M7437 1954
L6492 1009
" />
<path d="M6492 1009
L6492 795
" />
<path d="M20566 5759
L20643 5836
" />
<path d="M18775 5759
L20566 5759
" />
<path d="M19246 5836
L19169 5759
" />
<path d="M21037 5836
L19246 5836
" />
<path d="M21037 6250
L21037 7966
" />
<path d="M21037 5836
L21037 6250
" />
<path d="M19169 5759
L19169 6173
" />
<path d="M19169 6173
L19169 6803
" />
<path d="M7818 12027
L9822 12027
" />
<path d="M7405 12027
L7818 12027
" />
<path d="M13263 6215
L13264 6216
" />
<path d="M12929 6215
L13263 6215
" />
<path d="M13264 6216
L13838 6216
" />
<path d="M14089 5965
L14976 5965
" />
<path d="M13838 6216
L14089 5965
" />
<path d="M13589 7965
L12929 7965
" />
<path d="M13838 7716
L13589 7965
" />
<path d="M12929 7965
L12929 8465
" />
<path d="M9822 12027
L11090 12027
" />
<path d="M12929 8215
L12394 8215
" />
<path d="M12394 8215
L12224 8385
" />
<path d="M12224 8385
L11830 8779
" />
<path d="M13845 6465
L13838 6472
" />
<path d="M14976 6465
L13845 6465
" />
<path d="M13838 6216
L13838 6472
" />
<path d="M13859 6965
L13838 6944
" />
<path d="M14976 6965
L13859 6965
" />
<path d="M13838 6472
L13838 6944
" />
<path d="M13838 6944
L13838 7716
" />
<path d="M14087 7965
L13838 7716
" />
<path d="M14976 7965
L14087 7965
" />
<path d="M19169 6803
L19169 7952
" />
<path d="M7405 12027
L7405 11830
" />
<path d="M5531 9611
L5531 9055
" />
<path d="M7405 11830
L5531 9956
" />
<path d="M5531 9956
L5531 9611
" />
<path d="M20629 7952
L20643 7966
" />
<path d="M20033 7966
L21037 7966
" />
<path d="M19183 7966
L19169 7952
" />
<path d="M21037 7966
L19183 7966
" />
<path d="M5316 3779
L5316 2708
" />
<path d="M5316 2984
L5316 3779
" />
<path d="M19006 6965
L19169 6803
" />
<path d="M14976 6965
L19006 6965
" />
<path d="M5158 3938
L5158 4011
" />
<path d="M5158 4623
L5158 4317
" />
</g>
<g style="fill:#000000; fill-opacity:0.0; 
stroke:#000000; stroke-width:393.701; stroke-opacity:1; 
stroke-linecap:round; stroke-linejoin:round;">
<path d="M2027 4724
L4751 4724
" />
</g>
<g style="fill:#000000; fill-opacity:0.0; 
stroke:#000000; stroke-width:157.48; stroke-opacity:1; 
stroke-linecap:round; stroke-linejoin:round;">
<path d="M5316 3779
L5158 3938
" />
<path d="M5092 4685
L5097 4685
" />
<path d="M5097 4685
L5158 4623
" />
</g>
<g style="fill:#000000; fill-opacity:0.0; 
stroke:#000000; stroke-width:393.701; stroke-opacity:1; 
stroke-linecap:round; stroke-linejoin:round;">
<path d="M4751 4724
L4941 4534
" />
</g>
<g style="fill:#000000; fill-opacity:0.0; 
stroke:#000000; stroke-width:157.48; stroke-opacity:1; 
stroke-linecap:round; stroke-linejoin:round;">
<path d="M5158 4011
L5158 4317
" />
</g>
<g style="fill:#000000; fill-opacity:0.0; 
stroke:#000000; stroke-width:393.701; stroke-opacity:1; 
stroke-linecap:round; stroke-linejoin:round;">
<path d="M4941 4534
L5158 4317
" />
</g>
<g style="fill:#000000; fill-opacity:0.0; 
stroke:#000000; stroke-width:157.48; stroke-opacity:1; 
stroke-linecap:round; stroke-linejoin:round;">
<path d="M23720 5635
L23720 5596
" />
<path d="M22505 6850
L23720 5635
" />
<path d="M23720 5596
L23720 5039
" />
<path d="M21037 6850
L22505 6850
" />
</g>
<g style="fill:#000000; fill-opacity:0.0; 
stroke:#000000; stroke-width:393.701; stroke-opacity:1; 
stroke-linecap:round; stroke-linejoin:round;">
<path d="M2055 7724
L4193 7724
" />
</g>
<g style="fill:#000000; fill-opacity:0.0; 
stroke:#000000; stroke-width:157.48; stroke-opacity:1; 
stroke-linecap:round; stroke-linejoin:round;">
<path d="M2027 7724
L4236 7724
" />
<path d="M6452 8629
L6165 8342
" />
<path d="M6165 8342
L5771 7948
" />
<path d="M7216 8629
L6452 8629
" />
</g>
<g style="fill:#000000; fill-opacity:0.0; 
stroke:#000000; stroke-width:393.701; stroke-opacity:1; 
stroke-linecap:round; stroke-linejoin:round;">
<path d="M5614 7948
L5771 7948
" />
<path d="M4236 7724
L5389 7724
" />
<path d="M5389 7724
L5614 7948
" />
</g>
<g style="fill:#000000; fill-opacity:0.0; 
stroke:#000000; stroke-width:157.48; stroke-opacity:1; 
stroke-linecap:round; stroke-linejoin:round;">
<path d="M7216 8629
L7681 8165
" />
<path d="M9476 7027
L9307 7196
" />
<path d="M10733 7027
L9476 7027
" />
<path d="M11795 5965
L10733 7027
" />
<path d="M12929 5965
L11795 5965
" />
<path d="M6370 2643
L6596 2643
" />
<path d="M7681 3728
L7681 4173
" />
<path d="M6596 2643
L7681 3728
" />
<path d="M7681 8165
L7681 4173
" />
<path d="M12089 7715
L10787 9018
" />
<path d="M8523 9574
L10230 9574
" />
<path d="M10230 9574
L10787 9574
" />
<path d="M7405 10692
L8523 9574
" />
<path d="M12929 7715
L12089 7715
" />
<path d="M10787 9018
L10787 9574
" />
<path d="M5287 1954
L6370 1954
" />
<path d="M12000 5706
L12008 5715
" />
<path d="M12008 5715
L12929 5715
" />
<path d="M6759 6559
L6366 6952
" />
<path d="M7135 6183
L6759 6559
" />
<path d="M7135 5866
L7135 6183
" />
<path d="M12929 5715
L11641 5715
" />
<path d="M10997 6279
L10440 6279
" />
<path d="M11077 6279
L10997 6279
" />
<path d="M11641 5715
L11077 6279
" />
<path d="M11322 5700
L10060 5700
" />
<path d="M10060 5700
L9503 5700
" />
<path d="M11557 5465
L11322 5700
" />
<path d="M12929 5465
L11557 5465
" />
<path d="M7066 5098
L7066 3925
" />
<path d="M7066 3925
L6700 3559
" />
<path d="M12929 7215
L12929 7465
" />
<path d="M21515 5094
L22257 5836
" />
<path d="M22257 5836
L22454 5836
" />
<path d="M15991 5094
L21515 5094
" />
<path d="M14976 5715
L15370 5715
" />
<path d="M15370 5715
L15991 5094
" />
<path d="M12309 5003
L12632 4681
" />
<path d="M14414 5547
L14582 5715
" />
<path d="M12632 4681
L14106 4681
" />
<path d="M14582 5715
L14976 5715
" />
<path d="M14106 4681
L14414 4989
" />
<path d="M14414 4989
L14414 5547
" />
<path d="M11203 5003
L12309 5003
" />
<path d="M10779 8208
L10385 8602
" />
<path d="M11955 7215
L10962 8208
" />
<path d="M10962 8208
L10779 8208
" />
<path d="M12929 7215
L11955 7215
" />
<path d="M9829 8602
L10385 8602
" />
<path d="M8737 8602
L9829 8602
" />
<path d="M7917 7782
L8737 8602
" />
<path d="M7917 2897
L7917 5377
" />
<path d="M7437 2643
L7663 2643
" />
<path d="M7663 2643
L7917 2897
" />
<path d="M7917 5377
L7917 7782
" />
<path d="M10876 10610
L10236 10610
" />
<path d="M10236 10610
L9822 10610
" />
<path d="M12929 8715
L12771 8715
" />
<path d="M12771 8715
L10876 10610
" />
<path d="M14102 10350
L13866 10114
" />
<path d="M14515 10350
L14102 10350
" />
<path d="M13866 10114
L13866 9161
" />
<path d="M14312 8715
L14800 8715
" />
<path d="M13866 9161
L14312 8715
" />
<path d="M12350 9730
L12773 9307
" />
<path d="M12350 10340
L12350 9730
" />
<path d="M12773 9307
L13212 9307
" />
<path d="M14902 8467
L14976 8467
" />
<path d="M14054 8465
L14901 8465
" />
<path d="M14901 8465
L14902 8467
" />
<path d="M13212 9307
L14054 8465
" />
<path d="M22454 9415
L22454 7966
" />
<path d="M22066 9803
L22454 9415
" />
<path d="M20885 9803
L22066 9803
" />
<path d="M14976 8215
L15311 8215
" />
<path d="M15311 8215
L15492 8396
" />
<path d="M15492 8396
L15492 10029
" />
<path d="M15492 10029
L15807 10344
" />
<path d="M15807 10344
L20344 10344
" />
<path d="M20344 10344
L20885 9803
" />
<path d="M17555 7980
L17751 7980
" />
<path d="M17751 8425
L17751 7952
" />
<path d="M17224 9614
L17224 8952
" />
<path d="M14976 7715
L15370 7715
" />
<path d="M17224 8952
L17751 8425
" />
<path d="M15728 9602
L16125 10000
" />
<path d="M15370 7715
L15728 8073
" />
<path d="M15728 8073
L15728 9602
" />
<path d="M16125 10000
L16838 10000
" />
<path d="M16838 10000
L17224 9614
" />
<path d="M16599 6715
L15370 6715
" />
<path d="M17751 5759
L17555 5759
" />
<path d="M15370 6715
L14976 6715
" />
<path d="M17555 5759
L16599 6715
" />
<path d="M19448 4444
L19003 4000
" />
<path d="M21476 4444
L23133 4444
" />
<path d="M21476 4444
L19448 4444
" />
<path d="M23854 3724
L23854 1842
" />
<path d="M23133 4444
L23854 3724
" />
<path d="M14976 6215
L16044 6215
" />
<path d="M16044 6215
L16181 6078
" />
<path d="M14507 12826
L14515 12818
" />
<path d="M14515 12818
L14515 11767
" />
<path d="M14751 13070
L14507 12826
" />
<path d="M19596 13070
L14751 13070
" />
<path d="M19822 12253
L19822 12844
" />
<path d="M19822 12844
L19596 13070
" />
<path d="M20637 13385
L12814 13385
" />
<path d="M12350 12921
L12350 11757
" />
<path d="M21003 12253
L21003 13019
" />
<path d="M12814 13385
L12350 12921
" />
<path d="M21003 13019
L20637 13385
" />
<path d="M11703 6465
L12929 6465
" />
<path d="M9834 3645
L9834 4343
" />
<path d="M8625 7457
L8963 7795
" />
<path d="M9927 7423
L10745 7423
" />
<path d="M9834 4343
L8625 5552
" />
<path d="M8963 7795
L9555 7795
" />
<path d="M10745 7423
L11703 6465
" />
<path d="M8625 5552
L8625 7457
" />
<path d="M9555 7795
L9927 7423
" />
<path d="M12942 2887
L12942 3645
" />
<path d="M12755 2700
L12942 2887
" />
<path d="M9318 2700
L12755 2700
" />
<path d="M8954 4889
L8954 3065
" />
<path d="M8954 3065
L9318 2700
" />
<path d="M8389 7586
L8389 5454
" />
<path d="M11787 6715
L10843 7659
" />
<path d="M9645 8039
L8842 8039
" />
<path d="M8389 5454
L8954 4889
" />
<path d="M12929 6715
L11787 6715
" />
<path d="M10843 7659
L10025 7659
" />
<path d="M10025 7659
L9645 8039
" />
<path d="M8842 8039
L8389 7586
" />
<path d="M11871 6965
L12535 6965
" />
<path d="M12535 6965
L12929 6965
" />
<path d="M10123 7896
L10941 7896
" />
<path d="M9743 8275
L10123 7896
" />
<path d="M10941 7896
L11871 6965
" />
<path d="M8744 8275
L9743 8275
" />
<path d="M8153 7684
L8744 8275
" />
<path d="M14976 2161
L9188 2161
" />
<path d="M16051 1086
L14976 2161
" />
<path d="M9188 2161
L8718 2632
" />
<path d="M8718 4791
L8153 5356
" />
<path d="M8153 5356
L8153 7684
" />
<path d="M8718 2632
L8718 4791
" />
<path d="M17429 4039
L17822 3645
" />
<path d="M16933 4535
L17429 4039
" />
<path d="M15670 4535
L16933 4535
" />
<path d="M14976 5229
L15670 4535
" />
<path d="M14976 5465
L14976 5229
" />
</g>
<g style="fill:#000000; fill-opacity:1.0; 
stroke:#000000; stroke-width:100; stroke-opacity:1; 
stroke-linecap:round; stroke-linejoin:round;">
<polyline style="fill-rule:evenodd;"
points="23307,366
23269,458
23269,730
23332,792
23804,792
23804,784
23904,784
23904,792
24376,792
24438,730
24438,458
24431,440
24494,494
24572,614
24616,761
24617,772
24612,798
24612,12961
24616,12981
24602,13074
24543,13205
24450,13313
24329,13391
24183,13435
24172,13436
24146,13431
21057,13431
21213,13275
21240,13256
21313,13147
21332,13052
21339,13019
21332,12987
21332,12982
21337,12981
21420,12926
21475,12843
21495,12746
21495,11761
21475,11664
21420,11581
21337,11526
21240,11506
20767,11506
20670,11526
20587,11581
20532,11664
20512,11761
20512,12746
20532,12843
20587,12926
20614,12944
20501,13057
20076,13057
20122,12988
20156,12981
20239,12926
20294,12843
20313,12746
20313,11761
20294,11664
20239,11581
20156,11526
20059,11506
19586,11506
19489,11526
19406,11581
19351,11664
19331,11761
19331,12742
18739,12742
18739,11761
18719,11664
18664,11581
18581,11526
18484,11506
18011,11506
17914,11526
17831,11581
17776,11664
17756,11761
17756,12742
14888,12742
14844,12698
14844,12531
14928,12515
15010,12459
15066,12377
15085,12279
15085,11255
15066,11158
15010,11075
14986,11059
15010,11042
15066,10959
15085,10862
15085,9838
15066,9741
15010,9658
14928,9603
14830,9583
14200,9583
14194,9584
14194,9297
14448,9044
14715,9044
14740,9049
15163,9049
15163,9997
15156,10029
15182,10157
15221,10216
15255,10266
15282,10284
15551,10554
15570,10581
15672,10650
15678,10654
15807,10679
15839,10673
18412,10673
18332,10865
18332,11082
18415,11283
18569,11436
18769,11519
18986,11519
19186,11436
19340,11283
19423,11082
19423,10865
21088,10865
21088,11082
21171,11283
21324,11436
21525,11519
21742,11519
21942,11436
22096,11283
22179,11082
22179,10865
22096,10665
21942,10512
21742,10429
21525,10429
21324,10512
21171,10665
21088,10865
19423,10865
19343,10673
20312,10673
20344,10679
20376,10673
20376,10673
20472,10654
20581,10581
20599,10554
21021,10131
22034,10131
22066,10138
22099,10131
22099,10131
22195,10112
22303,10040
22322,10012
22664,9670
22691,9652
22717,9614
22764,9543
22774,9493
22783,9447
22783,9447
22789,9415
22783,9382
22783,8536
22966,8536
23064,8516
23146,8461
23202,8379
23221,8281
23221,7651
23202,7554
23146,7471
23064,7416
22966,7396
21942,7396
21845,7416
21762,7471
21746,7495
21690,7439
21598,7401
21149,7401
21087,7464
21087,7916
21095,7916
21095,8016
21087,8016
21087,8468
21149,8531
21598,8531
21690,8493
21746,8437
21762,8461
21845,8516
21942,8536
22125,8536
22125,9279
21930,9474
20918,9474
20885,9467
20853,9474
20853,9474
20757,9493
20648,9566
20630,9593
20208,10015
18306,10015
18306,9202
18286,9105
18231,9022
18148,8967
18051,8947
17694,8947
17961,8680
17988,8662
18061,8553
18067,8522
18263,8522
18361,8503
18444,8447
18460,8423
18515,8479
18607,8517
19056,8517
19119,8455
19119,8002
19219,8002
19219,8455
19281,8517
19730,8517
19822,8479
19893,8409
19931,8317
19931,8079
20275,8079
20275,8331
20313,8423
20383,8493
20475,8531
20924,8531
20987,8468
20987,8016
20338,8016
20275,8079
19931,8079
19931,8065
19868,8002
19219,8002
19119,8002
19111,8002
19111,7902
19119,7902
19119,7450
19219,7450
19219,7902
19868,7902
19931,7840
19931,7601
20275,7601
20275,7854
20338,7916
20987,7916
20987,7464
20924,7401
20475,7401
20383,7439
20313,7509
20275,7601
19931,7601
19931,7588
19893,7496
19822,7425
19730,7387
19281,7387
19219,7450
19119,7450
19056,7387
18607,7387
18515,7425
18460,7481
18444,7457
18361,7402
18263,7382
17240,7382
17179,7394
17124,7261
16943,7080
16759,7004
16836,6952
16854,6925
16907,6872
23116,6872
23116,7143
23220,7394
23412,7586
23663,7690
23935,7690
24186,7586
24378,7394
24482,7143
24482,6872
24378,6620
24186,6428
23935,6324
23663,6324
23412,6428
23220,6620
23116,6872
16907,6872
17450,6329
18263,6329
18361,6310
18444,6255
18460,6230
18515,6286
18607,6324
19056,6324
19119,6262
19119,5809
19219,5809
19219,6262
19281,6324
19730,6324
19822,6286
19893,6216
19931,6124
19931,5949
20275,5949
20275,6201
20313,6293
20383,6363
20475,6401
20924,6401
20987,6339
20987,5886
20338,5886
20275,5949
19931,5949
19931,5872
19868,5809
19219,5809
19119,5809
19111,5809
19111,5709
19119,5709
19119,5701
19219,5701
19219,5709
19868,5709
19931,5647
19931,5423
20295,5423
20275,5471
20275,5724
20338,5786
20987,5786
20987,5778
21087,5778
21087,5786
21095,5786
21095,5886
21087,5886
21087,6339
21149,6401
21598,6401
21690,6363
21746,6307
21762,6331
21845,6387
21942,6406
22966,6406
23064,6387
23146,6331
23202,6249
23221,6151
23221,5521
23202,5424
23146,5341
23064,5286
22966,5266
22152,5266
21771,4884
21752,4857
21644,4784
21587,4773
23101,4773
23133,4780
23166,4773
23166,4773
23262,4754
23370,4681
23389,4654
24063,3979
24091,3961
24163,3852
24183,3756
24183,3756
24189,3724
24183,3692
24183,2326
24275,2264
24405,2070
24450,1842
24405,1614
24275,1421
24267,1415
24330,1389
24400,1318
24438,1226
24438,955
24376,892
23904,892
23904,900
23804,900
23804,892
23332,892
23269,955
23269,1226
23307,1318
23378,1389
23441,1415
23432,1421
23303,1614
23258,1842
23303,2070
23432,2264
23525,2326
23525,3588
22997,4116
19647,4116
19647,3871
19549,3635
19368,3454
19131,3356
18875,3356
18639,3454
18466,3627
18466,3517
18368,3281
18187,3099
17950,3001
17694,3001
17458,3099
17277,3281
17179,3517
17179,3773
17193,3809
16796,4206
16378,4206
16415,4191
16596,4010
16694,3773
16694,3517
16596,3281
16415,3099
16179,3001
15923,3001
15686,3099
15505,3281
15407,3517
15407,3773
15505,4010
15686,4191
15723,4206
15702,4206
15670,4200
15637,4206
15637,4206
15556,4222
15542,4225
15462,4278
15433,4298
15414,4325
14766,4973
14748,4985
14743,4956
14743,4956
14724,4860
14651,4752
14623,4733
14361,4471
14343,4444
14234,4371
14138,4352
14138,4352
14106,4345
14073,4352
12665,4352
12632,4345
12600,4352
12600,4352
12504,4371
12395,4444
12377,4471
12173,4675
11764,4675
11749,4639
11568,4458
11331,4360
11075,4360
10838,4458
10657,4639
10559,4875
10559,5132
10657,5368
10661,5372
10064,5372
10049,5336
9868,5155
9631,5057
9586,5057
10044,4598
10071,4580
10090,4552
10144,4471
10156,4410
10163,4375
10163,4375
10169,4343
10163,4311
10163,4206
10199,4191
10380,4010
10478,3773
10478,3517
10380,3281
10199,3099
10029,3029
11411,3029
11241,3099
11060,3281
10962,3517
10962,3773
11060,4010
11241,4191
11478,4289
11734,4289
11970,4191
12152,4010
12250,3773
12250,3517
12152,3281
11970,3099
11800,3029
12614,3029
12614,3085
12578,3099
12397,3281
12299,3517
12299,3773
12397,4010
12578,4191
12814,4289
13070,4289
13307,4191
13488,4010
13586,3773
13586,3517
14070,3517
14070,3773
14168,4010
14349,4191
14586,4289
14842,4289
15079,4191
15260,4010
15358,3773
15358,3517
15260,3281
15079,3099
14842,3001
14586,3001
14349,3099
14168,3281
14070,3517
13586,3517
13488,3281
13307,3099
13271,3085
13271,2920
13278,2887
13271,2855
13271,2855
13262,2807
19513,2807
19513,3063
19611,3299
19792,3480
20029,3578
20285,3578
20521,3480
20703,3299
20800,3063
20800,2807
21513,2807
21513,3063
21611,3299
21792,3480
22029,3578
22285,3578
22521,3480
22703,3299
22800,3063
22800,2807
22703,2570
22521,2389
22285,2291
22029,2291
21792,2389
21611,2570
21513,2807
20800,2807
20703,2570
20521,2389
20285,2291
20029,2291
19907,2342
19897,2340
19769,2365
19660,2438
19587,2546
19562,2675
19564,2685
19513,2807
13262,2807
13252,2759
13179,2650
13152,2632
13011,2491
13010,2490
14944,2490
14976,2496
15008,2490
15008,2490
15104,2471
15213,2398
15231,2370
15887,1715
15923,1730
16179,1730
16415,1632
16596,1451
16694,1214
16694,958
17179,958
17179,1214
17277,1451
17458,1632
17694,1730
17950,1730
18187,1632
18368,1451
18466,1214
18466,958
18368,721
18187,540
17950,442
17694,442
17458,540
17277,721
17179,958
16694,958
16596,721
16415,540
16179,442
15923,442
15686,540
15505,721
15407,958
15407,1214
15422,1250
15287,1385
15358,1214
15358,958
15260,721
15079,540
14842,442
14586,442
14349,540
14168,721
14070,958
14070,1214
14168,1451
14349,1632
14586,1730
14842,1730
15013,1659
14840,1832
9221,1832
9188,1826
9156,1832
9156,1832
9060,1851
8951,1924
8933,1951
8508,2376
8481,2395
8408,2503
8389,2599
8389,2599
8382,2632
8389,2664
8389,4655
8246,4799
8246,2929
8252,2897
8246,2865
8246,2865
8226,2769
8154,2660
8126,2642
7918,2434
7900,2406
7825,2356
7786,2299
7852,2201
7878,2067
7878,1841
7852,1708
7776,1595
7663,1519
7530,1493
7440,1493
7058,1110
7121,958
9190,958
9190,1214
9288,1451
9470,1632
9706,1730
9962,1730
10199,1632
10380,1451
10478,1214
10478,958
10962,958
10962,1214
11060,1451
11241,1632
11478,1730
11734,1730
11970,1632
12152,1451
12250,1214
12250,958
12299,958
12299,1214
12397,1451
12578,1632
12814,1730
13070,1730
13307,1632
13488,1451
13586,1214
13586,958
13488,721
13307,540
13070,442
12814,442
12578,540
12397,721
12299,958
12250,958
12152,721
11970,540
11734,442
11478,442
11241,540
11060,721
10962,958
10478,958
10380,721
10199,540
9962,442
9706,442
9470,540
9288,721
9190,958
7121,958
7135,923
7135,667
7037,430
6935,328
23345,328
23307,366
" /> 
<polyline style="fill-rule:evenodd;"
points="5225,8313
5407,8494
5643,8592
5899,8592
5935,8577
5955,8597
5955,8597
6197,8839
6215,8866
6324,8939
6420,8958
6452,8965
6485,8958
6655,8958
6670,8994
6851,9175
7088,9273
7344,9273
7581,9175
7762,8994
7860,8757
7860,8501
7845,8465
7890,8420
7918,8402
7979,8309
8481,8811
8500,8839
8608,8912
8704,8931
8704,8931
8737,8937
8769,8931
9825,8931
9840,8966
10021,9148
10231,9235
10226,9246
8555,9246
8523,9239
8491,9246
8395,9265
8286,9337
8268,9365
7778,9855
7720,9843
7090,9843
6993,9862
6910,9918
6855,10000
6835,10098
6835,11122
6855,11219
6910,11302
6934,11318
6878,11374
6840,11466
6840,11915
6903,11977
7355,11977
7355,11969
7455,11969
7455,11977
7907,11977
7970,11915
7970,11466
7932,11374
7876,11318
7900,11302
7955,11219
7975,11122
7975,10587
8659,9903
9349,9903
9327,9918
9272,10000
9252,10098
9252,11122
9272,11219
9327,11302
9351,11318
9295,11374
9257,11466
9257,11915
9320,11977
9772,11977
9772,11969
9872,11969
9872,11977
10325,11977
10387,11915
10387,11466
10349,11374
10293,11318
10318,11302
10373,11219
10392,11122
10392,10938
10844,10938
10876,10945
10909,10938
10909,10938
11005,10919
11113,10847
11132,10819
11780,10171
11780,10852
11799,10949
11855,11032
11880,11049
11855,11065
11799,11148
11780,11246
11780,12269
11799,12367
11855,12449
11937,12505
12021,12521
12021,12888
12015,12921
12021,12953
12021,12953
12040,13049
12113,13158
12140,13176
12395,13431
6664,13431
6642,13435
6394,13413
6104,13333
5833,13204
5590,13029
5381,12814
5213,12565
5093,12290
5057,12140
6840,12140
6840,12589
6878,12680
6948,12751
7040,12789
7293,12789
7355,12726
7355,12077
7455,12077
7455,12726
7518,12789
7770,12789
7862,12751
7932,12680
7970,12589
7970,12140
9257,12140
9257,12589
9295,12680
9366,12751
9458,12789
9710,12789
9772,12726
9772,12077
9872,12077
9872,12726
9935,12789
10187,12789
10279,12751
10349,12680
10387,12589
10387,12140
10325,12077
9872,12077
9772,12077
9320,12077
9257,12140
7970,12140
7907,12077
7455,12077
7355,12077
6903,12077
6840,12140
5057,12140
5022,11996
5003,11741
5003,8629
5009,8602
4996,8539
4987,8493
4977,8478
4925,8400
4872,8365
4872,8171
5167,8171
5225,8313
" /> 
<polyline style="fill-rule:evenodd;"
points="12456,8053
12442,8067
12442,8113
12456,8127
12480,8185
12510,8215
12480,8245
12456,8303
12442,8317
12442,8363
12456,8377
12480,8435
12508,8463
12457,8539
12454,8556
12442,8567
12442,8579
11431,9591
11431,9446
11333,9210
11196,9073
12226,8044
12460,8044
12456,8053
" /> 
<polyline style="fill-rule:evenodd;"
points="14085,5125
14085,5514
14079,5547
14104,5675
14129,5712
14177,5784
14204,5802
14327,5925
14345,5952
14454,6025
14507,6035
14504,6039
14501,6056
14490,6067
14490,6094
14492,6099
14485,6136
14485,6294
14492,6331
14490,6337
14490,6363
14501,6374
14504,6391
14553,6465
14504,6539
14501,6556
14490,6567
14490,6594
14492,6599
14485,6636
14485,6794
14492,6831
14490,6837
14490,6863
14501,6874
14504,6891
14553,6965
14504,7039
14501,7056
14490,7067
14490,7094
14492,7099
14485,7136
14485,7294
14494,7340
14485,7386
14485,7544
14494,7590
14485,7636
14485,7794
14492,7831
14490,7837
14490,7863
14501,7874
14504,7891
14553,7965
14504,8039
14501,8056
14490,8067
14490,8094
14492,8099
14485,8136
14086,8136
14054,8130
14021,8136
14021,8136
13948,8151
13925,8155
13846,8208
13817,8228
13798,8255
13419,8634
13412,8599
13415,8594
13415,8567
13404,8556
13400,8539
13350,8463
13377,8435
13401,8377
13415,8363
13415,8317
13401,8303
13377,8245
13347,8215
13377,8185
13401,8127
13415,8113
13415,8067
13401,8053
13377,7995
13350,7967
13400,7891
13404,7874
13415,7863
13415,7837
13412,7831
13420,7794
13420,7636
13411,7590
13420,7544
13420,7386
13411,7340
13420,7294
13420,7136
13411,7090
13420,7044
13420,6886
13411,6840
13420,6794
13420,6636
13411,6590
13420,6544
13420,6386
13412,6349
13415,6344
13415,6317
13404,6306
13400,6289
13351,6215
13400,6141
13404,6124
13415,6113
13415,6087
13412,6081
13420,6044
13420,5886
13411,5840
13420,5794
13420,5636
13411,5590
13420,5544
13420,5386
13400,5289
13345,5206
13262,5151
13165,5131
12692,5131
12668,5136
12641,5136
12768,5009
13970,5009
14085,5125
" /> 
<polyline style="fill-rule:evenodd;"
points="12979,8273
12879,8273
12879,8157
12979,8157
12979,8273
" /> 
<polyline style="fill-rule:evenodd;"
points="6020,2299
5954,2397
5928,2530
5928,2756
5954,2890
6030,3003
6143,3078
6249,3099
6155,3194
6066,3407
5976,3369
5719,3369
5483,3467
5302,3648
5204,3885
5204,4141
5302,4377
5483,4559
5706,4651
5669,4651
5625,4642
5521,4663
5451,4677
5303,4776
5278,4813
4872,5219
4872,4114
4925,4079
4987,3987
5009,3877
5003,3850
5003,3081
5050,3100
5174,3100
5237,3037
5237,2693
5337,2693
5337,3037
5399,3100
5524,3100
5616,3062
5686,2992
5724,2900
5724,2756
5661,2693
5337,2693
5237,2693
5229,2693
5229,2593
5237,2593
5237,2585
5337,2585
5337,2593
5661,2593
5724,2531
5724,2387
5686,2295
5674,2283
6009,2283
6020,2299
" /> 
</g>
<g style="fill:#FFFFFF; fill-opacity:1.0; 
stroke:#FFFFFF; stroke-width:100; stroke-opacity:1; 
stroke-linecap:round; stroke-linejoin:round;">
</g>
<g style="fill:#FFFFFF; fill-opacity:1.0; 
stroke:#FFFFFF; stroke-width:0; stroke-opacity:1; 
stroke-linecap:round; stroke-linejoin:round;">
<circle cx="16598.4" cy="8822.84" r="196.85" /> 
</g>
<g style="fill:#FFFFFF; fill-opacity:1.0; 
stroke:#FFFFFF; stroke-width:39.3701; stroke-opacity:1; 
stroke-linecap:round; stroke-linejoin:round;">
</g>
<g style="fill:#FFFFFF; fill-opacity:1.0; 
stroke:#FFFFFF; stroke-width:0; stroke-opacity:1; 
stroke-linecap:round; stroke-linejoin:round;">
<circle cx="16578.7" cy="7625.98" r="196.85" /> 
</g>
<g style="fill:#FFFFFF; fill-opacity:1.0; 
stroke:#FFFFFF; stroke-width:39.3701; stroke-opacity:1; 
stroke-linecap:round; stroke-linejoin:round;">
</g>
<g style="fill:#FFFFFF; fill-opacity:1.0; 
stroke:#FFFFFF; stroke-width:0; stroke-opacity:1; 
stroke-linecap:round; stroke-linejoin:round;">
<circle cx="5847.98" cy="4013.36" r="196.85" /> 
</g>
<g style="fill:#FFFFFF; fill-opacity:1.0; 
stroke:#FFFFFF; stroke-width:39.3701; stroke-opacity:1; 
stroke-linecap:round; stroke-linejoin:round;">
</g>
<g style="fill:#FFFFFF; fill-opacity:1.0; 
stroke:#FFFFFF; stroke-width:0; stroke-opacity:1; 
stroke-linecap:round; stroke-linejoin:round;">
<circle cx="6492.13" cy="795.276" r="196.85" /> 
</g>
<g style="fill:#FFFFFF; fill-opacity:1.0; 
stroke:#FFFFFF; stroke-width:39.3701; stroke-opacity:1; 
stroke-linecap:round; stroke-linejoin:round;">
</g>
<g style="fill:#FFFFFF; fill-opacity:1.0; 
stroke:#FFFFFF; stroke-width:0; stroke-opacity:1; 
stroke-linecap:round; stroke-linejoin:round;">
<circle cx="11830.7" cy="8779.53" r="196.85" /> 
</g>
<g style="fill:#FFFFFF; fill-opacity:1.0; 
stroke:#FFFFFF; stroke-width:39.3701; stroke-opacity:1; 
stroke-linecap:round; stroke-linejoin:round;">
</g>
<g style="fill:#FFFFFF; fill-opacity:1.0; 
stroke:#FFFFFF; stroke-width:0; stroke-opacity:1; 
stroke-linecap:round; stroke-linejoin:round;">
<circle cx="11090.6" cy="12027.6" r="196.85" /> 
</g>
<g style="fill:#FFFFFF; fill-opacity:1.0; 
stroke:#FFFFFF; stroke-width:39.3701; stroke-opacity:1; 
stroke-linecap:round; stroke-linejoin:round;">
</g>
<g style="fill:#FFFFFF; fill-opacity:1.0; 
stroke:#FFFFFF; stroke-width:0; stroke-opacity:1; 
stroke-linecap:round; stroke-linejoin:round;">
<circle cx="5531.5" cy="9055.12" r="196.85" /> 
</g>
<g style="fill:#FFFFFF; fill-opacity:1.0; 
stroke:#FFFFFF; stroke-width:39.3701; stroke-opacity:1; 
stroke-linecap:round; stroke-linejoin:round;">
</g>
<g style="fill:#FFFFFF; fill-opacity:1.0; 
stroke:#FFFFFF; stroke-width:0; stroke-opacity:1; 
stroke-linecap:round; stroke-linejoin:round;">
<circle cx="5158.28" cy="4317.66" r="196.85" /> 
</g>
<g style="fill:#FFFFFF; fill-opacity:1.0; 
stroke:#FFFFFF; stroke-width:39.3701; stroke-opacity:1; 
stroke-linecap:round; stroke-linejoin:round;">
</g>
<g style="fill:#FFFFFF; fill-opacity:1.0; 
stroke:#FFFFFF; stroke-width:0; stroke-opacity:1; 
stroke-linecap:round; stroke-linejoin:round;">
<circle cx="23720.5" cy="5039.37" r="196.85" /> 
</g>
<g style="fill:#FFFFFF; fill-opacity:1.0; 
stroke:#FFFFFF; stroke-width:39.3701; stroke-opacity:1; 
stroke-linecap:round; stroke-linejoin:round;">
</g>
<g style="fill:#FFFFFF; fill-opacity:1.0; 
stroke:#FFFFFF; stroke-width:0; stroke-opacity:1; 
stroke-linecap:round; stroke-linejoin:round;">
<circle cx="7216.54" cy="8629.92" r="196.85" /> 
</g>
<g style="fill:#FFFFFF; fill-opacity:1.0; 
stroke:#FFFFFF; stroke-width:39.3701; stroke-opacity:1; 
stroke-linecap:round; stroke-linejoin:round;">
</g>
<g style="fill:#FFFFFF; fill-opacity:1.0; 
stroke:#FFFFFF; stroke-width:0; stroke-opacity:1; 
stroke-linecap:round; stroke-linejoin:round;">
<circle cx="9307.09" cy="7196.85" r="196.85" /> 
</g>
<g style="fill:#FFFFFF; fill-opacity:1.0; 
stroke:#FFFFFF; stroke-width:39.3701; stroke-opacity:1; 
stroke-linecap:round; stroke-linejoin:round;">
</g>
<g style="fill:#FFFFFF; fill-opacity:1.0; 
stroke:#FFFFFF; stroke-width:0; stroke-opacity:1; 
stroke-linecap:round; stroke-linejoin:round;">
<circle cx="5771.65" cy="7948.82" r="196.85" /> 
</g>
<g style="fill:#FFFFFF; fill-opacity:1.0; 
stroke:#FFFFFF; stroke-width:39.3701; stroke-opacity:1; 
stroke-linecap:round; stroke-linejoin:round;">
</g>
<g style="fill:#FFFFFF; fill-opacity:1.0; 
stroke:#FFFFFF; stroke-width:0; stroke-opacity:1; 
stroke-linecap:round; stroke-linejoin:round;">
<circle cx="10787.4" cy="9574.8" r="196.85" /> 
</g>
<g style="fill:#FFFFFF; fill-opacity:1.0; 
stroke:#FFFFFF; stroke-width:39.3701; stroke-opacity:1; 
stroke-linecap:round; stroke-linejoin:round;">
</g>
<g style="fill:#FFFFFF; fill-opacity:1.0; 
stroke:#FFFFFF; stroke-width:0; stroke-opacity:1; 
stroke-linecap:round; stroke-linejoin:round;">
<circle cx="6366.14" cy="6952.76" r="196.85" /> 
</g>
<g style="fill:#FFFFFF; fill-opacity:1.0; 
stroke:#FFFFFF; stroke-width:39.3701; stroke-opacity:1; 
stroke-linecap:round; stroke-linejoin:round;">
</g>
<g style="fill:#FFFFFF; fill-opacity:1.0; 
stroke:#FFFFFF; stroke-width:0; stroke-opacity:1; 
stroke-linecap:round; stroke-linejoin:round;">
<circle cx="10440.9" cy="6279.53" r="196.85" /> 
</g>
<g style="fill:#FFFFFF; fill-opacity:1.0; 
stroke:#FFFFFF; stroke-width:39.3701; stroke-opacity:1; 
stroke-linecap:round; stroke-linejoin:round;">
</g>
<g style="fill:#FFFFFF; fill-opacity:1.0; 
stroke:#FFFFFF; stroke-width:0; stroke-opacity:1; 
stroke-linecap:round; stroke-linejoin:round;">
<circle cx="9503.94" cy="5700.79" r="196.85" /> 
</g>
<g style="fill:#FFFFFF; fill-opacity:1.0; 
stroke:#FFFFFF; stroke-width:39.3701; stroke-opacity:1; 
stroke-linecap:round; stroke-linejoin:round;">
</g>
<g style="fill:#FFFFFF; fill-opacity:1.0; 
stroke:#FFFFFF; stroke-width:0; stroke-opacity:1; 
stroke-linecap:round; stroke-linejoin:round;">
<circle cx="6700.79" cy="3559.06" r="196.85" /> 
</g>
<g style="fill:#FFFFFF; fill-opacity:1.0; 
stroke:#FFFFFF; stroke-width:39.3701; stroke-opacity:1; 
stroke-linecap:round; stroke-linejoin:round;">
</g>
<g style="fill:#FFFFFF; fill-opacity:1.0; 
stroke:#FFFFFF; stroke-width:0; stroke-opacity:1; 
stroke-linecap:round; stroke-linejoin:round;">
<circle cx="11203.5" cy="5003.99" r="196.85" /> 
</g>
<g style="fill:#FFFFFF; fill-opacity:1.0; 
stroke:#FFFFFF; stroke-width:39.3701; stroke-opacity:1; 
stroke-linecap:round; stroke-linejoin:round;">
</g>
<g style="fill:#FFFFFF; fill-opacity:1.0; 
stroke:#FFFFFF; stroke-width:0; stroke-opacity:1; 
stroke-linecap:round; stroke-linejoin:round;">
<circle cx="10385.8" cy="8602.36" r="196.85" /> 
</g>
<g style="fill:#FFFFFF; fill-opacity:1.0; 
stroke:#FFFFFF; stroke-width:39.3701; stroke-opacity:1; 
stroke-linecap:round; stroke-linejoin:round;">
</g>
<g style="fill:#FFFFFF; fill-opacity:1.0; 
stroke:#FFFFFF; stroke-width:0; stroke-opacity:1; 
stroke-linecap:round; stroke-linejoin:round;">
<circle cx="19003.9" cy="4000" r="196.85" /> 
</g>
<g style="fill:#FFFFFF; fill-opacity:1.0; 
stroke:#FFFFFF; stroke-width:39.3701; stroke-opacity:1; 
stroke-linecap:round; stroke-linejoin:round;">
</g>
<g style="fill:#FFFFFF; fill-opacity:1.0; 
stroke:#FFFFFF; stroke-width:0; stroke-opacity:1; 
stroke-linecap:round; stroke-linejoin:round;">
<circle cx="16181.1" cy="6078.74" r="196.85" /> 
</g>
<g style="fill:#FFFFFF; fill-opacity:1.0; 
stroke:#FFFFFF; stroke-width:39.3701; stroke-opacity:1; 
stroke-linecap:round; stroke-linejoin:round;">
</g>
<g style="fill:#FFFFFF; fill-opacity:1.0; 
stroke:#FFFFFF; stroke-width:0; stroke-opacity:1; 
stroke-linecap:round; stroke-linejoin:round;">
<circle cx="23799.2" cy="7007.87" r="433.071" /> 
</g>
<g style="fill:#FFFFFF; fill-opacity:1.0; 
stroke:#FFFFFF; stroke-width:39.3701; stroke-opacity:1; 
stroke-linecap:round; stroke-linejoin:round;">
</g>
<g style="fill:#FFFFFF; fill-opacity:1.0; 
stroke:#FFFFFF; stroke-width:0; stroke-opacity:1; 
stroke-linecap:round; stroke-linejoin:round;">
<circle cx="23854.3" cy="1842.52" r="196.85" /> 
</g>
<g style="fill:#FFFFFF; fill-opacity:1.0; 
stroke:#FFFFFF; stroke-width:39.3701; stroke-opacity:1; 
stroke-linecap:round; stroke-linejoin:round;">
</g>
<g style="fill:#FFFFFF; fill-opacity:1.0; 
stroke:#FFFFFF; stroke-width:0; stroke-opacity:1; 
stroke-linecap:round; stroke-linejoin:round;">
<circle cx="23854.3" cy="842.52" r="196.85" /> 
</g>
<g style="fill:#FFFFFF; fill-opacity:1.0; 
stroke:#FFFFFF; stroke-width:39.3701; stroke-opacity:1; 
stroke-linecap:round; stroke-linejoin:round;">
</g>
<g style="fill:#FFFFFF; fill-opacity:1.0; 
stroke:#FFFFFF; stroke-width:0; stroke-opacity:1; 
stroke-linecap:round; stroke-linejoin:round;">
<circle cx="40511.8" cy="8572.84" r="629.921" /> 
</g>
<g style="fill:#FFFFFF; fill-opacity:1.0; 
stroke:#FFFFFF; stroke-width:39.3701; stroke-opacity:1; 
stroke-linecap:round; stroke-linejoin:round;">
</g>
<g style="fill:#FFFFFF; fill-opacity:1.0; 
stroke:#FFFFFF; stroke-width:0; stroke-opacity:1; 
stroke-linecap:round; stroke-linejoin:round;">
<circle cx="40511.8" cy="6151.58" r="629.921" /> 
</g>
<g style="fill:#FFFFFF; fill-opacity:1.0; 
stroke:#FFFFFF; stroke-width:39.3701; stroke-opacity:1; 
stroke-linecap:round; stroke-linejoin:round;">
</g>
<g style="fill:#FFFFFF; fill-opacity:1.0; 
stroke:#FFFFFF; stroke-width:0; stroke-opacity:1; 
stroke-linecap:round; stroke-linejoin:round;">
<circle cx="38090.6" cy="8572.84" r="629.921" /> 
</g>
<g style="fill:#FFFFFF; fill-opacity:1.0; 
stroke:#FFFFFF; stroke-width:39.3701; stroke-opacity:1; 
stroke-linecap:round; stroke-linejoin:round;">
</g>
<g style="fill:#FFFFFF; fill-opacity:1.0; 
stroke:#FFFFFF; stroke-width:0; stroke-opacity:1; 
stroke-linecap:round; stroke-linejoin:round;">
<circle cx="17822.8" cy="3645.67" r="216.535" /> 
</g>
<g style="fill:#FFFFFF; fill-opacity:1.0; 
stroke:#FFFFFF; stroke-width:39.3701; stroke-opacity:1; 
stroke-linecap:round; stroke-linejoin:round;">
</g>
<g style="fill:#FFFFFF; fill-opacity:1.0; 
stroke:#FFFFFF; stroke-width:0; stroke-opacity:1; 
stroke-linecap:round; stroke-linejoin:round;">
<circle cx="16051.2" cy="3645.67" r="216.535" /> 
</g>
<g style="fill:#FFFFFF; fill-opacity:1.0; 
stroke:#FFFFFF; stroke-width:39.3701; stroke-opacity:1; 
stroke-linecap:round; stroke-linejoin:round;">
</g>
<g style="fill:#FFFFFF; fill-opacity:1.0; 
stroke:#FFFFFF; stroke-width:0; stroke-opacity:1; 
stroke-linecap:round; stroke-linejoin:round;">
<circle cx="17822.8" cy="1086.61" r="216.535" /> 
</g>
<g style="fill:#FFFFFF; fill-opacity:1.0; 
stroke:#FFFFFF; stroke-width:39.3701; stroke-opacity:1; 
stroke-linecap:round; stroke-linejoin:round;">
</g>
<g style="fill:#FFFFFF; fill-opacity:1.0; 
stroke:#FFFFFF; stroke-width:0; stroke-opacity:1; 
stroke-linecap:round; stroke-linejoin:round;">
<circle cx="16051.2" cy="1086.61" r="216.535" /> 
</g>
<g style="fill:#FFFFFF; fill-opacity:1.0; 
stroke:#FFFFFF; stroke-width:39.3701; stroke-opacity:1; 
stroke-linecap:round; stroke-linejoin:round;">
</g>
<g style="fill:#FFFFFF; fill-opacity:1.0; 
stroke:#FFFFFF; stroke-width:0; stroke-opacity:1; 
stroke-linecap:round; stroke-linejoin:round;">
<circle cx="12942.9" cy="1086.61" r="216.535" /> 
</g>
<g style="fill:#FFFFFF; fill-opacity:1.0; 
stroke:#FFFFFF; stroke-width:39.3701; stroke-opacity:1; 
stroke-linecap:round; stroke-linejoin:round;">
</g>
<g style="fill:#FFFFFF; fill-opacity:1.0; 
stroke:#FFFFFF; stroke-width:0; stroke-opacity:1; 
stroke-linecap:round; stroke-linejoin:round;">
<circle cx="14714.6" cy="1086.61" r="216.535" /> 
</g>
<g style="fill:#FFFFFF; fill-opacity:1.0; 
stroke:#FFFFFF; stroke-width:39.3701; stroke-opacity:1; 
stroke-linecap:round; stroke-linejoin:round;">
</g>
<g style="fill:#FFFFFF; fill-opacity:1.0; 
stroke:#FFFFFF; stroke-width:0; stroke-opacity:1; 
stroke-linecap:round; stroke-linejoin:round;">
<circle cx="12942.9" cy="3645.67" r="216.535" /> 
</g>
<g style="fill:#FFFFFF; fill-opacity:1.0; 
stroke:#FFFFFF; stroke-width:39.3701; stroke-opacity:1; 
stroke-linecap:round; stroke-linejoin:round;">
</g>
<g style="fill:#FFFFFF; fill-opacity:1.0; 
stroke:#FFFFFF; stroke-width:0; stroke-opacity:1; 
stroke-linecap:round; stroke-linejoin:round;">
<circle cx="14714.6" cy="3645.67" r="216.535" /> 
</g>
<g style="fill:#FFFFFF; fill-opacity:1.0; 
stroke:#FFFFFF; stroke-width:39.3701; stroke-opacity:1; 
stroke-linecap:round; stroke-linejoin:round;">
</g>
<g style="fill:#FFFFFF; fill-opacity:1.0; 
stroke:#FFFFFF; stroke-width:0; stroke-opacity:1; 
stroke-linecap:round; stroke-linejoin:round;">
<circle cx="11606.3" cy="3645.67" r="216.535" /> 
</g>
<g style="fill:#FFFFFF; fill-opacity:1.0; 
stroke:#FFFFFF; stroke-width:39.3701; stroke-opacity:1; 
stroke-linecap:round; stroke-linejoin:round;">
</g>
<g style="fill:#FFFFFF; fill-opacity:1.0; 
stroke:#FFFFFF; stroke-width:0; stroke-opacity:1; 
stroke-linecap:round; stroke-linejoin:round;">
<circle cx="9834.65" cy="3645.67" r="216.535" /> 
</g>
<g style="fill:#FFFFFF; fill-opacity:1.0; 
stroke:#FFFFFF; stroke-width:39.3701; stroke-opacity:1; 
stroke-linecap:round; stroke-linejoin:round;">
</g>
<g style="fill:#FFFFFF; fill-opacity:1.0; 
stroke:#FFFFFF; stroke-width:0; stroke-opacity:1; 
stroke-linecap:round; stroke-linejoin:round;">
<circle cx="11606.3" cy="1086.61" r="216.535" /> 
</g>
<g style="fill:#FFFFFF; fill-opacity:1.0; 
stroke:#FFFFFF; stroke-width:39.3701; stroke-opacity:1; 
stroke-linecap:round; stroke-linejoin:round;">
</g>
<g style="fill:#FFFFFF; fill-opacity:1.0; 
stroke:#FFFFFF; stroke-width:0; stroke-opacity:1; 
stroke-linecap:round; stroke-linejoin:round;">
<circle cx="9834.65" cy="1086.61" r="216.535" /> 
</g>
<g style="fill:#FFFFFF; fill-opacity:1.0; 
stroke:#FFFFFF; stroke-width:39.3701; stroke-opacity:1; 
stroke-linecap:round; stroke-linejoin:round;">
</g>
<g style="fill:#FFFFFF; fill-opacity:1.0; 
stroke:#FFFFFF; stroke-width:0; stroke-opacity:1; 
stroke-linecap:round; stroke-linejoin:round;">
<circle cx="21633.9" cy="10974.4" r="295.275" /> 
</g>
<g style="fill:#FFFFFF; fill-opacity:1.0; 
stroke:#FFFFFF; stroke-width:39.3701; stroke-opacity:1; 
stroke-linecap:round; stroke-linejoin:round;">
</g>
<g style="fill:#FFFFFF; fill-opacity:1.0; 
stroke:#FFFFFF; stroke-width:0; stroke-opacity:1; 
stroke-linecap:round; stroke-linejoin:round;">
<circle cx="18878" cy="10974.4" r="295.275" /> 
</g>
<g style="fill:#FFFFFF; fill-opacity:1.0; 
stroke:#FFFFFF; stroke-width:39.3701; stroke-opacity:1; 
stroke-linecap:round; stroke-linejoin:round;">
</g>
<g style="fill:#FFFFFF; fill-opacity:1.0; 
stroke:#FFFFFF; stroke-width:0; stroke-opacity:1; 
stroke-linecap:round; stroke-linejoin:round;">
<circle cx="20157.5" cy="2935.04" r="157.5" /> 
</g>
<g style="fill:#FFFFFF; fill-opacity:1.0; 
stroke:#FFFFFF; stroke-width:39.3701; stroke-opacity:1; 
stroke-linecap:round; stroke-linejoin:round;">
</g>
<g style="fill:#FFFFFF; fill-opacity:1.0; 
stroke:#FFFFFF; stroke-width:0; stroke-opacity:1; 
stroke-linecap:round; stroke-linejoin:round;">
<circle cx="22157.5" cy="2935.04" r="157.5" /> 
</g>
<g style="fill:#FFFFFF; fill-opacity:1.0; 
stroke:#FFFFFF; stroke-width:39.3701; stroke-opacity:1; 
stroke-linecap:round; stroke-linejoin:round;">
</g>
<g style="fill:#000000; fill-opacity:1.0; 
stroke:#000000; stroke-width:39.3701; stroke-opacity:1; 
stroke-linecap:round; stroke-linejoin:round;">
</g>
<g style="fill:#000000; fill-opacity:0.0; 
stroke:#000000; stroke-width:59.0551; stroke-opacity:1; 
stroke-linecap:round; stroke-linejoin:round;">
<path d="M24901.6 826.772 A787.402 787.402 0.0 0 0 24114.2 39.3705 " />
<path d="M24118.1 13720.5 A787.402 787.402 0.0 0 0 24905.5 12933.1 " />
<path d="M98 3877
L98 8602
" />
<path d="M4724.41 11752 A1968.5 1968.5 0.0 0 0 6692.91 13720.5 " />
<path d="M6692.91 39.3705 A1968.5 1968.5 0.0 0 0 4724.41 2007.87 " />
<path d="M4724 8602
L4724 11751
" />
<path d="M4724 3877
L4724 2007
" />
<path d="M98 8602
L4724 8602
" />
<path d="M98 3877
L4724 3877
" />
</g>
<g style="fill:#000000; fill-opacity:0.0; 
stroke:#000000; stroke-width:78.7402; stroke-opacity:1; 
stroke-linecap:round; stroke-linejoin:round;">
<path d="M6692 39
L24114 39
" />
<path d="M24901 826
L24901 12933
" />
<path d="M6692 13720
L24118 13720
" />
</g> 
</svg>
