<?xml version="1.0" standalone="no"?>
 <!DOCTYPE svg PUBLIC "-//W3C//DTD SVG 1.1//EN" 
 "http://www.w3.org/Graphics/SVG/1.1/DTD/svg11.dtd"> 
<svg xmlns="http://www.w3.org/2000/svg" version="1.1" 
    width="10.5969cm" height="3.50774cm" viewBox="0 0 41720 13810 ">
<title>SVG Picture created as USB-DAC-PCM2902-B.Cu.svg date 2018/11/24 18:00:46 </title>
  <desc>Picture generated by PCBNEW </desc>
<g style="fill:#000000; fill-opacity:1;stroke:#000000; stroke-opacity:1;
stroke-linecap:round; stroke-linejoin:round; "
 transform="translate(0 0) scale(1 1)">
</g>
<g style="fill:#000000; fill-opacity:0.0; 
stroke:#000000; stroke-width:-0.000393701; stroke-opacity:1; 
stroke-linecap:round; stroke-linejoin:round;">
</g>
<g style="fill:#000000; fill-opacity:0.0; 
stroke:#000000; stroke-width:669.291; stroke-opacity:1; 
stroke-linecap:round; stroke-linejoin:round;">
<path d="M23854 1842
L23854 1842
" />
</g>
<g style="fill:#000000; fill-opacity:0.0; 
stroke:#000000; stroke-width:0; stroke-opacity:1; 
stroke-linecap:round; stroke-linejoin:round;">
</g>
<g style="fill:#000000; fill-opacity:1.0; 
stroke:#000000; stroke-width:0; stroke-opacity:1; 
stroke-linecap:round; stroke-linejoin:round;">
<polyline style="fill-rule:evenodd;"
points="23519,1177
23519,507
24188,507
24188,1177
23519,1177
" /> 
<circle cx="17822.8" cy="3645.67" r="393.701" /> 
</g>
<g style="fill:#000000; fill-opacity:1.0; 
stroke:#000000; stroke-width:39.3701; stroke-opacity:1; 
stroke-linecap:round; stroke-linejoin:round;">
</g>
<g style="fill:#000000; fill-opacity:1.0; 
stroke:#000000; stroke-width:0; stroke-opacity:1; 
stroke-linecap:round; stroke-linejoin:round;">
<circle cx="16051.2" cy="3645.67" r="393.701" /> 
</g>
<g style="fill:#000000; fill-opacity:1.0; 
stroke:#000000; stroke-width:39.3701; stroke-opacity:1; 
stroke-linecap:round; stroke-linejoin:round;">
</g>
<g style="fill:#000000; fill-opacity:1.0; 
stroke:#000000; stroke-width:0; stroke-opacity:1; 
stroke-linecap:round; stroke-linejoin:round;">
<circle cx="17822.8" cy="1086.61" r="393.701" /> 
</g>
<g style="fill:#000000; fill-opacity:1.0; 
stroke:#000000; stroke-width:39.3701; stroke-opacity:1; 
stroke-linecap:round; stroke-linejoin:round;">
</g>
<g style="fill:#000000; fill-opacity:1.0; 
stroke:#000000; stroke-width:0; stroke-opacity:1; 
stroke-linecap:round; stroke-linejoin:round;">
<circle cx="16051.2" cy="1086.61" r="393.701" /> 
</g>
<g style="fill:#000000; fill-opacity:1.0; 
stroke:#000000; stroke-width:39.3701; stroke-opacity:1; 
stroke-linecap:round; stroke-linejoin:round;">
</g>
<g style="fill:#000000; fill-opacity:1.0; 
stroke:#000000; stroke-width:0; stroke-opacity:1; 
stroke-linecap:round; stroke-linejoin:round;">
<circle cx="12942.9" cy="1086.61" r="393.701" /> 
</g>
<g style="fill:#000000; fill-opacity:1.0; 
stroke:#000000; stroke-width:39.3701; stroke-opacity:1; 
stroke-linecap:round; stroke-linejoin:round;">
</g>
<g style="fill:#000000; fill-opacity:1.0; 
stroke:#000000; stroke-width:0; stroke-opacity:1; 
stroke-linecap:round; stroke-linejoin:round;">
<circle cx="14714.6" cy="1086.61" r="393.701" /> 
</g>
<g style="fill:#000000; fill-opacity:1.0; 
stroke:#000000; stroke-width:39.3701; stroke-opacity:1; 
stroke-linecap:round; stroke-linejoin:round;">
</g>
<g style="fill:#000000; fill-opacity:1.0; 
stroke:#000000; stroke-width:0; stroke-opacity:1; 
stroke-linecap:round; stroke-linejoin:round;">
<circle cx="12942.9" cy="3645.67" r="393.701" /> 
</g>
<g style="fill:#000000; fill-opacity:1.0; 
stroke:#000000; stroke-width:39.3701; stroke-opacity:1; 
stroke-linecap:round; stroke-linejoin:round;">
</g>
<g style="fill:#000000; fill-opacity:1.0; 
stroke:#000000; stroke-width:0; stroke-opacity:1; 
stroke-linecap:round; stroke-linejoin:round;">
<circle cx="14714.6" cy="3645.67" r="393.701" /> 
</g>
<g style="fill:#000000; fill-opacity:1.0; 
stroke:#000000; stroke-width:39.3701; stroke-opacity:1; 
stroke-linecap:round; stroke-linejoin:round;">
</g>
<g style="fill:#000000; fill-opacity:1.0; 
stroke:#000000; stroke-width:0; stroke-opacity:1; 
stroke-linecap:round; stroke-linejoin:round;">
<circle cx="11606.3" cy="3645.67" r="393.701" /> 
</g>
<g style="fill:#000000; fill-opacity:1.0; 
stroke:#000000; stroke-width:39.3701; stroke-opacity:1; 
stroke-linecap:round; stroke-linejoin:round;">
</g>
<g style="fill:#000000; fill-opacity:1.0; 
stroke:#000000; stroke-width:0; stroke-opacity:1; 
stroke-linecap:round; stroke-linejoin:round;">
<circle cx="9834.65" cy="3645.67" r="393.701" /> 
</g>
<g style="fill:#000000; fill-opacity:1.0; 
stroke:#000000; stroke-width:39.3701; stroke-opacity:1; 
stroke-linecap:round; stroke-linejoin:round;">
</g>
<g style="fill:#000000; fill-opacity:1.0; 
stroke:#000000; stroke-width:0; stroke-opacity:1; 
stroke-linecap:round; stroke-linejoin:round;">
<circle cx="11606.3" cy="1086.61" r="393.701" /> 
</g>
<g style="fill:#000000; fill-opacity:1.0; 
stroke:#000000; stroke-width:39.3701; stroke-opacity:1; 
stroke-linecap:round; stroke-linejoin:round;">
</g>
<g style="fill:#000000; fill-opacity:1.0; 
stroke:#000000; stroke-width:0; stroke-opacity:1; 
stroke-linecap:round; stroke-linejoin:round;">
<circle cx="9834.65" cy="1086.61" r="393.701" /> 
</g>
<g style="fill:#000000; fill-opacity:1.0; 
stroke:#000000; stroke-width:39.3701; stroke-opacity:1; 
stroke-linecap:round; stroke-linejoin:round;">
</g>
<g style="fill:#000000; fill-opacity:1.0; 
stroke:#000000; stroke-width:0; stroke-opacity:1; 
stroke-linecap:round; stroke-linejoin:round;">
<polyline style="fill-rule:evenodd;"
points="22185,468
22194,470
22203,472
22211,475
22220,479
22228,484
22235,489
22242,495
22248,502
22253,510
22258,517
22262,526
22265,534
22267,543
22269,552
22269,562
22269,788
22269,797
22267,806
22265,815
22262,824
22258,832
22253,840
22248,847
22242,854
22235,860
22228,866
22220,870
22211,874
22203,877
22194,880
22185,881
22176,881
21989,881
21980,881
21970,880
21962,877
21953,874
21945,870
21937,866
21929,860
21923,854
21916,847
21911,840
21906,832
21902,824
21899,815
21897,806
21896,797
21895,788
21895,562
21896,552
21897,543
21899,534
21902,526
21906,517
21911,510
21916,502
21923,495
21929,489
21937,484
21945,479
21953,475
21962,472
21970,470
21980,468
21989,468
22176,468
22185,468
" /> 
<polyline style="fill-rule:evenodd;"
points="22185,1157
22194,1159
22203,1161
22211,1164
22220,1168
22228,1173
22235,1178
22242,1184
22248,1191
22253,1199
22258,1206
22262,1215
22265,1223
22267,1232
22269,1241
22269,1250
22269,1477
22269,1486
22267,1495
22265,1504
22262,1513
22258,1521
22253,1529
22248,1536
22242,1543
22235,1549
22228,1555
22220,1559
22211,1563
22203,1566
22194,1569
22185,1570
22176,1570
21989,1570
21980,1570
21970,1569
21962,1566
21953,1563
21945,1559
21937,1555
21929,1549
21923,1543
21916,1536
21911,1529
21906,1521
21902,1513
21899,1504
21897,1495
21896,1486
21895,1477
21895,1250
21896,1241
21897,1232
21899,1223
21902,1215
21906,1206
21911,1199
21916,1191
21923,1184
21929,1178
21937,1173
21945,1168
21953,1164
21962,1161
21970,1159
21980,1157
21989,1157
22176,1157
22185,1157
" /> 
<polyline style="fill-rule:evenodd;"
points="19220,1157
19229,1159
19238,1161
19247,1164
19255,1168
19263,1173
19270,1178
19277,1184
19283,1191
19289,1199
19294,1206
19298,1215
19301,1223
19303,1232
19304,1241
19305,1250
19305,1477
19304,1486
19303,1495
19301,1504
19298,1513
19294,1521
19289,1529
19283,1536
19277,1543
19270,1549
19263,1555
19255,1559
19247,1563
19238,1566
19229,1569
19220,1570
19211,1570
19024,1570
19015,1570
19006,1569
18997,1566
18988,1563
18980,1559
18972,1555
18965,1549
18958,1543
18952,1536
18946,1529
18942,1521
18938,1513
18935,1504
18932,1495
18931,1486
18931,1477
18931,1250
18931,1241
18932,1232
18935,1223
18938,1215
18942,1206
18946,1199
18952,1191
18958,1184
18965,1178
18972,1173
18980,1168
18988,1164
18997,1161
19006,1159
19015,1157
19024,1157
19211,1157
19220,1157
" /> 
<polyline style="fill-rule:evenodd;"
points="19220,468
19229,470
19238,472
19247,475
19255,479
19263,484
19270,489
19277,495
19283,502
19289,510
19294,517
19298,526
19301,534
19303,543
19304,552
19305,562
19305,788
19304,797
19303,806
19301,815
19298,824
19294,832
19289,840
19283,847
19277,854
19270,860
19263,866
19255,870
19247,874
19238,877
19229,880
19220,881
19211,881
19024,881
19015,881
19006,880
18997,877
18988,874
18980,870
18972,866
18965,860
18958,854
18952,847
18946,840
18942,832
18938,824
18935,815
18932,806
18931,797
18931,788
18931,562
18931,552
18932,543
18935,534
18938,526
18942,517
18946,510
18952,502
18958,495
18965,489
18972,484
18980,479
18988,475
18997,472
19006,470
19015,468
19024,468
19211,468
19220,468
" /> 
<polyline style="fill-rule:evenodd;"
points="9905,10671
9914,10673
9923,10675
9932,10678
9940,10682
9948,10687
9955,10692
9962,10698
9968,10705
9974,10712
9979,10720
9983,10728
9986,10737
9988,10746
9989,10755
9990,10764
9990,10991
9989,11000
9988,11009
9986,11018
9983,11026
9979,11035
9974,11043
9968,11050
9962,11057
9955,11063
9948,11068
9940,11073
9932,11077
9923,11080
9914,11082
9905,11084
9896,11084
9709,11084
9700,11084
9691,11082
9682,11080
9673,11077
9665,11073
9657,11068
9650,11063
9643,11057
9637,11050
9631,11043
9627,11035
9623,11026
9620,11018
9617,11009
9616,11000
9616,10991
9616,10764
9616,10755
9617,10746
9620,10737
9623,10728
9627,10720
9631,10712
9637,10705
9643,10698
9650,10692
9657,10687
9665,10682
9673,10678
9682,10675
9691,10673
9700,10671
9709,10671
9896,10671
9905,10671
" /> 
<polyline style="fill-rule:evenodd;"
points="9905,9982
9914,9984
9923,9986
9932,9989
9940,9993
9948,9998
9955,10003
9962,10009
9968,10016
9974,10023
9979,10031
9983,10040
9986,10048
9988,10057
9989,10066
9990,10075
9990,10302
9989,10311
9988,10320
9986,10329
9983,10337
9979,10346
9974,10354
9968,10361
9962,10368
9955,10374
9948,10379
9940,10384
9932,10388
9923,10391
9914,10393
9905,10395
9896,10395
9709,10395
9700,10395
9691,10393
9682,10391
9673,10388
9665,10384
9657,10379
9650,10374
9643,10368
9637,10361
9631,10354
9627,10346
9623,10337
9620,10329
9617,10320
9616,10311
9616,10302
9616,10075
9616,10066
9617,10057
9620,10048
9623,10040
9627,10031
9631,10023
9637,10016
9643,10009
9650,10003
9657,9998
9665,9993
9673,9989
9682,9986
9691,9984
9700,9982
9709,9982
9896,9982
9905,9982
" /> 
<polyline style="fill-rule:evenodd;"
points="6846,10356
6216,10356
6216,10238
6846,10238
6846,10356
" /> 
<polyline style="fill-rule:evenodd;"
points="6846,10100
6216,10100
6216,9982
6846,9982
6846,10100
" /> 
<polyline style="fill-rule:evenodd;"
points="6846,9844
6216,9844
6216,9726
6846,9726
6846,9844
" /> 
<polyline style="fill-rule:evenodd;"
points="6846,9588
6216,9588
6216,9470
6846,9470
6846,9588
" /> 
<polyline style="fill-rule:evenodd;"
points="8185,9588
7555,9588
7555,9470
8185,9470
8185,9588
" /> 
<polyline style="fill-rule:evenodd;"
points="8185,9844
7555,9844
7555,9726
8185,9726
8185,9844
" /> 
<polyline style="fill-rule:evenodd;"
points="8185,10100
7555,10100
7555,9982
8185,9982
8185,10100
" /> 
<polyline style="fill-rule:evenodd;"
points="8185,10356
7555,10356
7555,10238
8185,10238
8185,10356
" /> 
<polyline style="fill-rule:evenodd;"
points="20431,1309
20440,1310
20449,1313
20458,1316
20466,1320
20474,1324
20481,1330
20488,1336
20494,1343
20499,1350
20504,1358
20508,1366
20511,1375
20513,1384
20515,1393
20515,1402
20515,1589
20515,1598
20513,1607
20511,1616
20508,1625
20504,1633
20499,1641
20494,1648
20488,1655
20481,1661
20474,1667
20466,1672
20458,1675
20449,1679
20440,1681
20431,1682
20422,1683
20195,1683
20186,1682
20177,1681
20168,1679
20160,1675
20151,1672
20143,1667
20136,1661
20129,1655
20123,1648
20118,1641
20113,1633
20109,1625
20106,1616
20104,1607
20102,1598
20102,1589
20102,1402
20102,1393
20104,1384
20106,1375
20109,1366
20113,1358
20118,1350
20123,1343
20129,1336
20136,1330
20143,1324
20151,1320
20160,1316
20168,1313
20177,1310
20186,1309
20195,1309
20422,1309
20431,1309
" /> 
<polyline style="fill-rule:evenodd;"
points="21120,1309
21129,1310
21138,1313
21147,1316
21155,1320
21163,1324
21170,1330
21177,1336
21183,1343
21188,1350
21193,1358
21197,1366
21200,1375
21202,1384
21204,1393
21204,1402
21204,1589
21204,1598
21202,1607
21200,1616
21197,1625
21193,1633
21188,1641
21183,1648
21177,1655
21170,1661
21163,1667
21155,1672
21147,1675
21138,1679
21129,1681
21120,1682
21111,1683
20884,1683
20875,1682
20866,1681
20857,1679
20849,1675
20840,1672
20832,1667
20825,1661
20818,1655
20812,1648
20807,1641
20802,1633
20798,1625
20795,1616
20793,1607
20791,1598
20791,1589
20791,1402
20791,1393
20793,1384
20795,1375
20798,1366
20802,1358
20807,1350
20812,1343
20818,1336
20825,1330
20832,1324
20840,1320
20849,1316
20857,1313
20866,1310
20875,1309
20884,1309
21111,1309
21120,1309
" /> 
<polyline style="fill-rule:evenodd;"
points="9079,9982
9088,9984
9097,9986
9105,9989
9113,9993
9121,9998
9129,10003
9135,10009
9142,10016
9147,10023
9152,10031
9156,10040
9159,10048
9161,10057
9162,10066
9163,10075
9163,10302
9162,10311
9161,10320
9159,10329
9156,10337
9152,10346
9147,10354
9142,10361
9135,10368
9129,10374
9121,10379
9113,10384
9105,10388
9097,10391
9088,10393
9079,10395
9069,10395
8882,10395
8873,10395
8864,10393
8855,10391
8847,10388
8838,10384
8830,10379
8823,10374
8816,10368
8810,10361
8805,10354
8800,10346
8796,10337
8793,10329
8791,10320
8789,10311
8789,10302
8789,10075
8789,10066
8791,10057
8793,10048
8796,10040
8800,10031
8805,10023
8810,10016
8816,10009
8823,10003
8830,9998
8838,9993
8847,9989
8855,9986
8864,9984
8873,9982
8882,9982
9069,9982
9079,9982
" /> 
<polyline style="fill-rule:evenodd;"
points="9079,10671
9088,10673
9097,10675
9105,10678
9113,10682
9121,10687
9129,10692
9135,10698
9142,10705
9147,10712
9152,10720
9156,10728
9159,10737
9161,10746
9162,10755
9163,10764
9163,10991
9162,11000
9161,11009
9159,11018
9156,11026
9152,11035
9147,11043
9142,11050
9135,11057
9129,11063
9121,11068
9113,11073
9105,11077
9097,11080
9088,11082
9079,11084
9069,11084
8882,11084
8873,11084
8864,11082
8855,11080
8847,11077
8838,11073
8830,11068
8823,11063
8816,11057
8810,11050
8805,11043
8800,11035
8796,11026
8793,11018
8791,11009
8789,11000
8789,10991
8789,10764
8789,10755
8791,10746
8793,10737
8796,10728
8800,10720
8805,10712
8810,10705
8816,10698
8823,10692
8830,10687
8838,10682
8847,10678
8855,10675
8864,10673
8873,10671
8882,10671
9069,10671
9079,10671
" /> 
<polyline style="fill-rule:evenodd;"
points="9777,9104
9786,9106
9795,9108
9804,9111
9812,9115
9820,9120
9828,9125
9834,9131
9840,9138
9846,9145
9851,9153
9855,9162
9858,9170
9860,9179
9861,9188
9862,9197
9862,9384
9861,9394
9860,9403
9858,9411
9855,9420
9851,9428
9846,9436
9840,9444
9834,9450
9828,9457
9820,9462
9812,9467
9804,9471
9795,9474
9786,9476
9777,9477
9768,9478
9542,9478
9533,9477
9524,9476
9515,9474
9506,9471
9498,9467
9490,9462
9483,9457
9476,9450
9470,9444
9464,9436
9459,9428
9455,9420
9452,9411
9450,9403
9449,9394
9448,9384
9448,9197
9449,9188
9450,9179
9452,9170
9455,9162
9459,9153
9464,9145
9470,9138
9476,9131
9483,9125
9490,9120
9498,9115
9506,9111
9515,9108
9524,9106
9533,9104
9542,9104
9768,9104
9777,9104
" /> 
<polyline style="fill-rule:evenodd;"
points="9088,9104
9097,9106
9106,9108
9115,9111
9123,9115
9131,9120
9139,9125
9145,9131
9152,9138
9157,9145
9162,9153
9166,9162
9169,9170
9171,9179
9172,9188
9173,9197
9173,9384
9172,9394
9171,9403
9169,9411
9166,9420
9162,9428
9157,9436
9152,9444
9145,9450
9139,9457
9131,9462
9123,9467
9115,9471
9106,9474
9097,9476
9088,9477
9079,9478
8853,9478
8844,9477
8835,9476
8826,9474
8817,9471
8809,9467
8801,9462
8794,9457
8787,9450
8781,9444
8775,9436
8770,9428
8766,9420
8763,9411
8761,9403
8760,9394
8759,9384
8759,9197
8760,9188
8761,9179
8763,9170
8766,9162
8770,9153
8775,9145
8781,9138
8787,9131
8794,9125
8801,9120
8809,9115
8817,9111
8826,9108
8835,9106
8844,9104
8853,9104
9079,9104
9088,9104
" /> 
<circle cx="20157.5" cy="2935.04" r="393.5" /> 
</g>
<g style="fill:#000000; fill-opacity:1.0; 
stroke:#000000; stroke-width:39.3701; stroke-opacity:1; 
stroke-linecap:round; stroke-linejoin:round;">
</g>
<g style="fill:#000000; fill-opacity:1.0; 
stroke:#000000; stroke-width:0; stroke-opacity:1; 
stroke-linecap:round; stroke-linejoin:round;">
<circle cx="22157.5" cy="2935.04" r="393.5" /> 
</g>
<g style="fill:#000000; fill-opacity:1.0; 
stroke:#000000; stroke-width:39.3701; stroke-opacity:1; 
stroke-linecap:round; stroke-linejoin:round;">
</g>
<g style="fill:#000000; fill-opacity:1.0; 
stroke:#000000; stroke-width:0; stroke-opacity:1; 
stroke-linecap:round; stroke-linejoin:round;">
<circle cx="16598.4" cy="8822.84" r="393.701" /> 
</g>
<g style="fill:#000000; fill-opacity:1.0; 
stroke:#000000; stroke-width:39.3701; stroke-opacity:1; 
stroke-linecap:round; stroke-linejoin:round;">
</g>
<g style="fill:#000000; fill-opacity:1.0; 
stroke:#000000; stroke-width:0; stroke-opacity:1; 
stroke-linecap:round; stroke-linejoin:round;">
<circle cx="16578.7" cy="7625.98" r="393.701" /> 
</g>
<g style="fill:#000000; fill-opacity:1.0; 
stroke:#000000; stroke-width:39.3701; stroke-opacity:1; 
stroke-linecap:round; stroke-linejoin:round;">
</g>
<g style="fill:#000000; fill-opacity:1.0; 
stroke:#000000; stroke-width:0; stroke-opacity:1; 
stroke-linecap:round; stroke-linejoin:round;">
<circle cx="5847.98" cy="4013.36" r="393.701" /> 
</g>
<g style="fill:#000000; fill-opacity:1.0; 
stroke:#000000; stroke-width:39.3701; stroke-opacity:1; 
stroke-linecap:round; stroke-linejoin:round;">
</g>
<g style="fill:#000000; fill-opacity:1.0; 
stroke:#000000; stroke-width:0; stroke-opacity:1; 
stroke-linecap:round; stroke-linejoin:round;">
<circle cx="6492.13" cy="795.276" r="393.701" /> 
</g>
<g style="fill:#000000; fill-opacity:1.0; 
stroke:#000000; stroke-width:39.3701; stroke-opacity:1; 
stroke-linecap:round; stroke-linejoin:round;">
</g>
<g style="fill:#000000; fill-opacity:1.0; 
stroke:#000000; stroke-width:0; stroke-opacity:1; 
stroke-linecap:round; stroke-linejoin:round;">
<circle cx="11830.7" cy="8779.53" r="216.535" /> 
</g>
<g style="fill:#000000; fill-opacity:1.0; 
stroke:#000000; stroke-width:39.3701; stroke-opacity:1; 
stroke-linecap:round; stroke-linejoin:round;">
</g>
<g style="fill:#000000; fill-opacity:1.0; 
stroke:#000000; stroke-width:0; stroke-opacity:1; 
stroke-linecap:round; stroke-linejoin:round;">
<circle cx="11090.6" cy="12027.6" r="393.701" /> 
</g>
<g style="fill:#000000; fill-opacity:1.0; 
stroke:#000000; stroke-width:39.3701; stroke-opacity:1; 
stroke-linecap:round; stroke-linejoin:round;">
</g>
<g style="fill:#000000; fill-opacity:1.0; 
stroke:#000000; stroke-width:0; stroke-opacity:1; 
stroke-linecap:round; stroke-linejoin:round;">
<circle cx="5531.5" cy="9055.12" r="216.535" /> 
</g>
<g style="fill:#000000; fill-opacity:1.0; 
stroke:#000000; stroke-width:39.3701; stroke-opacity:1; 
stroke-linecap:round; stroke-linejoin:round;">
</g>
<g style="fill:#000000; fill-opacity:1.0; 
stroke:#000000; stroke-width:0; stroke-opacity:1; 
stroke-linecap:round; stroke-linejoin:round;">
<circle cx="5158.28" cy="4317.66" r="216.535" /> 
</g>
<g style="fill:#000000; fill-opacity:1.0; 
stroke:#000000; stroke-width:39.3701; stroke-opacity:1; 
stroke-linecap:round; stroke-linejoin:round;">
</g>
<g style="fill:#000000; fill-opacity:1.0; 
stroke:#000000; stroke-width:0; stroke-opacity:1; 
stroke-linecap:round; stroke-linejoin:round;">
<circle cx="23720.5" cy="5039.37" r="393.701" /> 
</g>
<g style="fill:#000000; fill-opacity:1.0; 
stroke:#000000; stroke-width:39.3701; stroke-opacity:1; 
stroke-linecap:round; stroke-linejoin:round;">
</g>
<g style="fill:#000000; fill-opacity:1.0; 
stroke:#000000; stroke-width:0; stroke-opacity:1; 
stroke-linecap:round; stroke-linejoin:round;">
<circle cx="7216.54" cy="8629.92" r="393.701" /> 
</g>
<g style="fill:#000000; fill-opacity:1.0; 
stroke:#000000; stroke-width:39.3701; stroke-opacity:1; 
stroke-linecap:round; stroke-linejoin:round;">
</g>
<g style="fill:#000000; fill-opacity:1.0; 
stroke:#000000; stroke-width:0; stroke-opacity:1; 
stroke-linecap:round; stroke-linejoin:round;">
<circle cx="9307.09" cy="7196.85" r="393.701" /> 
</g>
<g style="fill:#000000; fill-opacity:1.0; 
stroke:#000000; stroke-width:39.3701; stroke-opacity:1; 
stroke-linecap:round; stroke-linejoin:round;">
</g>
<g style="fill:#000000; fill-opacity:1.0; 
stroke:#000000; stroke-width:0; stroke-opacity:1; 
stroke-linecap:round; stroke-linejoin:round;">
<circle cx="5771.65" cy="7948.82" r="393.701" /> 
</g>
<g style="fill:#000000; fill-opacity:1.0; 
stroke:#000000; stroke-width:39.3701; stroke-opacity:1; 
stroke-linecap:round; stroke-linejoin:round;">
</g>
<g style="fill:#000000; fill-opacity:1.0; 
stroke:#000000; stroke-width:0; stroke-opacity:1; 
stroke-linecap:round; stroke-linejoin:round;">
<circle cx="10787.4" cy="9574.8" r="393.701" /> 
</g>
<g style="fill:#000000; fill-opacity:1.0; 
stroke:#000000; stroke-width:39.3701; stroke-opacity:1; 
stroke-linecap:round; stroke-linejoin:round;">
</g>
<g style="fill:#000000; fill-opacity:1.0; 
stroke:#000000; stroke-width:0; stroke-opacity:1; 
stroke-linecap:round; stroke-linejoin:round;">
<circle cx="6366.14" cy="6952.76" r="393.701" /> 
</g>
<g style="fill:#000000; fill-opacity:1.0; 
stroke:#000000; stroke-width:39.3701; stroke-opacity:1; 
stroke-linecap:round; stroke-linejoin:round;">
</g>
<g style="fill:#000000; fill-opacity:1.0; 
stroke:#000000; stroke-width:0; stroke-opacity:1; 
stroke-linecap:round; stroke-linejoin:round;">
<circle cx="10440.9" cy="6279.53" r="393.701" /> 
</g>
<g style="fill:#000000; fill-opacity:1.0; 
stroke:#000000; stroke-width:39.3701; stroke-opacity:1; 
stroke-linecap:round; stroke-linejoin:round;">
</g>
<g style="fill:#000000; fill-opacity:1.0; 
stroke:#000000; stroke-width:0; stroke-opacity:1; 
stroke-linecap:round; stroke-linejoin:round;">
<circle cx="9503.94" cy="5700.79" r="393.701" /> 
</g>
<g style="fill:#000000; fill-opacity:1.0; 
stroke:#000000; stroke-width:39.3701; stroke-opacity:1; 
stroke-linecap:round; stroke-linejoin:round;">
</g>
<g style="fill:#000000; fill-opacity:1.0; 
stroke:#000000; stroke-width:0; stroke-opacity:1; 
stroke-linecap:round; stroke-linejoin:round;">
<circle cx="6700.79" cy="3559.06" r="393.701" /> 
</g>
<g style="fill:#000000; fill-opacity:1.0; 
stroke:#000000; stroke-width:39.3701; stroke-opacity:1; 
stroke-linecap:round; stroke-linejoin:round;">
</g>
<g style="fill:#000000; fill-opacity:1.0; 
stroke:#000000; stroke-width:0; stroke-opacity:1; 
stroke-linecap:round; stroke-linejoin:round;">
<circle cx="11203.5" cy="5003.99" r="393.701" /> 
</g>
<g style="fill:#000000; fill-opacity:1.0; 
stroke:#000000; stroke-width:39.3701; stroke-opacity:1; 
stroke-linecap:round; stroke-linejoin:round;">
</g>
<g style="fill:#000000; fill-opacity:1.0; 
stroke:#000000; stroke-width:0; stroke-opacity:1; 
stroke-linecap:round; stroke-linejoin:round;">
<circle cx="10385.8" cy="8602.36" r="393.701" /> 
</g>
<g style="fill:#000000; fill-opacity:1.0; 
stroke:#000000; stroke-width:39.3701; stroke-opacity:1; 
stroke-linecap:round; stroke-linejoin:round;">
</g>
<g style="fill:#000000; fill-opacity:1.0; 
stroke:#000000; stroke-width:0; stroke-opacity:1; 
stroke-linecap:round; stroke-linejoin:round;">
<circle cx="19003.9" cy="4000" r="393.701" /> 
</g>
<g style="fill:#000000; fill-opacity:1.0; 
stroke:#000000; stroke-width:39.3701; stroke-opacity:1; 
stroke-linecap:round; stroke-linejoin:round;">
</g>
<g style="fill:#000000; fill-opacity:1.0; 
stroke:#000000; stroke-width:0; stroke-opacity:1; 
stroke-linecap:round; stroke-linejoin:round;">
<circle cx="16181.1" cy="6078.74" r="393.701" /> 
</g>
<g style="fill:#000000; fill-opacity:1.0; 
stroke:#000000; stroke-width:39.3701; stroke-opacity:1; 
stroke-linecap:round; stroke-linejoin:round;">
</g>
<g style="fill:#000000; fill-opacity:1.0; 
stroke:#000000; stroke-width:157.48; stroke-opacity:1; 
stroke-linecap:round; stroke-linejoin:round;">
</g>
<g style="fill:#000000; fill-opacity:0.0; 
stroke:#000000; stroke-width:157.48; stroke-opacity:1; 
stroke-linecap:round; stroke-linejoin:round;">
<path d="M22157 1438
L22082 1364
" />
<path d="M22157 2935
L22157 1438
" />
<path d="M21129 1364
L20998 1496
" />
<path d="M22082 1364
L21129 1364
" />
<path d="M21763 3328
L21763 3657
" />
<path d="M21763 3657
L16598 8822
" />
<path d="M22157 2935
L21763 3328
" />
<path d="M19118 2452
L19118 1364
" />
<path d="M20157 2935
L19600 2935
" />
<path d="M19600 2935
L19118 2452
" />
<path d="M20177 1364
L20309 1496
" />
<path d="M19118 1364
L20177 1364
" />
<path d="M20157 2935
L20157 3937
" />
<path d="M20157 3937
L20157 4331
" />
<path d="M17135 7625
L16578 7625
" />
<path d="M20157 4604
L17135 7625
" />
<path d="M20157 3937
L20157 4604
" />
<path d="M6098 1188
L6492 795
" />
<path d="M5847 1439
L6098 1188
" />
<path d="M5847 4013
L5847 1439
" />
<path d="M19344 675
L22082 675
" />
<path d="M19118 675
L19344 675
" />
<path d="M6413 9055
L6531 9173
" />
<path d="M6531 9529
L6531 9173
" />
<path d="M5531 9055
L6413 9055
" />
<path d="M11830 9085
L11830 8779
" />
<path d="M11830 11287
L11830 9085
" />
<path d="M11090 12027
L11830 11287
" />
<path d="M7750 8075
L6817 8075
" />
<path d="M5837 9055
L5531 9055
" />
<path d="M8966 9291
L7750 8075
" />
<path d="M6817 8075
L5837 9055
" />
<path d="M5158 4623
L5158 4317
" />
<path d="M5158 8681
L5158 4623
" />
<path d="M5531 9055
L5158 8681
" />
<path d="M22082 675
L24033 675
" />
<path d="M24033 675
L24555 1196
" />
<path d="M24114 4645
L23720 5039
" />
<path d="M24555 1196
L24555 4204
" />
<path d="M24555 4204
L24114 4645
" />
<path d="M7456 10297
L7870 10297
" />
<path d="M7216 10057
L7456 10297
" />
<path d="M7216 8629
L7216 10057
" />
<path d="M6328 7948
L5771 7948
" />
<path d="M8874 7629
L6647 7629
" />
<path d="M9307 7196
L8874 7629
" />
<path d="M6647 7629
L6328 7948
" />
<path d="M8828 10041
L8976 10188
" />
<path d="M7870 10041
L8828 10041
" />
<path d="M8976 10188
L9803 10188
" />
<path d="M9803 9438
L9655 9291
" />
<path d="M9803 10188
L9803 9438
" />
<path d="M9803 10877
L8976 10877
" />
<path d="M8976 10877
L6720 10877
" />
<path d="M6531 10688
L6531 10297
" />
<path d="M6720 10877
L6531 10688
" />
<path d="M10787 9893
L10787 9574
" />
<path d="M9803 10877
L10787 9893
" />
<path d="M7039 6279
L9884 6279
" />
<path d="M9884 6279
L10440 6279
" />
<path d="M6366 6952
L7039 6279
" />
<path d="M8842 5700
L7094 3952
" />
<path d="M9503 5700
L8842 5700
" />
<path d="M7094 3952
L6700 3559
" />
<path d="M10779 8208
L10385 8602
" />
<path d="M11203 7784
L10779 8208
" />
<path d="M11203 5003
L11203 7784
" />
<path d="M16574 5685
L16181 6078
" />
<path d="M16574 5685
L18724 5685
" />
<path d="M19003 5405
L19003 4000
" />
<path d="M18724 5685
L19003 5405
" />
<path d="M9834 1086
L9834 3645
" />
<path d="M12942 1086
L12942 3645
" />
<path d="M16051 1086
L16051 3645
" />
<path d="M11606 3645
L11606 1086
" />
<path d="M14714 1086
L14714 3645
" />
<path d="M17822 3645
L17822 1086
" />
<path d="M17822 529
L17822 1086
" />
<path d="M14880 364
L17657 364
" />
<path d="M14714 529
L14880 364
" />
<path d="M17657 364
L17822 529
" />
<path d="M14714 1086
L14714 529
" />
<path d="M11606 1086
L11606 411
" />
<path d="M11606 411
L11643 374
" />
<path d="M14558 374
L14714 529
" />
<path d="M11643 374
L14558 374
" />
</g>
<g style="fill:#000000; fill-opacity:1.0; 
stroke:#000000; stroke-width:100; stroke-opacity:1; 
stroke-linecap:round; stroke-linejoin:round;">
<polyline style="fill-rule:evenodd;"
points="11271,411
11277,443
11277,526
11241,540
11060,721
10962,958
10962,1214
11060,1451
11241,1632
11277,1647
11277,3085
11241,3099
11060,3281
10962,3517
10962,3773
11060,4010
11241,4191
11478,4289
11734,4289
11970,4191
12152,4010
12250,3773
12250,3517
12152,3281
11970,3099
11935,3085
11935,1647
11970,1632
12152,1451
12250,1214
12250,958
12152,721
12132,702
12416,702
12397,721
12299,958
12299,1214
12397,1451
12578,1632
12614,1647
12614,3085
12578,3099
12397,3281
12299,3517
12299,3773
12397,4010
12578,4191
12814,4289
13070,4289
13307,4191
13488,4010
13586,3773
13586,3517
13488,3281
13307,3099
13271,3085
13271,1647
13307,1632
13488,1451
13586,1214
13586,958
13488,721
13469,702
14188,702
14168,721
14070,958
14070,1214
14168,1451
14349,1632
14385,1647
14385,3085
14349,3099
14168,3281
14070,3517
14070,3773
14168,4010
14349,4191
14586,4289
14842,4289
15079,4191
15260,4010
15358,3773
15358,3517
15260,3281
15079,3099
15043,3085
15043,1647
15079,1632
15260,1451
15358,1214
15358,958
15260,721
15231,692
15534,692
15505,721
15407,958
15407,1214
15505,1451
15686,1632
15722,1647
15722,3085
15686,3099
15505,3281
15407,3517
15407,3773
15505,4010
15686,4191
15923,4289
16179,4289
16415,4191
16596,4010
16694,3773
16694,3517
16596,3281
16415,3099
16379,3085
16379,1647
16415,1632
16596,1451
16694,1214
16694,958
16596,721
16567,692
17306,692
17277,721
17179,958
17179,1214
17277,1451
17458,1632
17494,1647
17494,3085
17458,3099
17277,3281
17179,3517
17179,3773
17277,4010
17458,4191
17694,4289
17950,4289
18187,4191
18360,4018
18360,4128
18458,4364
18639,4545
18675,4560
18675,5269
18588,5356
16607,5356
16574,5349
16542,5356
16542,5356
16446,5375
16338,5447
16309,5435
16053,5435
15816,5533
15635,5714
15537,5950
15537,6206
15635,6443
15816,6624
16053,6722
16309,6722
16545,6624
16726,6443
16824,6206
16824,6013
18282,6013
17079,7216
16943,7080
16706,6982
16450,6982
16214,7080
16033,7261
15935,7497
15935,7754
16033,7990
16214,8171
16351,8228
16233,8277
16052,8458
15954,8694
15954,8950
16052,9187
16233,9368
16470,9466
16726,9466
16963,9368
17144,9187
17242,8950
17242,8694
17227,8658
19014,6872
23116,6872
23116,7143
23220,7394
23412,7586
23663,7690
23935,7690
24186,7586
24378,7394
24482,7143
24482,6872
24378,6620
24186,6428
23935,6324
23663,6324
23412,6428
23220,6620
23116,6872
19014,6872
21973,3912
22000,3894
22073,3785
22092,3689
22099,3657
22092,3624
22092,3578
22285,3578
22521,3480
22703,3299
22800,3063
22800,2807
22703,2570
22521,2389
22486,2374
22486,1842
23258,1842
23303,2070
23432,2264
23626,2393
23796,2427
23911,2427
24082,2393
24275,2264
24405,2070
24450,1842
24405,1614
24275,1421
24267,1415
24330,1389
24400,1318
24438,1226
24438,955
24376,892
23904,892
23904,900
23804,900
23804,892
23332,892
23269,955
23269,1226
23307,1318
23378,1389
23441,1415
23432,1421
23303,1614
23258,1842
22486,1842
22486,1628
22498,1610
22524,1477
22524,1250
22498,1117
22453,1051
22481,1023
22519,931
22519,787
22457,725
22132,725
22132,733
22032,733
22032,725
21708,725
21645,787
21645,931
21683,1023
21695,1035
21162,1035
21129,1028
21097,1035
21003,1054
20884,1054
20751,1080
20653,1146
20555,1080
20422,1054
20303,1054
20209,1035
20209,1035
20177,1028
20144,1035
19505,1035
19517,1023
19555,931
19555,787
19492,725
19168,725
19168,733
19068,733
19068,725
18743,725
18681,787
18681,931
18719,1023
18747,1051
18702,1117
18676,1250
18676,1477
18702,1610
18778,1723
18789,1731
18789,2419
18782,2452
18789,2484
18789,2484
18808,2580
18881,2689
18908,2707
19345,3144
19363,3172
19472,3244
19568,3263
19568,3263
19599,3269
19611,3299
19792,3480
19828,3495
19828,3904
19828,3904
19828,4467
19332,4963
19332,4560
19368,4545
19549,4364
19647,4128
19647,3871
19549,3635
19368,3454
19131,3356
18875,3356
18639,3454
18466,3627
18466,3517
18368,3281
18187,3099
18151,3085
18151,1647
18187,1632
18368,1451
18466,1214
18466,958
18368,721
18187,540
18157,528
18145,465
18132,401
18083,328
18718,328
18681,418
18681,562
18743,625
19068,625
19068,617
19168,617
19168,625
19492,625
19555,562
19555,418
19517,328
21682,328
21645,418
21645,562
21708,625
22032,625
22032,617
22132,617
22132,625
22457,625
22519,562
22519,418
22482,328
23345,328
23307,366
23269,458
23269,730
23332,792
23804,792
23804,784
23904,784
23904,792
24376,792
24438,730
24438,458
24431,440
24494,494
24572,614
24616,761
24617,772
24612,798
24612,12961
24616,12981
24602,13074
24543,13205
24450,13313
24329,13391
24183,13435
24172,13436
24146,13431
6664,13431
6642,13435
6394,13413
6104,13333
5833,13204
5590,13029
5381,12814
5213,12565
5093,12290
5022,11996
5003,11741
5003,8629
5009,8602
4987,8493
4925,8400
4872,8365
4872,4114
4925,4079
4987,3987
5009,3877
5003,3850
5003,2020
5031,1708
5110,1419
5240,1148
5415,904
5630,696
5879,528
5911,514
5848,667
5848,923
5863,959
5638,1184
5610,1202
5592,1229
5538,1311
5512,1439
5519,1471
5519,3452
5483,3467
5302,3648
5204,3885
5204,4141
5302,4377
5483,4559
5719,4657
5976,4657
6212,4559
6393,4377
6481,4165
6572,4202
6828,4202
6864,4187
6884,4208
6884,4208
8587,5910
8605,5937
8624,5950
7071,5950
7039,5944
7006,5950
7006,5950
6911,5969
6802,6042
6784,6069
6530,6323
6494,6309
6238,6309
6001,6407
5820,6588
5722,6824
5722,7080
5815,7305
5643,7305
5407,7403
5225,7584
5127,7820
5127,8076
5225,8313
5407,8494
5643,8592
5899,8592
6136,8494
6317,8313
6329,8283
6360,8277
6360,8277
6456,8258
6565,8185
6583,8158
6783,7958
8841,7958
8874,7965
8906,7958
8906,7958
9002,7939
9111,7866
9129,7839
9143,7825
9179,7840
9435,7840
9671,7742
9852,7561
9950,7324
9950,7068
9852,6832
9671,6651
9568,6608
9880,6608
9895,6644
10076,6825
10312,6923
10568,6923
10805,6825
10874,6756
10874,7648
10569,7953
10569,7953
10549,7973
10513,7958
10257,7958
10021,8056
9840,8237
9742,8474
9742,8730
9793,8854
9768,8849
9542,8849
9408,8875
9342,8920
9314,8892
9222,8854
9079,8854
9016,8916
9016,9241
9024,9241
9024,9341
9016,9341
9016,9349
8916,9349
8916,9341
8572,9341
8509,9403
8509,9528
8547,9619
8618,9690
8672,9712
8437,9712
8426,9657
8439,9588
8439,9470
8420,9372
8365,9290
8282,9234
8185,9215
7555,9215
7545,9217
7545,9190
7581,9175
7702,9054
8509,9054
8509,9178
8572,9241
8916,9241
8916,8916
8854,8854
8710,8854
8618,8892
8547,8962
8509,9054
7702,9054
7762,8994
7860,8757
7860,8501
7762,8265
7581,8084
7344,7986
7088,7986
6851,8084
6670,8265
6572,8501
6572,8757
6670,8994
6851,9175
6887,9190
6887,9220
6643,9220
6581,9282
6581,9471
6481,9471
6481,9282
6418,9220
6166,9220
6074,9258
6004,9328
5966,9420
5966,9437
6029,9500
6105,9500
6036,9546
6024,9563
5966,9621
5966,9638
5975,9658
5961,9726
5961,9844
5975,9913
5961,9982
5961,10100
5975,10169
5961,10238
5961,10356
5981,10453
6036,10536
6118,10591
6202,10608
6202,10656
6196,10688
6202,10721
6202,10721
6221,10817
6294,10925
6321,10944
6465,11087
6483,11114
6592,11187
6688,11206
6688,11206
6720,11213
6752,11206
8615,11206
8636,11237
8749,11313
8882,11339
9069,11339
9203,11313
9316,11237
9336,11206
9442,11206
9463,11237
9576,11313
9709,11339
9896,11339
10029,11313
10143,11237
10218,11124
10245,10991
10245,10900
10280,10865
18332,10865
18332,11082
18415,11283
18569,11436
18769,11519
18986,11519
19186,11436
19340,11283
19423,11082
19423,10865
21088,10865
21088,11082
21171,11283
21324,11436
21525,11519
21742,11519
21942,11436
22096,11283
22179,11082
22179,10865
22096,10665
21942,10512
21742,10429
21525,10429
21324,10512
21171,10665
21088,10865
19423,10865
19340,10665
19186,10512
18986,10429
18769,10429
18569,10512
18415,10665
18332,10865
10280,10865
10936,10209
11152,10120
11333,9939
11431,9702
11431,9446
11333,9210
11152,9029
10941,8942
11029,8730
11029,8474
11014,8438
11034,8418
11034,8418
11413,8040
11440,8021
11513,7912
11532,7817
11538,7784
11532,7752
11532,5564
11568,5549
11749,5368
11847,5132
11847,4875
11749,4639
11568,4458
11331,4360
11075,4360
10838,4458
10657,4639
10559,4875
10559,5132
10657,5368
10838,5549
10874,5564
10874,5803
10805,5733
10568,5635
10312,5635
10147,5704
10147,5572
10049,5336
9868,5155
9631,5057
9375,5057
9139,5155
8958,5336
8953,5347
7349,3743
7349,3743
7329,3722
7344,3687
7344,3431
7246,3194
7065,3013
6828,2915
6572,2915
6336,3013
6176,3172
6176,1575
6328,1424
6364,1438
6620,1438
6856,1340
7037,1159
7121,958
9190,958
9190,1214
9288,1451
9470,1632
9505,1647
9505,3085
9470,3099
9288,3281
9190,3517
9190,3773
9288,4010
9470,4191
9706,4289
9962,4289
10199,4191
10380,4010
10478,3773
10478,3517
10380,3281
10199,3099
10163,3085
10163,1647
10199,1632
10380,1451
10478,1214
10478,958
10380,721
10199,540
9962,442
9706,442
9470,540
9288,721
9190,958
7121,958
7135,923
7135,667
7037,430
6935,328
11287,328
11271,411
" /> 
</g>
<g style="fill:#FFFFFF; fill-opacity:1.0; 
stroke:#FFFFFF; stroke-width:100; stroke-opacity:1; 
stroke-linecap:round; stroke-linejoin:round;">
</g>
<g style="fill:#FFFFFF; fill-opacity:1.0; 
stroke:#FFFFFF; stroke-width:0; stroke-opacity:1; 
stroke-linecap:round; stroke-linejoin:round;">
<circle cx="16598.4" cy="8822.84" r="196.85" /> 
</g>
<g style="fill:#FFFFFF; fill-opacity:1.0; 
stroke:#FFFFFF; stroke-width:39.3701; stroke-opacity:1; 
stroke-linecap:round; stroke-linejoin:round;">
</g>
<g style="fill:#FFFFFF; fill-opacity:1.0; 
stroke:#FFFFFF; stroke-width:0; stroke-opacity:1; 
stroke-linecap:round; stroke-linejoin:round;">
<circle cx="16578.7" cy="7625.98" r="196.85" /> 
</g>
<g style="fill:#FFFFFF; fill-opacity:1.0; 
stroke:#FFFFFF; stroke-width:39.3701; stroke-opacity:1; 
stroke-linecap:round; stroke-linejoin:round;">
</g>
<g style="fill:#FFFFFF; fill-opacity:1.0; 
stroke:#FFFFFF; stroke-width:0; stroke-opacity:1; 
stroke-linecap:round; stroke-linejoin:round;">
<circle cx="5847.98" cy="4013.36" r="196.85" /> 
</g>
<g style="fill:#FFFFFF; fill-opacity:1.0; 
stroke:#FFFFFF; stroke-width:39.3701; stroke-opacity:1; 
stroke-linecap:round; stroke-linejoin:round;">
</g>
<g style="fill:#FFFFFF; fill-opacity:1.0; 
stroke:#FFFFFF; stroke-width:0; stroke-opacity:1; 
stroke-linecap:round; stroke-linejoin:round;">
<circle cx="6492.13" cy="795.276" r="196.85" /> 
</g>
<g style="fill:#FFFFFF; fill-opacity:1.0; 
stroke:#FFFFFF; stroke-width:39.3701; stroke-opacity:1; 
stroke-linecap:round; stroke-linejoin:round;">
</g>
<g style="fill:#FFFFFF; fill-opacity:1.0; 
stroke:#FFFFFF; stroke-width:0; stroke-opacity:1; 
stroke-linecap:round; stroke-linejoin:round;">
<circle cx="11830.7" cy="8779.53" r="196.85" /> 
</g>
<g style="fill:#FFFFFF; fill-opacity:1.0; 
stroke:#FFFFFF; stroke-width:39.3701; stroke-opacity:1; 
stroke-linecap:round; stroke-linejoin:round;">
</g>
<g style="fill:#FFFFFF; fill-opacity:1.0; 
stroke:#FFFFFF; stroke-width:0; stroke-opacity:1; 
stroke-linecap:round; stroke-linejoin:round;">
<circle cx="11090.6" cy="12027.6" r="196.85" /> 
</g>
<g style="fill:#FFFFFF; fill-opacity:1.0; 
stroke:#FFFFFF; stroke-width:39.3701; stroke-opacity:1; 
stroke-linecap:round; stroke-linejoin:round;">
</g>
<g style="fill:#FFFFFF; fill-opacity:1.0; 
stroke:#FFFFFF; stroke-width:0; stroke-opacity:1; 
stroke-linecap:round; stroke-linejoin:round;">
<circle cx="5531.5" cy="9055.12" r="196.85" /> 
</g>
<g style="fill:#FFFFFF; fill-opacity:1.0; 
stroke:#FFFFFF; stroke-width:39.3701; stroke-opacity:1; 
stroke-linecap:round; stroke-linejoin:round;">
</g>
<g style="fill:#FFFFFF; fill-opacity:1.0; 
stroke:#FFFFFF; stroke-width:0; stroke-opacity:1; 
stroke-linecap:round; stroke-linejoin:round;">
<circle cx="5158.28" cy="4317.66" r="196.85" /> 
</g>
<g style="fill:#FFFFFF; fill-opacity:1.0; 
stroke:#FFFFFF; stroke-width:39.3701; stroke-opacity:1; 
stroke-linecap:round; stroke-linejoin:round;">
</g>
<g style="fill:#FFFFFF; fill-opacity:1.0; 
stroke:#FFFFFF; stroke-width:0; stroke-opacity:1; 
stroke-linecap:round; stroke-linejoin:round;">
<circle cx="23720.5" cy="5039.37" r="196.85" /> 
</g>
<g style="fill:#FFFFFF; fill-opacity:1.0; 
stroke:#FFFFFF; stroke-width:39.3701; stroke-opacity:1; 
stroke-linecap:round; stroke-linejoin:round;">
</g>
<g style="fill:#FFFFFF; fill-opacity:1.0; 
stroke:#FFFFFF; stroke-width:0; stroke-opacity:1; 
stroke-linecap:round; stroke-linejoin:round;">
<circle cx="7216.54" cy="8629.92" r="196.85" /> 
</g>
<g style="fill:#FFFFFF; fill-opacity:1.0; 
stroke:#FFFFFF; stroke-width:39.3701; stroke-opacity:1; 
stroke-linecap:round; stroke-linejoin:round;">
</g>
<g style="fill:#FFFFFF; fill-opacity:1.0; 
stroke:#FFFFFF; stroke-width:0; stroke-opacity:1; 
stroke-linecap:round; stroke-linejoin:round;">
<circle cx="9307.09" cy="7196.85" r="196.85" /> 
</g>
<g style="fill:#FFFFFF; fill-opacity:1.0; 
stroke:#FFFFFF; stroke-width:39.3701; stroke-opacity:1; 
stroke-linecap:round; stroke-linejoin:round;">
</g>
<g style="fill:#FFFFFF; fill-opacity:1.0; 
stroke:#FFFFFF; stroke-width:0; stroke-opacity:1; 
stroke-linecap:round; stroke-linejoin:round;">
<circle cx="5771.65" cy="7948.82" r="196.85" /> 
</g>
<g style="fill:#FFFFFF; fill-opacity:1.0; 
stroke:#FFFFFF; stroke-width:39.3701; stroke-opacity:1; 
stroke-linecap:round; stroke-linejoin:round;">
</g>
<g style="fill:#FFFFFF; fill-opacity:1.0; 
stroke:#FFFFFF; stroke-width:0; stroke-opacity:1; 
stroke-linecap:round; stroke-linejoin:round;">
<circle cx="10787.4" cy="9574.8" r="196.85" /> 
</g>
<g style="fill:#FFFFFF; fill-opacity:1.0; 
stroke:#FFFFFF; stroke-width:39.3701; stroke-opacity:1; 
stroke-linecap:round; stroke-linejoin:round;">
</g>
<g style="fill:#FFFFFF; fill-opacity:1.0; 
stroke:#FFFFFF; stroke-width:0; stroke-opacity:1; 
stroke-linecap:round; stroke-linejoin:round;">
<circle cx="6366.14" cy="6952.76" r="196.85" /> 
</g>
<g style="fill:#FFFFFF; fill-opacity:1.0; 
stroke:#FFFFFF; stroke-width:39.3701; stroke-opacity:1; 
stroke-linecap:round; stroke-linejoin:round;">
</g>
<g style="fill:#FFFFFF; fill-opacity:1.0; 
stroke:#FFFFFF; stroke-width:0; stroke-opacity:1; 
stroke-linecap:round; stroke-linejoin:round;">
<circle cx="10440.9" cy="6279.53" r="196.85" /> 
</g>
<g style="fill:#FFFFFF; fill-opacity:1.0; 
stroke:#FFFFFF; stroke-width:39.3701; stroke-opacity:1; 
stroke-linecap:round; stroke-linejoin:round;">
</g>
<g style="fill:#FFFFFF; fill-opacity:1.0; 
stroke:#FFFFFF; stroke-width:0; stroke-opacity:1; 
stroke-linecap:round; stroke-linejoin:round;">
<circle cx="9503.94" cy="5700.79" r="196.85" /> 
</g>
<g style="fill:#FFFFFF; fill-opacity:1.0; 
stroke:#FFFFFF; stroke-width:39.3701; stroke-opacity:1; 
stroke-linecap:round; stroke-linejoin:round;">
</g>
<g style="fill:#FFFFFF; fill-opacity:1.0; 
stroke:#FFFFFF; stroke-width:0; stroke-opacity:1; 
stroke-linecap:round; stroke-linejoin:round;">
<circle cx="6700.79" cy="3559.06" r="196.85" /> 
</g>
<g style="fill:#FFFFFF; fill-opacity:1.0; 
stroke:#FFFFFF; stroke-width:39.3701; stroke-opacity:1; 
stroke-linecap:round; stroke-linejoin:round;">
</g>
<g style="fill:#FFFFFF; fill-opacity:1.0; 
stroke:#FFFFFF; stroke-width:0; stroke-opacity:1; 
stroke-linecap:round; stroke-linejoin:round;">
<circle cx="11203.5" cy="5003.99" r="196.85" /> 
</g>
<g style="fill:#FFFFFF; fill-opacity:1.0; 
stroke:#FFFFFF; stroke-width:39.3701; stroke-opacity:1; 
stroke-linecap:round; stroke-linejoin:round;">
</g>
<g style="fill:#FFFFFF; fill-opacity:1.0; 
stroke:#FFFFFF; stroke-width:0; stroke-opacity:1; 
stroke-linecap:round; stroke-linejoin:round;">
<circle cx="10385.8" cy="8602.36" r="196.85" /> 
</g>
<g style="fill:#FFFFFF; fill-opacity:1.0; 
stroke:#FFFFFF; stroke-width:39.3701; stroke-opacity:1; 
stroke-linecap:round; stroke-linejoin:round;">
</g>
<g style="fill:#FFFFFF; fill-opacity:1.0; 
stroke:#FFFFFF; stroke-width:0; stroke-opacity:1; 
stroke-linecap:round; stroke-linejoin:round;">
<circle cx="19003.9" cy="4000" r="196.85" /> 
</g>
<g style="fill:#FFFFFF; fill-opacity:1.0; 
stroke:#FFFFFF; stroke-width:39.3701; stroke-opacity:1; 
stroke-linecap:round; stroke-linejoin:round;">
</g>
<g style="fill:#FFFFFF; fill-opacity:1.0; 
stroke:#FFFFFF; stroke-width:0; stroke-opacity:1; 
stroke-linecap:round; stroke-linejoin:round;">
<circle cx="16181.1" cy="6078.74" r="196.85" /> 
</g>
<g style="fill:#FFFFFF; fill-opacity:1.0; 
stroke:#FFFFFF; stroke-width:39.3701; stroke-opacity:1; 
stroke-linecap:round; stroke-linejoin:round;">
</g>
<g style="fill:#FFFFFF; fill-opacity:1.0; 
stroke:#FFFFFF; stroke-width:0; stroke-opacity:1; 
stroke-linecap:round; stroke-linejoin:round;">
<circle cx="23799.2" cy="7007.87" r="433.071" /> 
</g>
<g style="fill:#FFFFFF; fill-opacity:1.0; 
stroke:#FFFFFF; stroke-width:39.3701; stroke-opacity:1; 
stroke-linecap:round; stroke-linejoin:round;">
</g>
<g style="fill:#FFFFFF; fill-opacity:1.0; 
stroke:#FFFFFF; stroke-width:0; stroke-opacity:1; 
stroke-linecap:round; stroke-linejoin:round;">
<circle cx="23854.3" cy="1842.52" r="196.85" /> 
</g>
<g style="fill:#FFFFFF; fill-opacity:1.0; 
stroke:#FFFFFF; stroke-width:39.3701; stroke-opacity:1; 
stroke-linecap:round; stroke-linejoin:round;">
</g>
<g style="fill:#FFFFFF; fill-opacity:1.0; 
stroke:#FFFFFF; stroke-width:0; stroke-opacity:1; 
stroke-linecap:round; stroke-linejoin:round;">
<circle cx="23854.3" cy="842.52" r="196.85" /> 
</g>
<g style="fill:#FFFFFF; fill-opacity:1.0; 
stroke:#FFFFFF; stroke-width:39.3701; stroke-opacity:1; 
stroke-linecap:round; stroke-linejoin:round;">
</g>
<g style="fill:#FFFFFF; fill-opacity:1.0; 
stroke:#FFFFFF; stroke-width:0; stroke-opacity:1; 
stroke-linecap:round; stroke-linejoin:round;">
<circle cx="40511.8" cy="8572.84" r="629.921" /> 
</g>
<g style="fill:#FFFFFF; fill-opacity:1.0; 
stroke:#FFFFFF; stroke-width:39.3701; stroke-opacity:1; 
stroke-linecap:round; stroke-linejoin:round;">
</g>
<g style="fill:#FFFFFF; fill-opacity:1.0; 
stroke:#FFFFFF; stroke-width:0; stroke-opacity:1; 
stroke-linecap:round; stroke-linejoin:round;">
<circle cx="40511.8" cy="6151.58" r="629.921" /> 
</g>
<g style="fill:#FFFFFF; fill-opacity:1.0; 
stroke:#FFFFFF; stroke-width:39.3701; stroke-opacity:1; 
stroke-linecap:round; stroke-linejoin:round;">
</g>
<g style="fill:#FFFFFF; fill-opacity:1.0; 
stroke:#FFFFFF; stroke-width:0; stroke-opacity:1; 
stroke-linecap:round; stroke-linejoin:round;">
<circle cx="38090.6" cy="8572.84" r="629.921" /> 
</g>
<g style="fill:#FFFFFF; fill-opacity:1.0; 
stroke:#FFFFFF; stroke-width:39.3701; stroke-opacity:1; 
stroke-linecap:round; stroke-linejoin:round;">
</g>
<g style="fill:#FFFFFF; fill-opacity:1.0; 
stroke:#FFFFFF; stroke-width:0; stroke-opacity:1; 
stroke-linecap:round; stroke-linejoin:round;">
<circle cx="17822.8" cy="3645.67" r="216.535" /> 
</g>
<g style="fill:#FFFFFF; fill-opacity:1.0; 
stroke:#FFFFFF; stroke-width:39.3701; stroke-opacity:1; 
stroke-linecap:round; stroke-linejoin:round;">
</g>
<g style="fill:#FFFFFF; fill-opacity:1.0; 
stroke:#FFFFFF; stroke-width:0; stroke-opacity:1; 
stroke-linecap:round; stroke-linejoin:round;">
<circle cx="16051.2" cy="3645.67" r="216.535" /> 
</g>
<g style="fill:#FFFFFF; fill-opacity:1.0; 
stroke:#FFFFFF; stroke-width:39.3701; stroke-opacity:1; 
stroke-linecap:round; stroke-linejoin:round;">
</g>
<g style="fill:#FFFFFF; fill-opacity:1.0; 
stroke:#FFFFFF; stroke-width:0; stroke-opacity:1; 
stroke-linecap:round; stroke-linejoin:round;">
<circle cx="17822.8" cy="1086.61" r="216.535" /> 
</g>
<g style="fill:#FFFFFF; fill-opacity:1.0; 
stroke:#FFFFFF; stroke-width:39.3701; stroke-opacity:1; 
stroke-linecap:round; stroke-linejoin:round;">
</g>
<g style="fill:#FFFFFF; fill-opacity:1.0; 
stroke:#FFFFFF; stroke-width:0; stroke-opacity:1; 
stroke-linecap:round; stroke-linejoin:round;">
<circle cx="16051.2" cy="1086.61" r="216.535" /> 
</g>
<g style="fill:#FFFFFF; fill-opacity:1.0; 
stroke:#FFFFFF; stroke-width:39.3701; stroke-opacity:1; 
stroke-linecap:round; stroke-linejoin:round;">
</g>
<g style="fill:#FFFFFF; fill-opacity:1.0; 
stroke:#FFFFFF; stroke-width:0; stroke-opacity:1; 
stroke-linecap:round; stroke-linejoin:round;">
<circle cx="12942.9" cy="1086.61" r="216.535" /> 
</g>
<g style="fill:#FFFFFF; fill-opacity:1.0; 
stroke:#FFFFFF; stroke-width:39.3701; stroke-opacity:1; 
stroke-linecap:round; stroke-linejoin:round;">
</g>
<g style="fill:#FFFFFF; fill-opacity:1.0; 
stroke:#FFFFFF; stroke-width:0; stroke-opacity:1; 
stroke-linecap:round; stroke-linejoin:round;">
<circle cx="14714.6" cy="1086.61" r="216.535" /> 
</g>
<g style="fill:#FFFFFF; fill-opacity:1.0; 
stroke:#FFFFFF; stroke-width:39.3701; stroke-opacity:1; 
stroke-linecap:round; stroke-linejoin:round;">
</g>
<g style="fill:#FFFFFF; fill-opacity:1.0; 
stroke:#FFFFFF; stroke-width:0; stroke-opacity:1; 
stroke-linecap:round; stroke-linejoin:round;">
<circle cx="12942.9" cy="3645.67" r="216.535" /> 
</g>
<g style="fill:#FFFFFF; fill-opacity:1.0; 
stroke:#FFFFFF; stroke-width:39.3701; stroke-opacity:1; 
stroke-linecap:round; stroke-linejoin:round;">
</g>
<g style="fill:#FFFFFF; fill-opacity:1.0; 
stroke:#FFFFFF; stroke-width:0; stroke-opacity:1; 
stroke-linecap:round; stroke-linejoin:round;">
<circle cx="14714.6" cy="3645.67" r="216.535" /> 
</g>
<g style="fill:#FFFFFF; fill-opacity:1.0; 
stroke:#FFFFFF; stroke-width:39.3701; stroke-opacity:1; 
stroke-linecap:round; stroke-linejoin:round;">
</g>
<g style="fill:#FFFFFF; fill-opacity:1.0; 
stroke:#FFFFFF; stroke-width:0; stroke-opacity:1; 
stroke-linecap:round; stroke-linejoin:round;">
<circle cx="11606.3" cy="3645.67" r="216.535" /> 
</g>
<g style="fill:#FFFFFF; fill-opacity:1.0; 
stroke:#FFFFFF; stroke-width:39.3701; stroke-opacity:1; 
stroke-linecap:round; stroke-linejoin:round;">
</g>
<g style="fill:#FFFFFF; fill-opacity:1.0; 
stroke:#FFFFFF; stroke-width:0; stroke-opacity:1; 
stroke-linecap:round; stroke-linejoin:round;">
<circle cx="9834.65" cy="3645.67" r="216.535" /> 
</g>
<g style="fill:#FFFFFF; fill-opacity:1.0; 
stroke:#FFFFFF; stroke-width:39.3701; stroke-opacity:1; 
stroke-linecap:round; stroke-linejoin:round;">
</g>
<g style="fill:#FFFFFF; fill-opacity:1.0; 
stroke:#FFFFFF; stroke-width:0; stroke-opacity:1; 
stroke-linecap:round; stroke-linejoin:round;">
<circle cx="11606.3" cy="1086.61" r="216.535" /> 
</g>
<g style="fill:#FFFFFF; fill-opacity:1.0; 
stroke:#FFFFFF; stroke-width:39.3701; stroke-opacity:1; 
stroke-linecap:round; stroke-linejoin:round;">
</g>
<g style="fill:#FFFFFF; fill-opacity:1.0; 
stroke:#FFFFFF; stroke-width:0; stroke-opacity:1; 
stroke-linecap:round; stroke-linejoin:round;">
<circle cx="9834.65" cy="1086.61" r="216.535" /> 
</g>
<g style="fill:#FFFFFF; fill-opacity:1.0; 
stroke:#FFFFFF; stroke-width:39.3701; stroke-opacity:1; 
stroke-linecap:round; stroke-linejoin:round;">
</g>
<g style="fill:#FFFFFF; fill-opacity:1.0; 
stroke:#FFFFFF; stroke-width:0; stroke-opacity:1; 
stroke-linecap:round; stroke-linejoin:round;">
<circle cx="21633.9" cy="10974.4" r="295.275" /> 
</g>
<g style="fill:#FFFFFF; fill-opacity:1.0; 
stroke:#FFFFFF; stroke-width:39.3701; stroke-opacity:1; 
stroke-linecap:round; stroke-linejoin:round;">
</g>
<g style="fill:#FFFFFF; fill-opacity:1.0; 
stroke:#FFFFFF; stroke-width:0; stroke-opacity:1; 
stroke-linecap:round; stroke-linejoin:round;">
<circle cx="18878" cy="10974.4" r="295.275" /> 
</g>
<g style="fill:#FFFFFF; fill-opacity:1.0; 
stroke:#FFFFFF; stroke-width:39.3701; stroke-opacity:1; 
stroke-linecap:round; stroke-linejoin:round;">
</g>
<g style="fill:#FFFFFF; fill-opacity:1.0; 
stroke:#FFFFFF; stroke-width:0; stroke-opacity:1; 
stroke-linecap:round; stroke-linejoin:round;">
<circle cx="20157.5" cy="2935.04" r="157.5" /> 
</g>
<g style="fill:#FFFFFF; fill-opacity:1.0; 
stroke:#FFFFFF; stroke-width:39.3701; stroke-opacity:1; 
stroke-linecap:round; stroke-linejoin:round;">
</g>
<g style="fill:#FFFFFF; fill-opacity:1.0; 
stroke:#FFFFFF; stroke-width:0; stroke-opacity:1; 
stroke-linecap:round; stroke-linejoin:round;">
<circle cx="22157.5" cy="2935.04" r="157.5" /> 
</g>
<g style="fill:#FFFFFF; fill-opacity:1.0; 
stroke:#FFFFFF; stroke-width:39.3701; stroke-opacity:1; 
stroke-linecap:round; stroke-linejoin:round;">
</g>
<g style="fill:#000000; fill-opacity:1.0; 
stroke:#000000; stroke-width:39.3701; stroke-opacity:1; 
stroke-linecap:round; stroke-linejoin:round;">
</g>
<g style="fill:#000000; fill-opacity:0.0; 
stroke:#000000; stroke-width:59.0551; stroke-opacity:1; 
stroke-linecap:round; stroke-linejoin:round;">
<path d="M24901.6 826.772 A787.402 787.402 0.0 0 0 24114.2 39.3705 " />
<path d="M24118.1 13720.5 A787.402 787.402 0.0 0 0 24905.5 12933.1 " />
<path d="M98 3877
L98 8602
" />
<path d="M4724.41 11752 A1968.5 1968.5 0.0 0 0 6692.91 13720.5 " />
<path d="M6692.91 39.3705 A1968.5 1968.5 0.0 0 0 4724.41 2007.87 " />
<path d="M4724 8602
L4724 11751
" />
<path d="M4724 3877
L4724 2007
" />
<path d="M98 8602
L4724 8602
" />
<path d="M98 3877
L4724 3877
" />
</g>
<g style="fill:#000000; fill-opacity:0.0; 
stroke:#000000; stroke-width:78.7402; stroke-opacity:1; 
stroke-linecap:round; stroke-linejoin:round;">
<path d="M6692 39
L24114 39
" />
<path d="M24901 826
L24901 12933
" />
<path d="M6692 13720
L24118 13720
" />
</g> 
</svg>
