<?xml version="1.0" standalone="no"?>
 <!DOCTYPE svg PUBLIC "-//W3C//DTD SVG 1.1//EN" 
 "http://www.w3.org/Graphics/SVG/1.1/DTD/svg11.dtd"> 
<svg xmlns="http://www.w3.org/2000/svg" version="1.1" 
    width="10.5969cm" height="3.4925cm" viewBox="0 0 41720 13750 ">
<title>SVG Picture created as USB-DAC-PCM2902-B.Cu.svg date 2018/11/24 16:42:02 </title>
  <desc>Picture generated by PCBNEW </desc>
<g style="fill:#000000; fill-opacity:1;stroke:#000000; stroke-opacity:1;
stroke-linecap:round; stroke-linejoin:round; "
 transform="translate(0 0) scale(1 1)">
</g>
<g style="fill:#000000; fill-opacity:0.0; 
stroke:#000000; stroke-width:-0.000393701; stroke-opacity:1; 
stroke-linecap:round; stroke-linejoin:round;">
</g>
<g style="fill:#000000; fill-opacity:0.0; 
stroke:#000000; stroke-width:669.291; stroke-opacity:1; 
stroke-linecap:round; stroke-linejoin:round;">
<path d="M23051 4444
L23051 4444
" />
</g>
<g style="fill:#000000; fill-opacity:0.0; 
stroke:#000000; stroke-width:0; stroke-opacity:1; 
stroke-linecap:round; stroke-linejoin:round;">
</g>
<g style="fill:#000000; fill-opacity:1.0; 
stroke:#000000; stroke-width:0; stroke-opacity:1; 
stroke-linecap:round; stroke-linejoin:round;">
<polyline style="fill-rule:evenodd;"
points="23385,5110
23385,5779
22716,5779
22716,5110
23385,5110
" /> 
<circle cx="10818.9" cy="3645.67" r="393.701" /> 
</g>
<g style="fill:#000000; fill-opacity:1.0; 
stroke:#000000; stroke-width:39.3701; stroke-opacity:1; 
stroke-linecap:round; stroke-linejoin:round;">
</g>
<g style="fill:#000000; fill-opacity:1.0; 
stroke:#000000; stroke-width:0; stroke-opacity:1; 
stroke-linecap:round; stroke-linejoin:round;">
<circle cx="9047.24" cy="3645.67" r="393.701" /> 
</g>
<g style="fill:#000000; fill-opacity:1.0; 
stroke:#000000; stroke-width:39.3701; stroke-opacity:1; 
stroke-linecap:round; stroke-linejoin:round;">
</g>
<g style="fill:#000000; fill-opacity:1.0; 
stroke:#000000; stroke-width:0; stroke-opacity:1; 
stroke-linecap:round; stroke-linejoin:round;">
<circle cx="10818.9" cy="1086.61" r="393.701" /> 
</g>
<g style="fill:#000000; fill-opacity:1.0; 
stroke:#000000; stroke-width:39.3701; stroke-opacity:1; 
stroke-linecap:round; stroke-linejoin:round;">
</g>
<g style="fill:#000000; fill-opacity:1.0; 
stroke:#000000; stroke-width:0; stroke-opacity:1; 
stroke-linecap:round; stroke-linejoin:round;">
<circle cx="9047.24" cy="1086.61" r="393.701" /> 
</g>
<g style="fill:#000000; fill-opacity:1.0; 
stroke:#000000; stroke-width:39.3701; stroke-opacity:1; 
stroke-linecap:round; stroke-linejoin:round;">
</g>
<g style="fill:#000000; fill-opacity:1.0; 
stroke:#000000; stroke-width:0; stroke-opacity:1; 
stroke-linecap:round; stroke-linejoin:round;">
<circle cx="12155.5" cy="1086.61" r="393.701" /> 
</g>
<g style="fill:#000000; fill-opacity:1.0; 
stroke:#000000; stroke-width:39.3701; stroke-opacity:1; 
stroke-linecap:round; stroke-linejoin:round;">
</g>
<g style="fill:#000000; fill-opacity:1.0; 
stroke:#000000; stroke-width:0; stroke-opacity:1; 
stroke-linecap:round; stroke-linejoin:round;">
<circle cx="13927.2" cy="1086.61" r="393.701" /> 
</g>
<g style="fill:#000000; fill-opacity:1.0; 
stroke:#000000; stroke-width:39.3701; stroke-opacity:1; 
stroke-linecap:round; stroke-linejoin:round;">
</g>
<g style="fill:#000000; fill-opacity:1.0; 
stroke:#000000; stroke-width:0; stroke-opacity:1; 
stroke-linecap:round; stroke-linejoin:round;">
<circle cx="12155.5" cy="3645.67" r="393.701" /> 
</g>
<g style="fill:#000000; fill-opacity:1.0; 
stroke:#000000; stroke-width:39.3701; stroke-opacity:1; 
stroke-linecap:round; stroke-linejoin:round;">
</g>
<g style="fill:#000000; fill-opacity:1.0; 
stroke:#000000; stroke-width:0; stroke-opacity:1; 
stroke-linecap:round; stroke-linejoin:round;">
<circle cx="13927.2" cy="3645.67" r="393.701" /> 
</g>
<g style="fill:#000000; fill-opacity:1.0; 
stroke:#000000; stroke-width:39.3701; stroke-opacity:1; 
stroke-linecap:round; stroke-linejoin:round;">
</g>
<g style="fill:#000000; fill-opacity:1.0; 
stroke:#000000; stroke-width:0; stroke-opacity:1; 
stroke-linecap:round; stroke-linejoin:round;">
<circle cx="17035.4" cy="3645.67" r="393.701" /> 
</g>
<g style="fill:#000000; fill-opacity:1.0; 
stroke:#000000; stroke-width:39.3701; stroke-opacity:1; 
stroke-linecap:round; stroke-linejoin:round;">
</g>
<g style="fill:#000000; fill-opacity:1.0; 
stroke:#000000; stroke-width:0; stroke-opacity:1; 
stroke-linecap:round; stroke-linejoin:round;">
<circle cx="15263.8" cy="3645.67" r="393.701" /> 
</g>
<g style="fill:#000000; fill-opacity:1.0; 
stroke:#000000; stroke-width:39.3701; stroke-opacity:1; 
stroke-linecap:round; stroke-linejoin:round;">
</g>
<g style="fill:#000000; fill-opacity:1.0; 
stroke:#000000; stroke-width:0; stroke-opacity:1; 
stroke-linecap:round; stroke-linejoin:round;">
<circle cx="17035.4" cy="1086.61" r="393.701" /> 
</g>
<g style="fill:#000000; fill-opacity:1.0; 
stroke:#000000; stroke-width:39.3701; stroke-opacity:1; 
stroke-linecap:round; stroke-linejoin:round;">
</g>
<g style="fill:#000000; fill-opacity:1.0; 
stroke:#000000; stroke-width:0; stroke-opacity:1; 
stroke-linecap:round; stroke-linejoin:round;">
<circle cx="15263.8" cy="1086.61" r="393.701" /> 
</g>
<g style="fill:#000000; fill-opacity:1.0; 
stroke:#000000; stroke-width:39.3701; stroke-opacity:1; 
stroke-linecap:round; stroke-linejoin:round;">
</g>
<g style="fill:#000000; fill-opacity:1.0; 
stroke:#000000; stroke-width:0; stroke-opacity:1; 
stroke-linecap:round; stroke-linejoin:round;">
<polyline style="fill-rule:evenodd;"
points="21397,468
21407,470
21415,472
21424,475
21432,479
21440,484
21448,489
21454,495
21461,502
21466,510
21471,517
21475,526
21478,534
21480,543
21481,552
21482,562
21482,788
21481,797
21480,806
21478,815
21475,824
21471,832
21466,840
21461,847
21454,854
21448,860
21440,866
21432,870
21424,874
21415,877
21407,880
21397,881
21388,881
21201,881
21192,881
21183,880
21174,877
21165,874
21157,870
21149,866
21142,860
21135,854
21129,847
21124,840
21119,832
21115,824
21112,815
21110,806
21108,797
21108,788
21108,562
21108,552
21110,543
21112,534
21115,526
21119,517
21124,510
21129,502
21135,495
21142,489
21149,484
21157,479
21165,475
21174,472
21183,470
21192,468
21201,468
21388,468
21397,468
" /> 
<polyline style="fill-rule:evenodd;"
points="21397,1157
21407,1159
21415,1161
21424,1164
21432,1168
21440,1173
21448,1178
21454,1184
21461,1191
21466,1199
21471,1206
21475,1215
21478,1223
21480,1232
21481,1241
21482,1250
21482,1477
21481,1486
21480,1495
21478,1504
21475,1513
21471,1521
21466,1529
21461,1536
21454,1543
21448,1549
21440,1555
21432,1559
21424,1563
21415,1566
21407,1569
21397,1570
21388,1570
21201,1570
21192,1570
21183,1569
21174,1566
21165,1563
21157,1559
21149,1555
21142,1549
21135,1543
21129,1536
21124,1529
21119,1521
21115,1513
21112,1504
21110,1495
21108,1486
21108,1477
21108,1250
21108,1241
21110,1232
21112,1223
21115,1215
21119,1206
21124,1199
21129,1191
21135,1184
21142,1178
21149,1173
21157,1168
21165,1164
21174,1161
21183,1159
21192,1157
21201,1157
21388,1157
21397,1157
" /> 
<polyline style="fill-rule:evenodd;"
points="18433,1157
18442,1159
18451,1161
18459,1164
18468,1168
18476,1173
18483,1178
18490,1184
18496,1191
18501,1199
18506,1206
18510,1215
18513,1223
18515,1232
18517,1241
18517,1250
18517,1477
18517,1486
18515,1495
18513,1504
18510,1513
18506,1521
18501,1529
18496,1536
18490,1543
18483,1549
18476,1555
18468,1559
18459,1563
18451,1566
18442,1569
18433,1570
18424,1570
18237,1570
18228,1570
18218,1569
18210,1566
18201,1563
18193,1559
18185,1555
18177,1549
18171,1543
18164,1536
18159,1529
18154,1521
18150,1513
18147,1504
18145,1495
18144,1486
18143,1477
18143,1250
18144,1241
18145,1232
18147,1223
18150,1215
18154,1206
18159,1199
18164,1191
18171,1184
18177,1178
18185,1173
18193,1168
18201,1164
18210,1161
18218,1159
18228,1157
18237,1157
18424,1157
18433,1157
" /> 
<polyline style="fill-rule:evenodd;"
points="18433,468
18442,470
18451,472
18459,475
18468,479
18476,484
18483,489
18490,495
18496,502
18501,510
18506,517
18510,526
18513,534
18515,543
18517,552
18517,562
18517,788
18517,797
18515,806
18513,815
18510,824
18506,832
18501,840
18496,847
18490,854
18483,860
18476,866
18468,870
18459,874
18451,877
18442,880
18433,881
18424,881
18237,881
18228,881
18218,880
18210,877
18201,874
18193,870
18185,866
18177,860
18171,854
18164,847
18159,840
18154,832
18150,824
18147,815
18145,806
18144,797
18143,788
18143,562
18144,552
18145,543
18147,534
18150,526
18154,517
18159,510
18164,502
18171,495
18177,489
18185,484
18193,479
18201,475
18210,472
18218,470
18228,468
18237,468
18424,468
18433,468
" /> 
<polyline style="fill-rule:evenodd;"
points="9118,10671
9127,10673
9136,10675
9145,10678
9153,10682
9161,10687
9168,10692
9175,10698
9181,10705
9186,10712
9191,10720
9195,10728
9198,10737
9200,10746
9202,10755
9202,10764
9202,10991
9202,11000
9200,11009
9198,11018
9195,11026
9191,11035
9186,11043
9181,11050
9175,11057
9168,11063
9161,11068
9153,11073
9145,11077
9136,11080
9127,11082
9118,11084
9109,11084
8922,11084
8913,11084
8904,11082
8895,11080
8886,11077
8878,11073
8870,11068
8862,11063
8856,11057
8849,11050
8844,11043
8839,11035
8835,11026
8832,11018
8830,11009
8829,11000
8828,10991
8828,10764
8829,10755
8830,10746
8832,10737
8835,10728
8839,10720
8844,10712
8849,10705
8856,10698
8862,10692
8870,10687
8878,10682
8886,10678
8895,10675
8904,10673
8913,10671
8922,10671
9109,10671
9118,10671
" /> 
<polyline style="fill-rule:evenodd;"
points="9118,9982
9127,9984
9136,9986
9145,9989
9153,9993
9161,9998
9168,10003
9175,10009
9181,10016
9186,10023
9191,10031
9195,10040
9198,10048
9200,10057
9202,10066
9202,10075
9202,10302
9202,10311
9200,10320
9198,10329
9195,10337
9191,10346
9186,10354
9181,10361
9175,10368
9168,10374
9161,10379
9153,10384
9145,10388
9136,10391
9127,10393
9118,10395
9109,10395
8922,10395
8913,10395
8904,10393
8895,10391
8886,10388
8878,10384
8870,10379
8862,10374
8856,10368
8849,10361
8844,10354
8839,10346
8835,10337
8832,10329
8830,10320
8829,10311
8828,10302
8828,10075
8829,10066
8830,10057
8832,10048
8835,10040
8839,10031
8844,10023
8849,10016
8856,10009
8862,10003
8870,9998
8878,9993
8886,9989
8895,9986
8904,9984
8913,9982
8922,9982
9109,9982
9118,9982
" /> 
<polyline style="fill-rule:evenodd;"
points="6059,10356
5429,10356
5429,10238
6059,10238
6059,10356
" /> 
<polyline style="fill-rule:evenodd;"
points="6059,10100
5429,10100
5429,9982
6059,9982
6059,10100
" /> 
<polyline style="fill-rule:evenodd;"
points="6059,9844
5429,9844
5429,9726
6059,9726
6059,9844
" /> 
<polyline style="fill-rule:evenodd;"
points="6059,9588
5429,9588
5429,9470
6059,9470
6059,9588
" /> 
<polyline style="fill-rule:evenodd;"
points="7397,9588
6767,9588
6767,9470
7397,9470
7397,9588
" /> 
<polyline style="fill-rule:evenodd;"
points="7397,9844
6767,9844
6767,9726
7397,9726
7397,9844
" /> 
<polyline style="fill-rule:evenodd;"
points="7397,10100
6767,10100
6767,9982
7397,9982
7397,10100
" /> 
<polyline style="fill-rule:evenodd;"
points="7397,10356
6767,10356
6767,10238
7397,10238
7397,10356
" /> 
<polyline style="fill-rule:evenodd;"
points="19644,1309
19653,1310
19661,1313
19670,1316
19678,1320
19686,1324
19694,1330
19700,1336
19707,1343
19712,1350
19717,1358
19721,1366
19724,1375
19726,1384
19727,1393
19728,1402
19728,1589
19727,1598
19726,1607
19724,1616
19721,1625
19717,1633
19712,1641
19707,1648
19700,1655
19694,1661
19686,1667
19678,1672
19670,1675
19661,1679
19653,1681
19644,1682
19634,1683
19408,1683
19399,1682
19390,1681
19381,1679
19372,1675
19364,1672
19356,1667
19349,1661
19342,1655
19336,1648
19330,1641
19326,1633
19322,1625
19318,1616
19316,1607
19315,1598
19314,1589
19314,1402
19315,1393
19316,1384
19318,1375
19322,1366
19326,1358
19330,1350
19336,1343
19342,1336
19349,1330
19356,1324
19364,1320
19372,1316
19381,1313
19390,1310
19399,1309
19408,1309
19634,1309
19644,1309
" /> 
<polyline style="fill-rule:evenodd;"
points="20332,1309
20342,1310
20350,1313
20359,1316
20367,1320
20375,1324
20383,1330
20389,1336
20396,1343
20401,1350
20406,1358
20410,1366
20413,1375
20415,1384
20416,1393
20417,1402
20417,1589
20416,1598
20415,1607
20413,1616
20410,1625
20406,1633
20401,1641
20396,1648
20389,1655
20383,1661
20375,1667
20367,1672
20359,1675
20350,1679
20342,1681
20332,1682
20323,1683
20097,1683
20088,1682
20079,1681
20070,1679
20061,1675
20053,1672
20045,1667
20038,1661
20031,1655
20025,1648
20019,1641
20014,1633
20011,1625
20007,1616
20005,1607
20004,1598
20003,1589
20003,1402
20004,1393
20005,1384
20007,1375
20011,1366
20014,1358
20019,1350
20025,1343
20031,1336
20038,1330
20045,1324
20053,1320
20061,1316
20070,1313
20079,1310
20088,1309
20097,1309
20323,1309
20332,1309
" /> 
<polyline style="fill-rule:evenodd;"
points="8291,9982
8300,9984
8309,9986
8318,9989
8326,9993
8334,9998
8341,10003
8348,10009
8354,10016
8360,10023
8364,10031
8368,10040
8371,10048
8374,10057
8375,10066
8375,10075
8375,10302
8375,10311
8374,10320
8371,10329
8368,10337
8364,10346
8360,10354
8354,10361
8348,10368
8341,10374
8334,10379
8326,10384
8318,10388
8309,10391
8300,10393
8291,10395
8282,10395
8095,10395
8086,10395
8077,10393
8068,10391
8059,10388
8051,10384
8043,10379
8036,10374
8029,10368
8023,10361
8017,10354
8013,10346
8009,10337
8005,10329
8003,10320
8002,10311
8001,10302
8001,10075
8002,10066
8003,10057
8005,10048
8009,10040
8013,10031
8017,10023
8023,10016
8029,10009
8036,10003
8043,9998
8051,9993
8059,9989
8068,9986
8077,9984
8086,9982
8095,9982
8282,9982
8291,9982
" /> 
<polyline style="fill-rule:evenodd;"
points="8291,10671
8300,10673
8309,10675
8318,10678
8326,10682
8334,10687
8341,10692
8348,10698
8354,10705
8360,10712
8364,10720
8368,10728
8371,10737
8374,10746
8375,10755
8375,10764
8375,10991
8375,11000
8374,11009
8371,11018
8368,11026
8364,11035
8360,11043
8354,11050
8348,11057
8341,11063
8334,11068
8326,11073
8318,11077
8309,11080
8300,11082
8291,11084
8282,11084
8095,11084
8086,11084
8077,11082
8068,11080
8059,11077
8051,11073
8043,11068
8036,11063
8029,11057
8023,11050
8017,11043
8013,11035
8009,11026
8005,11018
8003,11009
8002,11000
8001,10991
8001,10764
8002,10755
8003,10746
8005,10737
8009,10728
8013,10720
8017,10712
8023,10705
8029,10698
8036,10692
8043,10687
8051,10682
8059,10678
8068,10675
8077,10673
8086,10671
8095,10671
8282,10671
8291,10671
" /> 
<polyline style="fill-rule:evenodd;"
points="7708,8732
7718,8734
7726,8736
7735,8739
7743,8743
7751,8748
7759,8753
7765,8759
7772,8766
7777,8773
7782,8781
7786,8790
7789,8798
7791,8807
7792,8816
7793,8825
7793,9052
7792,9061
7791,9070
7789,9079
7786,9087
7782,9096
7777,9104
7772,9111
7765,9118
7759,9124
7751,9129
7743,9134
7735,9138
7726,9141
7718,9143
7708,9145
7699,9145
7512,9145
7503,9145
7494,9143
7485,9141
7477,9138
7468,9134
7460,9129
7453,9124
7446,9118
7440,9111
7435,9104
7430,9096
7426,9087
7423,9079
7421,9070
7419,9061
7419,9052
7419,8825
7419,8816
7421,8807
7423,8798
7426,8790
7430,8781
7435,8773
7440,8766
7446,8759
7453,8753
7460,8748
7468,8743
7477,8739
7485,8736
7494,8734
7503,8732
7512,8732
7699,8732
7708,8732
" /> 
<polyline style="fill-rule:evenodd;"
points="7708,8043
7718,8045
7726,8047
7735,8050
7743,8054
7751,8059
7759,8064
7765,8070
7772,8077
7777,8084
7782,8092
7786,8101
7789,8109
7791,8118
7792,8127
7793,8136
7793,8363
7792,8372
7791,8381
7789,8390
7786,8398
7782,8407
7777,8415
7772,8422
7765,8429
7759,8435
7751,8440
7743,8445
7735,8449
7726,8452
7718,8454
7708,8456
7699,8456
7512,8456
7503,8456
7494,8454
7485,8452
7477,8449
7468,8445
7460,8440
7453,8435
7446,8429
7440,8422
7435,8415
7430,8407
7426,8398
7423,8390
7421,8381
7419,8372
7419,8363
7419,8136
7419,8127
7421,8118
7423,8109
7426,8101
7430,8092
7435,8084
7440,8077
7446,8070
7453,8064
7460,8059
7468,8054
7477,8050
7485,8047
7494,8045
7503,8043
7512,8043
7699,8043
7708,8043
" /> 
<circle cx="19370.1" cy="2935.04" r="393.5" /> 
</g>
<g style="fill:#000000; fill-opacity:1.0; 
stroke:#000000; stroke-width:39.3701; stroke-opacity:1; 
stroke-linecap:round; stroke-linejoin:round;">
</g>
<g style="fill:#000000; fill-opacity:1.0; 
stroke:#000000; stroke-width:0; stroke-opacity:1; 
stroke-linecap:round; stroke-linejoin:round;">
<circle cx="21370.1" cy="2935.04" r="393.5" /> 
</g>
<g style="fill:#000000; fill-opacity:1.0; 
stroke:#000000; stroke-width:39.3701; stroke-opacity:1; 
stroke-linecap:round; stroke-linejoin:round;">
</g>
<g style="fill:#000000; fill-opacity:1.0; 
stroke:#000000; stroke-width:0; stroke-opacity:1; 
stroke-linecap:round; stroke-linejoin:round;">
<circle cx="15732.3" cy="8834.65" r="295.276" /> 
</g>
<g style="fill:#000000; fill-opacity:1.0; 
stroke:#000000; stroke-width:39.3701; stroke-opacity:1; 
stroke-linecap:round; stroke-linejoin:round;">
</g>
<g style="fill:#000000; fill-opacity:1.0; 
stroke:#000000; stroke-width:0; stroke-opacity:1; 
stroke-linecap:round; stroke-linejoin:round;">
<circle cx="15732.3" cy="7949.8" r="295.276" /> 
</g>
<g style="fill:#000000; fill-opacity:1.0; 
stroke:#000000; stroke-width:39.3701; stroke-opacity:1; 
stroke-linecap:round; stroke-linejoin:round;">
</g>
<g style="fill:#000000; fill-opacity:1.0; 
stroke:#000000; stroke-width:0; stroke-opacity:1; 
stroke-linecap:round; stroke-linejoin:round;">
<circle cx="5271.65" cy="4070.87" r="295.276" /> 
</g>
<g style="fill:#000000; fill-opacity:1.0; 
stroke:#000000; stroke-width:39.3701; stroke-opacity:1; 
stroke-linecap:round; stroke-linejoin:round;">
</g>
<g style="fill:#000000; fill-opacity:1.0; 
stroke:#000000; stroke-width:0; stroke-opacity:1; 
stroke-linecap:round; stroke-linejoin:round;">
<circle cx="6724.41" cy="1803.15" r="295.276" /> 
</g>
<g style="fill:#000000; fill-opacity:1.0; 
stroke:#000000; stroke-width:39.3701; stroke-opacity:1; 
stroke-linecap:round; stroke-linejoin:round;">
</g>
<g style="fill:#000000; fill-opacity:1.0; 
stroke:#000000; stroke-width:0; stroke-opacity:1; 
stroke-linecap:round; stroke-linejoin:round;">
<circle cx="22381.9" cy="6850.39" r="295.276" /> 
</g>
<g style="fill:#000000; fill-opacity:1.0; 
stroke:#000000; stroke-width:39.3701; stroke-opacity:1; 
stroke-linecap:round; stroke-linejoin:round;">
</g>
<g style="fill:#000000; fill-opacity:1.0; 
stroke:#000000; stroke-width:0; stroke-opacity:1; 
stroke-linecap:round; stroke-linejoin:round;">
<circle cx="4529.53" cy="4346.46" r="295.276" /> 
</g>
<g style="fill:#000000; fill-opacity:1.0; 
stroke:#000000; stroke-width:39.3701; stroke-opacity:1; 
stroke-linecap:round; stroke-linejoin:round;">
</g>
<g style="fill:#000000; fill-opacity:1.0; 
stroke:#000000; stroke-width:0; stroke-opacity:1; 
stroke-linecap:round; stroke-linejoin:round;">
<circle cx="5236.22" cy="8322.84" r="295.276" /> 
</g>
<g style="fill:#000000; fill-opacity:1.0; 
stroke:#000000; stroke-width:39.3701; stroke-opacity:1; 
stroke-linecap:round; stroke-linejoin:round;">
</g>
<g style="fill:#000000; fill-opacity:1.0; 
stroke:#000000; stroke-width:0; stroke-opacity:1; 
stroke-linecap:round; stroke-linejoin:round;">
<circle cx="6429.13" cy="8629.92" r="295.276" /> 
</g>
<g style="fill:#000000; fill-opacity:1.0; 
stroke:#000000; stroke-width:39.3701; stroke-opacity:1; 
stroke-linecap:round; stroke-linejoin:round;">
</g>
<g style="fill:#000000; fill-opacity:1.0; 
stroke:#000000; stroke-width:0; stroke-opacity:1; 
stroke-linecap:round; stroke-linejoin:round;">
<circle cx="5019.69" cy="7192.91" r="295.276" /> 
</g>
<g style="fill:#000000; fill-opacity:1.0; 
stroke:#000000; stroke-width:39.3701; stroke-opacity:1; 
stroke-linecap:round; stroke-linejoin:round;">
</g>
<g style="fill:#000000; fill-opacity:1.0; 
stroke:#000000; stroke-width:0; stroke-opacity:1; 
stroke-linecap:round; stroke-linejoin:round;">
<circle cx="7428.12" cy="7512.41" r="295.276" /> 
</g>
<g style="fill:#000000; fill-opacity:1.0; 
stroke:#000000; stroke-width:39.3701; stroke-opacity:1; 
stroke-linecap:round; stroke-linejoin:round;">
</g>
<g style="fill:#000000; fill-opacity:1.0; 
stroke:#000000; stroke-width:0; stroke-opacity:1; 
stroke-linecap:round; stroke-linejoin:round;">
<circle cx="6466.54" cy="7253.94" r="295.276" /> 
</g>
<g style="fill:#000000; fill-opacity:1.0; 
stroke:#000000; stroke-width:39.3701; stroke-opacity:1; 
stroke-linecap:round; stroke-linejoin:round;">
</g>
<g style="fill:#000000; fill-opacity:1.0; 
stroke:#000000; stroke-width:0; stroke-opacity:1; 
stroke-linecap:round; stroke-linejoin:round;">
<circle cx="6669.29" cy="4086.61" r="295.276" /> 
</g>
<g style="fill:#000000; fill-opacity:1.0; 
stroke:#000000; stroke-width:39.3701; stroke-opacity:1; 
stroke-linecap:round; stroke-linejoin:round;">
</g>
<g style="fill:#000000; fill-opacity:1.0; 
stroke:#000000; stroke-width:0; stroke-opacity:1; 
stroke-linecap:round; stroke-linejoin:round;">
<circle cx="9000.75" cy="5200.56" r="295.276" /> 
</g>
<g style="fill:#000000; fill-opacity:1.0; 
stroke:#000000; stroke-width:39.3701; stroke-opacity:1; 
stroke-linecap:round; stroke-linejoin:round;">
</g>
<g style="fill:#000000; fill-opacity:1.0; 
stroke:#000000; stroke-width:0; stroke-opacity:1; 
stroke-linecap:round; stroke-linejoin:round;">
<circle cx="7614.17" cy="6523.62" r="295.276" /> 
</g>
<g style="fill:#000000; fill-opacity:1.0; 
stroke:#000000; stroke-width:39.3701; stroke-opacity:1; 
stroke-linecap:round; stroke-linejoin:round;">
</g>
<g style="fill:#000000; fill-opacity:1.0; 
stroke:#000000; stroke-width:0; stroke-opacity:1; 
stroke-linecap:round; stroke-linejoin:round;">
<circle cx="10614.2" cy="8263.78" r="295.276" /> 
</g>
<g style="fill:#000000; fill-opacity:1.0; 
stroke:#000000; stroke-width:39.3701; stroke-opacity:1; 
stroke-linecap:round; stroke-linejoin:round;">
</g>
<g style="fill:#000000; fill-opacity:1.0; 
stroke:#000000; stroke-width:0; stroke-opacity:1; 
stroke-linecap:round; stroke-linejoin:round;">
<circle cx="10303.1" cy="12027.6" r="295.276" /> 
</g>
<g style="fill:#000000; fill-opacity:1.0; 
stroke:#000000; stroke-width:39.3701; stroke-opacity:1; 
stroke-linecap:round; stroke-linejoin:round;">
</g>
<g style="fill:#000000; fill-opacity:1.0; 
stroke:#000000; stroke-width:0; stroke-opacity:1; 
stroke-linecap:round; stroke-linejoin:round;">
<circle cx="9014.34" cy="6271.75" r="295.276" /> 
</g>
<g style="fill:#000000; fill-opacity:1.0; 
stroke:#000000; stroke-width:39.3701; stroke-opacity:1; 
stroke-linecap:round; stroke-linejoin:round;">
</g>
<g style="fill:#000000; fill-opacity:1.0; 
stroke:#000000; stroke-width:0; stroke-opacity:1; 
stroke-linecap:round; stroke-linejoin:round;">
<circle cx="9669.29" cy="5881.89" r="295.276" /> 
</g>
<g style="fill:#000000; fill-opacity:1.0; 
stroke:#000000; stroke-width:39.3701; stroke-opacity:1; 
stroke-linecap:round; stroke-linejoin:round;">
</g>
<g style="fill:#000000; fill-opacity:1.0; 
stroke:#000000; stroke-width:0; stroke-opacity:1; 
stroke-linecap:round; stroke-linejoin:round;">
<circle cx="10307.9" cy="5047.99" r="295.276" /> 
</g>
<g style="fill:#000000; fill-opacity:1.0; 
stroke:#000000; stroke-width:39.3701; stroke-opacity:1; 
stroke-linecap:round; stroke-linejoin:round;">
</g>
<g style="fill:#000000; fill-opacity:1.0; 
stroke:#000000; stroke-width:0; stroke-opacity:1; 
stroke-linecap:round; stroke-linejoin:round;">
<circle cx="15732.3" cy="7064.96" r="295.276" /> 
</g>
<g style="fill:#000000; fill-opacity:1.0; 
stroke:#000000; stroke-width:39.3701; stroke-opacity:1; 
stroke-linecap:round; stroke-linejoin:round;">
</g>
<g style="fill:#000000; fill-opacity:1.0; 
stroke:#000000; stroke-width:0; stroke-opacity:1; 
stroke-linecap:round; stroke-linejoin:round;">
<circle cx="15732.3" cy="5295.28" r="295.276" /> 
</g>
<g style="fill:#000000; fill-opacity:1.0; 
stroke:#000000; stroke-width:39.3701; stroke-opacity:1; 
stroke-linecap:round; stroke-linejoin:round;">
</g>
<g style="fill:#000000; fill-opacity:1.0; 
stroke:#000000; stroke-width:0; stroke-opacity:1; 
stroke-linecap:round; stroke-linejoin:round;">
<circle cx="15732.3" cy="6180.12" r="295.276" /> 
</g>
<g style="fill:#000000; fill-opacity:1.0; 
stroke:#000000; stroke-width:39.3701; stroke-opacity:1; 
stroke-linecap:round; stroke-linejoin:round;">
</g>
<g style="fill:#000000; fill-opacity:1.0; 
stroke:#000000; stroke-width:0; stroke-opacity:1; 
stroke-linecap:round; stroke-linejoin:round;">
<circle cx="18216.5" cy="4000" r="295.276" /> 
</g>
<g style="fill:#000000; fill-opacity:1.0; 
stroke:#000000; stroke-width:39.3701; stroke-opacity:1; 
stroke-linecap:round; stroke-linejoin:round;">
</g>
<g style="fill:#000000; fill-opacity:1.0; 
stroke:#000000; stroke-width:98.4252; stroke-opacity:1; 
stroke-linecap:round; stroke-linejoin:round;">
</g>
<g style="fill:#000000; fill-opacity:0.0; 
stroke:#000000; stroke-width:98.4252; stroke-opacity:1; 
stroke-linecap:round; stroke-linejoin:round;">
<path d="M20813 2935
L19940 3807
" />
<path d="M21370 2935
L20813 2935
" />
<path d="M19940 3807
L19940 7350
" />
<path d="M18456 8834
L17051 8834
" />
<path d="M19940 7350
L18456 8834
" />
<path d="M15732 8834
L17051 8834
" />
<path d="M21370 1438
L21295 1364
" />
<path d="M21370 2935
L21370 1438
" />
<path d="M20342 1364
L20210 1496
" />
<path d="M21295 1364
L20342 1364
" />
<path d="M19370 7170
L18590 7949
" />
<path d="M19370 2935
L19370 7170
" />
<path d="M18590 7949
L15732 7949
" />
<path d="M18330 2452
L18330 1364
" />
<path d="M19370 2935
L18813 2935
" />
<path d="M18813 2935
L18330 2452
" />
<path d="M19389 1364
L19521 1496
" />
<path d="M18330 1364
L19389 1364
" />
<path d="M5271 3255
L6429 2098
" />
<path d="M6429 2098
L6724 1803
" />
<path d="M5271 4070
L5271 3255
" />
<path d="M4940 8027
L5236 8322
" />
<path d="M4529 4346
L4529 7616
" />
<path d="M5744 9529
L5744 8830
" />
<path d="M5744 8830
L4885 7972
" />
<path d="M4529 7616
L4885 7972
" />
<path d="M4885 7972
L4940 8027
" />
<path d="M6186 8143
L5744 8586
" />
<path d="M5744 8586
L5744 8830
" />
<path d="M7273 8143
L6186 8143
" />
<path d="M7379 8250
L7273 8143
" />
<path d="M7606 8250
L7379 8250
" />
<path d="M6669 10297
L7082 10297
" />
<path d="M6429 10057
L6669 10297
" />
<path d="M6429 8629
L6429 10057
" />
<path d="M8041 10041
L8188 10188
" />
<path d="M7082 10041
L8041 10041
" />
<path d="M8188 10188
L9015 10188
" />
<path d="M9015 9370
L9015 10188
" />
<path d="M8584 8938
L9015 9370
" />
<path d="M7606 8938
L8584 8938
" />
<path d="M9015 10877
L8188 10877
" />
<path d="M8188 10877
L5933 10877
" />
<path d="M5744 10688
L5744 10297
" />
<path d="M5933 10877
L5744 10688
" />
<path d="M7723 7807
L7428 7512
" />
<path d="M9374 9458
L7723 7807
" />
<path d="M9374 10519
L9374 9458
" />
<path d="M9015 10877
L9374 10519
" />
<path d="M8705 4905
L9000 5200
" />
<path d="M7886 4086
L8705 4905
" />
<path d="M6669 4086
L7886 4086
" />
<path d="M15263 1086
L15263 3645
" />
<path d="M12155 1086
L12155 3645
" />
<path d="M9047 1086
L9047 3645
" />
<path d="M10818 3645
L10818 1086
" />
<path d="M13927 1086
L13927 3645
" />
<path d="M17035 3645
L17035 1086
" />
<path d="M17035 529
L17035 1086
" />
<path d="M14092 364
L16869 364
" />
<path d="M13927 529
L14092 364
" />
<path d="M16869 364
L17035 529
" />
<path d="M13927 1086
L13927 529
" />
<path d="M10818 1086
L10818 411
" />
<path d="M10818 411
L10856 374
" />
<path d="M13771 374
L13927 529
" />
<path d="M10856 374
L13771 374
" />
<path d="M10614 8263
L10429 8448
" />
<path d="M10429 11901
L10303 12027
" />
<path d="M10429 8448
L10429 11901
" />
<path d="M18557 675
L21295 675
" />
<path d="M18330 675
L18557 675
" />
<path d="M22708 6523
L23196 6523
" />
<path d="M22708 6523
L22381 6850
" />
<path d="M23196 6523
L23767 5952
" />
<path d="M23767 5952
L23767 1196
" />
<path d="M23246 675
L21952 675
" />
<path d="M23767 1196
L23246 675
" />
<path d="M21295 675
L21952 675
" />
<path d="M5749 7922
L6407 7922
" />
<path d="M8719 5976
L9014 6271
" />
<path d="M7534 5976
L8719 5976
" />
<path d="M7190 6320
L7534 5976
" />
<path d="M5019 7192
L5749 7922
" />
<path d="M6407 7922
L7190 7139
" />
<path d="M7190 7139
L7190 6320
" />
<path d="M6466 6794
L7634 5625
" />
<path d="M8995 5625
L9251 5881
" />
<path d="M7634 5625
L8995 5625
" />
<path d="M6466 7253
L6466 6794
" />
<path d="M9251 5881
L9669 5881
" />
<path d="M10774 6749
L10774 5514
" />
<path d="M10774 5514
L10603 5343
" />
<path d="M10704 6818
L10774 6749
" />
<path d="M7909 6818
L10704 6818
" />
<path d="M10603 5343
L10307 5047
" />
<path d="M7614 6523
L7909 6818
" />
<path d="M15188 5838
L15732 5295
" />
<path d="M15188 6521
L15732 7064
" />
<path d="M15188 5929
L15188 6521
" />
<path d="M15188 5929
L15188 5838
" />
<path d="M16115 6101
L17921 4295
" />
<path d="M17921 4295
L18216 4000
" />
<path d="M15677 6101
L16115 6101
" />
</g>
<g style="fill:#FFFFFF; fill-opacity:0.0; 
stroke:#FFFFFF; stroke-width:98.4252; stroke-opacity:1; 
stroke-linecap:round; stroke-linejoin:round;">
</g>
<g style="fill:#FFFFFF; fill-opacity:1.0; 
stroke:#FFFFFF; stroke-width:0; stroke-opacity:1; 
stroke-linecap:round; stroke-linejoin:round;">
<circle cx="15732.3" cy="8834.65" r="196.85" /> 
</g>
<g style="fill:#FFFFFF; fill-opacity:1.0; 
stroke:#FFFFFF; stroke-width:39.3701; stroke-opacity:1; 
stroke-linecap:round; stroke-linejoin:round;">
</g>
<g style="fill:#FFFFFF; fill-opacity:1.0; 
stroke:#FFFFFF; stroke-width:0; stroke-opacity:1; 
stroke-linecap:round; stroke-linejoin:round;">
<circle cx="15732.3" cy="7949.8" r="196.85" /> 
</g>
<g style="fill:#FFFFFF; fill-opacity:1.0; 
stroke:#FFFFFF; stroke-width:39.3701; stroke-opacity:1; 
stroke-linecap:round; stroke-linejoin:round;">
</g>
<g style="fill:#FFFFFF; fill-opacity:1.0; 
stroke:#FFFFFF; stroke-width:0; stroke-opacity:1; 
stroke-linecap:round; stroke-linejoin:round;">
<circle cx="5271.65" cy="4070.87" r="196.85" /> 
</g>
<g style="fill:#FFFFFF; fill-opacity:1.0; 
stroke:#FFFFFF; stroke-width:39.3701; stroke-opacity:1; 
stroke-linecap:round; stroke-linejoin:round;">
</g>
<g style="fill:#FFFFFF; fill-opacity:1.0; 
stroke:#FFFFFF; stroke-width:0; stroke-opacity:1; 
stroke-linecap:round; stroke-linejoin:round;">
<circle cx="6724.41" cy="1803.15" r="196.85" /> 
</g>
<g style="fill:#FFFFFF; fill-opacity:1.0; 
stroke:#FFFFFF; stroke-width:39.3701; stroke-opacity:1; 
stroke-linecap:round; stroke-linejoin:round;">
</g>
<g style="fill:#FFFFFF; fill-opacity:1.0; 
stroke:#FFFFFF; stroke-width:0; stroke-opacity:1; 
stroke-linecap:round; stroke-linejoin:round;">
<circle cx="22381.9" cy="6850.39" r="196.85" /> 
</g>
<g style="fill:#FFFFFF; fill-opacity:1.0; 
stroke:#FFFFFF; stroke-width:39.3701; stroke-opacity:1; 
stroke-linecap:round; stroke-linejoin:round;">
</g>
<g style="fill:#FFFFFF; fill-opacity:1.0; 
stroke:#FFFFFF; stroke-width:0; stroke-opacity:1; 
stroke-linecap:round; stroke-linejoin:round;">
<circle cx="4529.53" cy="4346.46" r="196.85" /> 
</g>
<g style="fill:#FFFFFF; fill-opacity:1.0; 
stroke:#FFFFFF; stroke-width:39.3701; stroke-opacity:1; 
stroke-linecap:round; stroke-linejoin:round;">
</g>
<g style="fill:#FFFFFF; fill-opacity:1.0; 
stroke:#FFFFFF; stroke-width:0; stroke-opacity:1; 
stroke-linecap:round; stroke-linejoin:round;">
<circle cx="5236.22" cy="8322.84" r="196.85" /> 
</g>
<g style="fill:#FFFFFF; fill-opacity:1.0; 
stroke:#FFFFFF; stroke-width:39.3701; stroke-opacity:1; 
stroke-linecap:round; stroke-linejoin:round;">
</g>
<g style="fill:#FFFFFF; fill-opacity:1.0; 
stroke:#FFFFFF; stroke-width:0; stroke-opacity:1; 
stroke-linecap:round; stroke-linejoin:round;">
<circle cx="6429.13" cy="8629.92" r="196.85" /> 
</g>
<g style="fill:#FFFFFF; fill-opacity:1.0; 
stroke:#FFFFFF; stroke-width:39.3701; stroke-opacity:1; 
stroke-linecap:round; stroke-linejoin:round;">
</g>
<g style="fill:#FFFFFF; fill-opacity:1.0; 
stroke:#FFFFFF; stroke-width:0; stroke-opacity:1; 
stroke-linecap:round; stroke-linejoin:round;">
<circle cx="5019.69" cy="7192.91" r="196.85" /> 
</g>
<g style="fill:#FFFFFF; fill-opacity:1.0; 
stroke:#FFFFFF; stroke-width:39.3701; stroke-opacity:1; 
stroke-linecap:round; stroke-linejoin:round;">
</g>
<g style="fill:#FFFFFF; fill-opacity:1.0; 
stroke:#FFFFFF; stroke-width:0; stroke-opacity:1; 
stroke-linecap:round; stroke-linejoin:round;">
<circle cx="7428.12" cy="7512.41" r="196.85" /> 
</g>
<g style="fill:#FFFFFF; fill-opacity:1.0; 
stroke:#FFFFFF; stroke-width:39.3701; stroke-opacity:1; 
stroke-linecap:round; stroke-linejoin:round;">
</g>
<g style="fill:#FFFFFF; fill-opacity:1.0; 
stroke:#FFFFFF; stroke-width:0; stroke-opacity:1; 
stroke-linecap:round; stroke-linejoin:round;">
<circle cx="6466.54" cy="7253.94" r="196.85" /> 
</g>
<g style="fill:#FFFFFF; fill-opacity:1.0; 
stroke:#FFFFFF; stroke-width:39.3701; stroke-opacity:1; 
stroke-linecap:round; stroke-linejoin:round;">
</g>
<g style="fill:#FFFFFF; fill-opacity:1.0; 
stroke:#FFFFFF; stroke-width:0; stroke-opacity:1; 
stroke-linecap:round; stroke-linejoin:round;">
<circle cx="6669.29" cy="4086.61" r="196.85" /> 
</g>
<g style="fill:#FFFFFF; fill-opacity:1.0; 
stroke:#FFFFFF; stroke-width:39.3701; stroke-opacity:1; 
stroke-linecap:round; stroke-linejoin:round;">
</g>
<g style="fill:#FFFFFF; fill-opacity:1.0; 
stroke:#FFFFFF; stroke-width:0; stroke-opacity:1; 
stroke-linecap:round; stroke-linejoin:round;">
<circle cx="9000.75" cy="5200.56" r="196.85" /> 
</g>
<g style="fill:#FFFFFF; fill-opacity:1.0; 
stroke:#FFFFFF; stroke-width:39.3701; stroke-opacity:1; 
stroke-linecap:round; stroke-linejoin:round;">
</g>
<g style="fill:#FFFFFF; fill-opacity:1.0; 
stroke:#FFFFFF; stroke-width:0; stroke-opacity:1; 
stroke-linecap:round; stroke-linejoin:round;">
<circle cx="7614.17" cy="6523.62" r="196.85" /> 
</g>
<g style="fill:#FFFFFF; fill-opacity:1.0; 
stroke:#FFFFFF; stroke-width:39.3701; stroke-opacity:1; 
stroke-linecap:round; stroke-linejoin:round;">
</g>
<g style="fill:#FFFFFF; fill-opacity:1.0; 
stroke:#FFFFFF; stroke-width:0; stroke-opacity:1; 
stroke-linecap:round; stroke-linejoin:round;">
<circle cx="10614.2" cy="8263.78" r="196.85" /> 
</g>
<g style="fill:#FFFFFF; fill-opacity:1.0; 
stroke:#FFFFFF; stroke-width:39.3701; stroke-opacity:1; 
stroke-linecap:round; stroke-linejoin:round;">
</g>
<g style="fill:#FFFFFF; fill-opacity:1.0; 
stroke:#FFFFFF; stroke-width:0; stroke-opacity:1; 
stroke-linecap:round; stroke-linejoin:round;">
<circle cx="10303.1" cy="12027.6" r="196.85" /> 
</g>
<g style="fill:#FFFFFF; fill-opacity:1.0; 
stroke:#FFFFFF; stroke-width:39.3701; stroke-opacity:1; 
stroke-linecap:round; stroke-linejoin:round;">
</g>
<g style="fill:#FFFFFF; fill-opacity:1.0; 
stroke:#FFFFFF; stroke-width:0; stroke-opacity:1; 
stroke-linecap:round; stroke-linejoin:round;">
<circle cx="9014.34" cy="6271.75" r="196.85" /> 
</g>
<g style="fill:#FFFFFF; fill-opacity:1.0; 
stroke:#FFFFFF; stroke-width:39.3701; stroke-opacity:1; 
stroke-linecap:round; stroke-linejoin:round;">
</g>
<g style="fill:#FFFFFF; fill-opacity:1.0; 
stroke:#FFFFFF; stroke-width:0; stroke-opacity:1; 
stroke-linecap:round; stroke-linejoin:round;">
<circle cx="9669.29" cy="5881.89" r="196.85" /> 
</g>
<g style="fill:#FFFFFF; fill-opacity:1.0; 
stroke:#FFFFFF; stroke-width:39.3701; stroke-opacity:1; 
stroke-linecap:round; stroke-linejoin:round;">
</g>
<g style="fill:#FFFFFF; fill-opacity:1.0; 
stroke:#FFFFFF; stroke-width:0; stroke-opacity:1; 
stroke-linecap:round; stroke-linejoin:round;">
<circle cx="10307.9" cy="5047.99" r="196.85" /> 
</g>
<g style="fill:#FFFFFF; fill-opacity:1.0; 
stroke:#FFFFFF; stroke-width:39.3701; stroke-opacity:1; 
stroke-linecap:round; stroke-linejoin:round;">
</g>
<g style="fill:#FFFFFF; fill-opacity:1.0; 
stroke:#FFFFFF; stroke-width:0; stroke-opacity:1; 
stroke-linecap:round; stroke-linejoin:round;">
<circle cx="15732.3" cy="7064.96" r="196.85" /> 
</g>
<g style="fill:#FFFFFF; fill-opacity:1.0; 
stroke:#FFFFFF; stroke-width:39.3701; stroke-opacity:1; 
stroke-linecap:round; stroke-linejoin:round;">
</g>
<g style="fill:#FFFFFF; fill-opacity:1.0; 
stroke:#FFFFFF; stroke-width:0; stroke-opacity:1; 
stroke-linecap:round; stroke-linejoin:round;">
<circle cx="15732.3" cy="5295.28" r="196.85" /> 
</g>
<g style="fill:#FFFFFF; fill-opacity:1.0; 
stroke:#FFFFFF; stroke-width:39.3701; stroke-opacity:1; 
stroke-linecap:round; stroke-linejoin:round;">
</g>
<g style="fill:#FFFFFF; fill-opacity:1.0; 
stroke:#FFFFFF; stroke-width:0; stroke-opacity:1; 
stroke-linecap:round; stroke-linejoin:round;">
<circle cx="15732.3" cy="6180.12" r="196.85" /> 
</g>
<g style="fill:#FFFFFF; fill-opacity:1.0; 
stroke:#FFFFFF; stroke-width:39.3701; stroke-opacity:1; 
stroke-linecap:round; stroke-linejoin:round;">
</g>
<g style="fill:#FFFFFF; fill-opacity:1.0; 
stroke:#FFFFFF; stroke-width:0; stroke-opacity:1; 
stroke-linecap:round; stroke-linejoin:round;">
<circle cx="18216.5" cy="4000" r="196.85" /> 
</g>
<g style="fill:#FFFFFF; fill-opacity:1.0; 
stroke:#FFFFFF; stroke-width:39.3701; stroke-opacity:1; 
stroke-linecap:round; stroke-linejoin:round;">
</g>
<g style="fill:#FFFFFF; fill-opacity:1.0; 
stroke:#FFFFFF; stroke-width:0; stroke-opacity:1; 
stroke-linecap:round; stroke-linejoin:round;">
<circle cx="23051.2" cy="4444.88" r="196.85" /> 
</g>
<g style="fill:#FFFFFF; fill-opacity:1.0; 
stroke:#FFFFFF; stroke-width:39.3701; stroke-opacity:1; 
stroke-linecap:round; stroke-linejoin:round;">
</g>
<g style="fill:#FFFFFF; fill-opacity:1.0; 
stroke:#FFFFFF; stroke-width:0; stroke-opacity:1; 
stroke-linecap:round; stroke-linejoin:round;">
<circle cx="23051.2" cy="5444.88" r="196.85" /> 
</g>
<g style="fill:#FFFFFF; fill-opacity:1.0; 
stroke:#FFFFFF; stroke-width:39.3701; stroke-opacity:1; 
stroke-linecap:round; stroke-linejoin:round;">
</g>
<g style="fill:#FFFFFF; fill-opacity:1.0; 
stroke:#FFFFFF; stroke-width:0; stroke-opacity:1; 
stroke-linecap:round; stroke-linejoin:round;">
<circle cx="40511.8" cy="8572.84" r="629.921" /> 
</g>
<g style="fill:#FFFFFF; fill-opacity:1.0; 
stroke:#FFFFFF; stroke-width:39.3701; stroke-opacity:1; 
stroke-linecap:round; stroke-linejoin:round;">
</g>
<g style="fill:#FFFFFF; fill-opacity:1.0; 
stroke:#FFFFFF; stroke-width:0; stroke-opacity:1; 
stroke-linecap:round; stroke-linejoin:round;">
<circle cx="40511.8" cy="6151.58" r="629.921" /> 
</g>
<g style="fill:#FFFFFF; fill-opacity:1.0; 
stroke:#FFFFFF; stroke-width:39.3701; stroke-opacity:1; 
stroke-linecap:round; stroke-linejoin:round;">
</g>
<g style="fill:#FFFFFF; fill-opacity:1.0; 
stroke:#FFFFFF; stroke-width:0; stroke-opacity:1; 
stroke-linecap:round; stroke-linejoin:round;">
<circle cx="38090.6" cy="8572.84" r="629.921" /> 
</g>
<g style="fill:#FFFFFF; fill-opacity:1.0; 
stroke:#FFFFFF; stroke-width:39.3701; stroke-opacity:1; 
stroke-linecap:round; stroke-linejoin:round;">
</g>
<g style="fill:#FFFFFF; fill-opacity:1.0; 
stroke:#FFFFFF; stroke-width:0; stroke-opacity:1; 
stroke-linecap:round; stroke-linejoin:round;">
<circle cx="38090.6" cy="6151.58" r="629.921" /> 
</g>
<g style="fill:#FFFFFF; fill-opacity:1.0; 
stroke:#FFFFFF; stroke-width:39.3701; stroke-opacity:1; 
stroke-linecap:round; stroke-linejoin:round;">
</g>
<g style="fill:#FFFFFF; fill-opacity:1.0; 
stroke:#FFFFFF; stroke-width:0; stroke-opacity:1; 
stroke-linecap:round; stroke-linejoin:round;">
<circle cx="10818.9" cy="3645.67" r="216.535" /> 
</g>
<g style="fill:#FFFFFF; fill-opacity:1.0; 
stroke:#FFFFFF; stroke-width:39.3701; stroke-opacity:1; 
stroke-linecap:round; stroke-linejoin:round;">
</g>
<g style="fill:#FFFFFF; fill-opacity:1.0; 
stroke:#FFFFFF; stroke-width:0; stroke-opacity:1; 
stroke-linecap:round; stroke-linejoin:round;">
<circle cx="9047.24" cy="3645.67" r="216.535" /> 
</g>
<g style="fill:#FFFFFF; fill-opacity:1.0; 
stroke:#FFFFFF; stroke-width:39.3701; stroke-opacity:1; 
stroke-linecap:round; stroke-linejoin:round;">
</g>
<g style="fill:#FFFFFF; fill-opacity:1.0; 
stroke:#FFFFFF; stroke-width:0; stroke-opacity:1; 
stroke-linecap:round; stroke-linejoin:round;">
<circle cx="10818.9" cy="1086.61" r="216.535" /> 
</g>
<g style="fill:#FFFFFF; fill-opacity:1.0; 
stroke:#FFFFFF; stroke-width:39.3701; stroke-opacity:1; 
stroke-linecap:round; stroke-linejoin:round;">
</g>
<g style="fill:#FFFFFF; fill-opacity:1.0; 
stroke:#FFFFFF; stroke-width:0; stroke-opacity:1; 
stroke-linecap:round; stroke-linejoin:round;">
<circle cx="9047.24" cy="1086.61" r="216.535" /> 
</g>
<g style="fill:#FFFFFF; fill-opacity:1.0; 
stroke:#FFFFFF; stroke-width:39.3701; stroke-opacity:1; 
stroke-linecap:round; stroke-linejoin:round;">
</g>
<g style="fill:#FFFFFF; fill-opacity:1.0; 
stroke:#FFFFFF; stroke-width:0; stroke-opacity:1; 
stroke-linecap:round; stroke-linejoin:round;">
<circle cx="12155.5" cy="1086.61" r="216.535" /> 
</g>
<g style="fill:#FFFFFF; fill-opacity:1.0; 
stroke:#FFFFFF; stroke-width:39.3701; stroke-opacity:1; 
stroke-linecap:round; stroke-linejoin:round;">
</g>
<g style="fill:#FFFFFF; fill-opacity:1.0; 
stroke:#FFFFFF; stroke-width:0; stroke-opacity:1; 
stroke-linecap:round; stroke-linejoin:round;">
<circle cx="13927.2" cy="1086.61" r="216.535" /> 
</g>
<g style="fill:#FFFFFF; fill-opacity:1.0; 
stroke:#FFFFFF; stroke-width:39.3701; stroke-opacity:1; 
stroke-linecap:round; stroke-linejoin:round;">
</g>
<g style="fill:#FFFFFF; fill-opacity:1.0; 
stroke:#FFFFFF; stroke-width:0; stroke-opacity:1; 
stroke-linecap:round; stroke-linejoin:round;">
<circle cx="12155.5" cy="3645.67" r="216.535" /> 
</g>
<g style="fill:#FFFFFF; fill-opacity:1.0; 
stroke:#FFFFFF; stroke-width:39.3701; stroke-opacity:1; 
stroke-linecap:round; stroke-linejoin:round;">
</g>
<g style="fill:#FFFFFF; fill-opacity:1.0; 
stroke:#FFFFFF; stroke-width:0; stroke-opacity:1; 
stroke-linecap:round; stroke-linejoin:round;">
<circle cx="13927.2" cy="3645.67" r="216.535" /> 
</g>
<g style="fill:#FFFFFF; fill-opacity:1.0; 
stroke:#FFFFFF; stroke-width:39.3701; stroke-opacity:1; 
stroke-linecap:round; stroke-linejoin:round;">
</g>
<g style="fill:#FFFFFF; fill-opacity:1.0; 
stroke:#FFFFFF; stroke-width:0; stroke-opacity:1; 
stroke-linecap:round; stroke-linejoin:round;">
<circle cx="17035.4" cy="3645.67" r="216.535" /> 
</g>
<g style="fill:#FFFFFF; fill-opacity:1.0; 
stroke:#FFFFFF; stroke-width:39.3701; stroke-opacity:1; 
stroke-linecap:round; stroke-linejoin:round;">
</g>
<g style="fill:#FFFFFF; fill-opacity:1.0; 
stroke:#FFFFFF; stroke-width:0; stroke-opacity:1; 
stroke-linecap:round; stroke-linejoin:round;">
<circle cx="15263.8" cy="3645.67" r="216.535" /> 
</g>
<g style="fill:#FFFFFF; fill-opacity:1.0; 
stroke:#FFFFFF; stroke-width:39.3701; stroke-opacity:1; 
stroke-linecap:round; stroke-linejoin:round;">
</g>
<g style="fill:#FFFFFF; fill-opacity:1.0; 
stroke:#FFFFFF; stroke-width:0; stroke-opacity:1; 
stroke-linecap:round; stroke-linejoin:round;">
<circle cx="17035.4" cy="1086.61" r="216.535" /> 
</g>
<g style="fill:#FFFFFF; fill-opacity:1.0; 
stroke:#FFFFFF; stroke-width:39.3701; stroke-opacity:1; 
stroke-linecap:round; stroke-linejoin:round;">
</g>
<g style="fill:#FFFFFF; fill-opacity:1.0; 
stroke:#FFFFFF; stroke-width:0; stroke-opacity:1; 
stroke-linecap:round; stroke-linejoin:round;">
<circle cx="15263.8" cy="1086.61" r="216.535" /> 
</g>
<g style="fill:#FFFFFF; fill-opacity:1.0; 
stroke:#FFFFFF; stroke-width:39.3701; stroke-opacity:1; 
stroke-linecap:round; stroke-linejoin:round;">
</g>
<g style="fill:#FFFFFF; fill-opacity:1.0; 
stroke:#FFFFFF; stroke-width:0; stroke-opacity:1; 
stroke-linecap:round; stroke-linejoin:round;">
<circle cx="20846.5" cy="10974.4" r="295.275" /> 
</g>
<g style="fill:#FFFFFF; fill-opacity:1.0; 
stroke:#FFFFFF; stroke-width:39.3701; stroke-opacity:1; 
stroke-linecap:round; stroke-linejoin:round;">
</g>
<g style="fill:#FFFFFF; fill-opacity:1.0; 
stroke:#FFFFFF; stroke-width:0; stroke-opacity:1; 
stroke-linecap:round; stroke-linejoin:round;">
<circle cx="18090.6" cy="10974.4" r="295.275" /> 
</g>
<g style="fill:#FFFFFF; fill-opacity:1.0; 
stroke:#FFFFFF; stroke-width:39.3701; stroke-opacity:1; 
stroke-linecap:round; stroke-linejoin:round;">
</g>
<g style="fill:#FFFFFF; fill-opacity:1.0; 
stroke:#FFFFFF; stroke-width:0; stroke-opacity:1; 
stroke-linecap:round; stroke-linejoin:round;">
<circle cx="19370.1" cy="2935.04" r="157.5" /> 
</g>
<g style="fill:#FFFFFF; fill-opacity:1.0; 
stroke:#FFFFFF; stroke-width:39.3701; stroke-opacity:1; 
stroke-linecap:round; stroke-linejoin:round;">
</g>
<g style="fill:#FFFFFF; fill-opacity:1.0; 
stroke:#FFFFFF; stroke-width:0; stroke-opacity:1; 
stroke-linecap:round; stroke-linejoin:round;">
<circle cx="21370.1" cy="2935.04" r="157.5" /> 
</g>
<g style="fill:#FFFFFF; fill-opacity:1.0; 
stroke:#FFFFFF; stroke-width:39.3701; stroke-opacity:1; 
stroke-linecap:round; stroke-linejoin:round;">
</g>
<g style="fill:#000000; fill-opacity:1.0; 
stroke:#000000; stroke-width:39.3701; stroke-opacity:1; 
stroke-linecap:round; stroke-linejoin:round;">
</g>
<g style="fill:#000000; fill-opacity:1.0; 
stroke:#000000; stroke-width:59.0551; stroke-opacity:1; 
stroke-linecap:round; stroke-linejoin:round;">
</g>
<g style="fill:#000000; fill-opacity:0.0; 
stroke:#000000; stroke-width:59.0551; stroke-opacity:1; 
stroke-linecap:round; stroke-linejoin:round;">
<path d="M98 3877
L98 8602
" />
<path d="M3937.01 11752 A1968.5 1968.5 0.0 0 0 5905.51 13720.5 " />
<path d="M5905.51 39.3705 A1968.5 1968.5 0.0 0 0 3937.01 2007.87 " />
<path d="M3937 8602
L3937 11751
" />
<path d="M3937 3877
L3937 2007
" />
<path d="M98 8602
L3937 8602
" />
<path d="M98 3877
L3937 3877
" />
</g>
<g style="fill:#000000; fill-opacity:0.0; 
stroke:#000000; stroke-width:78.7402; stroke-opacity:1; 
stroke-linecap:round; stroke-linejoin:round;">
<path d="M5905 39
L24114 39
" />
<path d="M24114 39
L24114 13720
" />
<path d="M5905 13720
L24114 13720
" />
</g> 
</svg>
